ultracondensed-black-italic.ufo
<glyph name="exclam" format="2">
  <advance height="1920" width="400"/>
  <unicode hex="0021"/>
  <outline>
    <contour>
      <point x="195.0" y="0.0" type="curve" smooth="yes"/>
      <point x="-35.0" y="0.0" type="line" smooth="yes"/>
      <point x="-42.0" y="0.0"/>
      <point x="-45.0" y="3.0"/>
      <point x="-43.0" y="10.0" type="curve" smooth="yes"/>
      <point x="36.0" y="350.0" type="line" smooth="yes"/>
      <point x="38.0" y="357.0"/>
      <point x="41.0" y="360.0"/>
      <point x="48.0" y="360.0" type="curve" smooth="yes"/>
      <point x="278.0" y="360.0" type="line" smooth="yes"/>
      <point x="285.0" y="360.0"/>
      <point x="288.0" y="357.0"/>
      <point x="286.0" y="350.0" type="curve" smooth="yes"/>
      <point x="207.0" y="10.0" type="line" smooth="yes"/>
      <point x="205.0" y="3.0"/>
      <point x="202.0" y="0.0"/>
    </contour>
    <contour>
      <point x="144.0" y="950.0" type="curve" smooth="yes"/>
      <point x="257.0" y="1440.0" type="line" smooth="yes"/>
      <point x="259.0" y="1447.0"/>
      <point x="263.0" y="1450.0"/>
      <point x="270.0" y="1450.0" type="curve" smooth="yes"/>
      <point x="560.0" y="1450.0" type="line" smooth="yes"/>
      <point x="567.0" y="1450.0"/>
      <point x="569.0" y="1447.0"/>
      <point x="567.0" y="1440.0" type="curve" smooth="yes"/>
      <point x="454.0" y="950.0" type="line" smooth="yes"/>
      <point x="452.0" y="943.0"/>
      <point x="451.0" y="937.0"/>
      <point x="449.0" y="930.0" type="curve" smooth="yes"/>
      <point x="254.0" y="510.0" type="line" smooth="yes"/>
      <point x="252.0" y="503.0"/>
      <point x="247.0" y="500.0"/>
      <point x="240.0" y="500.0" type="curve" smooth="yes"/>
      <point x="150.0" y="500.0" type="line" smooth="yes"/>
      <point x="143.0" y="500.0"/>
      <point x="141.0" y="503.0"/>
      <point x="142.0" y="510.0" type="curve" smooth="yes"/>
      <point x="141.0" y="930.0" type="line" smooth="yes"/>
      <point x="142.0" y="937.0"/>
      <point x="142.0" y="943.0"/>
    </contour>
  </outline>
</glyph>
<glyph name="numbersign" format="2">
  <advance height="1920" width="805"/>
  <unicode hex="0023"/>
  <outline>
    <contour>
      <point x="11.0" y="545.0" type="curve" smooth="yes"/>
      <point x="766.0" y="545.0" type="line" smooth="yes"/>
      <point x="770.0" y="545.0"/>
      <point x="771.0" y="544.0"/>
      <point x="770.0" y="540.0" type="curve" smooth="yes"/>
      <point x="736.0" y="395.0" type="line" smooth="yes"/>
      <point x="735.0" y="391.0"/>
      <point x="734.0" y="390.0"/>
      <point x="730.0" y="390.0" type="curve" smooth="yes"/>
      <point x="-25.0" y="390.0" type="line" smooth="yes"/>
      <point x="-29.0" y="390.0"/>
      <point x="-30.0" y="391.0"/>
      <point x="-29.0" y="395.0" type="curve" smooth="yes"/>
      <point x="5.0" y="540.0" type="line" smooth="yes"/>
      <point x="6.0" y="544.0"/>
      <point x="7.0" y="545.0"/>
    </contour>
    <contour>
      <point x="167.0" y="1050.0" type="curve" smooth="yes"/>
      <point x="922.0" y="1050.0" type="line" smooth="yes"/>
      <point x="926.0" y="1050.0"/>
      <point x="927.0" y="1049.0"/>
      <point x="926.0" y="1045.0" type="curve" smooth="yes"/>
      <point x="893.0" y="900.0" type="line" smooth="yes"/>
      <point x="892.0" y="896.0"/>
      <point x="891.0" y="895.0"/>
      <point x="887.0" y="895.0" type="curve" smooth="yes"/>
      <point x="132.0" y="895.0" type="line" smooth="yes"/>
      <point x="128.0" y="895.0"/>
      <point x="127.0" y="896.0"/>
      <point x="128.0" y="900.0" type="curve" smooth="yes"/>
      <point x="161.0" y="1045.0" type="line" smooth="yes"/>
      <point x="162.0" y="1049.0"/>
      <point x="163.0" y="1050.0"/>
    </contour>
    <contour>
      <point x="718.0" y="1400.0" type="curve" smooth="yes"/>
      <point x="933.0" y="1400.0" type="line" smooth="yes"/>
      <point x="938.0" y="1400.0"/>
      <point x="938.0" y="1399.0"/>
      <point x="936.0" y="1395.0" type="curve" smooth="yes"/>
      <point x="452.0" y="5.0" type="line" smooth="yes"/>
      <point x="450.0" y="1.0"/>
      <point x="450.0" y="0.0"/>
      <point x="445.0" y="0.0" type="curve" smooth="yes"/>
      <point x="230.0" y="0.0" type="line" smooth="yes"/>
      <point x="225.0" y="0.0"/>
      <point x="225.0" y="1.0"/>
      <point x="227.0" y="5.0" type="curve" smooth="yes"/>
      <point x="711.0" y="1395.0" type="line" smooth="yes"/>
      <point x="713.0" y="1399.0"/>
      <point x="713.0" y="1400.0"/>
    </contour>
    <contour>
      <point x="433.0" y="1400.0" type="curve" smooth="yes"/>
      <point x="648.0" y="1400.0" type="line" smooth="yes"/>
      <point x="652.0" y="1400.0"/>
      <point x="653.0" y="1399.0"/>
      <point x="651.0" y="1395.0" type="curve" smooth="yes"/>
      <point x="167.0" y="5.0" type="line" smooth="yes"/>
      <point x="165.0" y="1.0"/>
      <point x="164.0" y="0.0"/>
      <point x="160.0" y="0.0" type="curve" smooth="yes"/>
      <point x="-55.0" y="0.0" type="line" smooth="yes"/>
      <point x="-59.0" y="0.0"/>
      <point x="-60.0" y="1.0"/>
      <point x="-58.0" y="5.0" type="curve" smooth="yes"/>
      <point x="426.0" y="1395.0" type="line" smooth="yes"/>
      <point x="428.0" y="1399.0"/>
      <point x="429.0" y="1400.0"/>
    </contour>
  </outline>
</glyph>
<glyph name="percent" format="2">
  <advance height="2048" width="927"/>
  <unicode hex="0025"/>
  <outline>
    <contour>
      <point x="146.0" y="1042.0" type="curve" smooth="yes"/>
      <point x="184.0" y="1209.0" type="line" smooth="yes"/>
      <point x="215.0" y="1344.0"/>
      <point x="311.0" y="1418.0"/>
      <point x="449.0" y="1418.0" type="curve" smooth="yes"/>
      <point x="587.0" y="1418.0"/>
      <point x="655.0" y="1344.0"/>
      <point x="624.0" y="1209.0" type="curve" smooth="yes"/>
      <point x="586.0" y="1042.0" type="line" smooth="yes"/>
      <point x="555.0" y="907.0"/>
      <point x="452.0" y="832.0"/>
      <point x="314.0" y="832.0" type="curve" smooth="yes"/>
      <point x="176.0" y="832.0"/>
      <point x="115.0" y="907.0"/>
    </contour>
    <contour>
      <point x="329.0" y="1026.0" type="line" smooth="yes"/>
      <point x="315.0" y="966.0"/>
      <point x="311.0" y="942.0"/>
      <point x="339.0" y="942.0" type="curve" smooth="yes"/>
      <point x="367.0" y="942.0"/>
      <point x="381.0" y="966.0"/>
      <point x="395.0" y="1026.0" type="curve" smooth="yes"/>
      <point x="441.0" y="1224.0" type="line" smooth="yes"/>
      <point x="455.0" y="1284.0"/>
      <point x="452.0" y="1308.0"/>
      <point x="424.0" y="1308.0" type="curve" smooth="yes"/>
      <point x="396.0" y="1308.0"/>
      <point x="389.0" y="1284.0"/>
      <point x="375.0" y="1224.0" type="curve" smooth="yes"/>
    </contour>
    <contour>
      <point x="387.0" y="192.0" type="curve" smooth="yes"/>
      <point x="426.0" y="359.0" type="line" smooth="yes"/>
      <point x="457.0" y="494.0"/>
      <point x="553.0" y="568.0"/>
      <point x="691.0" y="568.0" type="curve" smooth="yes"/>
      <point x="829.0" y="568.0"/>
      <point x="897.0" y="494.0"/>
      <point x="866.0" y="359.0" type="curve" smooth="yes"/>
      <point x="827.0" y="192.0" type="line" smooth="yes"/>
      <point x="796.0" y="57.0"/>
      <point x="694.0" y="-18.0"/>
      <point x="556.0" y="-18.0" type="curve" smooth="yes"/>
      <point x="418.0" y="-18.0"/>
      <point x="356.0" y="57.0"/>
    </contour>
    <contour>
      <point x="571.0" y="176.0" type="line" smooth="yes"/>
      <point x="557.0" y="116.0"/>
      <point x="553.0" y="92.0"/>
      <point x="581.0" y="92.0" type="curve" smooth="yes"/>
      <point x="609.0" y="92.0"/>
      <point x="623.0" y="116.0"/>
      <point x="637.0" y="176.0" type="curve" smooth="yes"/>
      <point x="682.0" y="374.0" type="line" smooth="yes"/>
      <point x="696.0" y="434.0"/>
      <point x="694.0" y="458.0"/>
      <point x="666.0" y="458.0" type="curve" smooth="yes"/>
      <point x="638.0" y="458.0"/>
      <point x="630.0" y="434.0"/>
      <point x="616.0" y="374.0" type="curve" smooth="yes"/>
    </contour>
    <contour>
      <point x="1092.0" y="1395.0" type="curve" smooth="yes"/>
      <point x="99.0" y="5.0" type="line" smooth="yes"/>
      <point x="96.0" y="1.0"/>
      <point x="94.0" y="0.0"/>
      <point x="90.0" y="0.0" type="curve" smooth="yes"/>
      <point x="-80.0" y="0.0" type="line" smooth="yes"/>
      <point x="-84.0" y="0.0"/>
      <point x="-84.0" y="1.0"/>
      <point x="-81.0" y="5.0" type="curve" smooth="yes"/>
      <point x="912.0" y="1395.0" type="line" smooth="yes"/>
      <point x="915.0" y="1399.0"/>
      <point x="917.0" y="1400.0"/>
      <point x="921.0" y="1400.0" type="curve" smooth="yes"/>
      <point x="1091.0" y="1400.0" type="line" smooth="yes"/>
      <point x="1095.0" y="1400.0"/>
      <point x="1095.0" y="1399.0"/>
    </contour>
  </outline>
</glyph>
<glyph name="ampersand" format="2">
  <advance height="1920" width="851"/>
  <unicode hex="0026"/>
  <outline>
    <contour>
      <point x="396.0" y="5.0" type="curve" smooth="yes"/>
      <point x="312.0" y="1034.0" type="line" smooth="yes"/>
      <point x="306.0" y="1132.0"/>
      <point x="310.0" y="1201.0"/>
      <point x="323.0" y="1257.0" type="curve" smooth="yes"/>
      <point x="343.0" y="1342.0"/>
      <point x="420.0" y="1417.0"/>
      <point x="594.0" y="1417.0" type="curve" smooth="yes"/>
      <point x="782.0" y="1417.0"/>
      <point x="823.0" y="1336.0"/>
      <point x="796.0" y="1221.0" type="curve" smooth="yes"/>
      <point x="763.0" y="1077.0"/>
      <point x="556.0" y="942.0"/>
      <point x="432.0" y="885.0" type="curve" smooth="yes"/>
      <point x="363.0" y="853.0"/>
      <point x="312.0" y="763.0"/>
      <point x="295.0" y="691.0" type="curve" smooth="yes"/>
      <point x="283.0" y="641.0"/>
      <point x="284.0" y="617.0"/>
      <point x="290.0" y="546.0" type="curve" smooth="yes"/>
      <point x="316.0" y="246.0" type="line" smooth="yes"/>
      <point x="319.0" y="209.0"/>
      <point x="328.0" y="198.0"/>
      <point x="349.0" y="198.0" type="curve" smooth="yes"/>
      <point x="470.0" y="198.0"/>
      <point x="621.0" y="540.0"/>
      <point x="682.0" y="637.0" type="curve" smooth="yes"/>
      <point x="683.0" y="639.0"/>
      <point x="686.0" y="641.0"/>
      <point x="690.0" y="641.0" type="curve" smooth="yes"/>
      <point x="875.0" y="641.0" type="line" smooth="yes"/>
      <point x="879.0" y="641.0"/>
      <point x="880.0" y="639.0"/>
      <point x="877.0" y="635.0" type="curve" smooth="yes"/>
      <point x="732.0" y="430.0"/>
      <point x="415.0" y="-17.0"/>
      <point x="211.0" y="-17.0" type="curve" smooth="yes"/>
      <point x="83.0" y="-17.0"/>
      <point x="66.0" y="58.0"/>
      <point x="49.0" y="210.0" type="curve" smooth="yes"/>
      <point x="26.0" y="417.0" type="line" smooth="yes"/>
      <point x="16.0" y="505.0"/>
      <point x="24.0" y="583.0"/>
      <point x="40.0" y="651.0" type="curve" smooth="yes"/>
      <point x="69.0" y="775.0"/>
      <point x="209.0" y="908.0"/>
      <point x="421.0" y="988.0" type="curve" smooth="yes"/>
      <point x="545.0" y="1035.0"/>
      <point x="609.0" y="1180.0"/>
      <point x="621.0" y="1230.0" type="curve" smooth="yes"/>
      <point x="628.0" y="1262.0"/>
      <point x="613.0" y="1275.0"/>
      <point x="595.0" y="1275.0" type="curve" smooth="yes"/>
      <point x="577.0" y="1275.0"/>
      <point x="559.0" y="1258.0"/>
      <point x="553.0" y="1231.0" type="curve" smooth="yes"/>
      <point x="547.0" y="1207.0"/>
      <point x="550.0" y="1155.0"/>
      <point x="553.0" y="1105.0" type="curve" smooth="yes"/>
      <point x="651.0" y="5.0" type="line" smooth="yes"/>
      <point x="652.0" y="1.0"/>
      <point x="652.0" y="0.0"/>
      <point x="648.0" y="0.0" type="curve" smooth="yes"/>
      <point x="403.0" y="0.0" type="line" smooth="yes"/>
      <point x="399.0" y="0.0"/>
      <point x="397.0" y="1.0"/>
    </contour>
  </outline>
</glyph>
<glyph name="quotesingle" format="2">
  <advance height="1920" width="360"/>
  <unicode hex="0027"/>
  <outline>
    <contour>
      <point x="282.0" y="830.0" type="curve" smooth="yes"/>
      <point x="212.0" y="830.0" type="line" smooth="yes"/>
      <point x="205.0" y="830.0"/>
      <point x="202.0" y="833.0"/>
      <point x="202.0" y="840.0" type="curve" smooth="yes"/>
      <point x="220.0" y="1160.0" type="line" smooth="yes"/>
      <point x="220.0" y="1167.0"/>
      <point x="220.0" y="1173.0"/>
      <point x="222.0" y="1180.0" type="curve" smooth="yes"/>
      <point x="276.0" y="1410.0" type="line" smooth="yes"/>
      <point x="278.0" y="1417.0"/>
      <point x="281.0" y="1420.0"/>
      <point x="288.0" y="1420.0" type="curve" smooth="yes"/>
      <point x="488.0" y="1420.0" type="line" smooth="yes"/>
      <point x="495.0" y="1420.0"/>
      <point x="498.0" y="1417.0"/>
      <point x="496.0" y="1410.0" type="curve" smooth="yes"/>
      <point x="442.0" y="1180.0" type="line" smooth="yes"/>
      <point x="440.0" y="1173.0"/>
      <point x="439.0" y="1167.0"/>
      <point x="436.0" y="1160.0" type="curve" smooth="yes"/>
      <point x="296.0" y="840.0" type="line" smooth="yes"/>
      <point x="293.0" y="833.0"/>
      <point x="289.0" y="830.0"/>
    </contour>
  </outline>
</glyph>
<glyph name="parenleft" format="2">
  <advance height="2048" width="332"/>
  <unicode hex="0028"/>
  <outline>
    <contour>
      <point x="174.0" y="1228.0" type="line" smooth="yes"/>
      <point x="221.0" y="1430.0"/>
      <point x="343.0" y="1590.0"/>
      <point x="564.0" y="1618.0" type="curve" smooth="yes"/>
      <point x="568.0" y="1619.0"/>
      <point x="569.0" y="1618.0"/>
      <point x="568.0" y="1614.0" type="curve" smooth="yes"/>
      <point x="542.0" y="1504.0" type="line" smooth="yes"/>
      <point x="541.0" y="1501.0"/>
      <point x="539.0" y="1499.0"/>
      <point x="536.0" y="1497.0" type="curve" smooth="yes"/>
      <point x="481.0" y="1471.0"/>
      <point x="454.0" y="1413.0"/>
      <point x="408.0" y="1213.0" type="curve" smooth="yes"/>
      <point x="137.0" y="37.0" type="line" smooth="yes"/>
      <point x="91.0" y="-163.0"/>
      <point x="90.0" y="-221.0"/>
      <point x="133.0" y="-247.0" type="curve" smooth="yes"/>
      <point x="136.0" y="-249.0"/>
      <point x="137.0" y="-251.0"/>
      <point x="136.0" y="-254.0" type="curve" smooth="yes"/>
      <point x="111.0" y="-364.0" type="line" smooth="yes"/>
      <point x="110.0" y="-368.0"/>
      <point x="109.0" y="-369.0"/>
      <point x="105.0" y="-368.0" type="curve" smooth="yes"/>
      <point x="-104.0" y="-340.0"/>
      <point x="-152.0" y="-180.0"/>
      <point x="-105.0" y="22.0" type="curve" smooth="yes"/>
    </contour>
  </outline>
</glyph>
<glyph name="parenright" format="2">
  <advance height="2048" width="332"/>
  <unicode hex="0029"/>
  <outline>
    <contour>
      <point x="207.0" y="22.0" type="line" smooth="yes"/>
      <point x="160.0" y="-180.0"/>
      <point x="38.0" y="-340.0"/>
      <point x="-183.0" y="-368.0" type="curve" smooth="yes"/>
      <point x="-187.0" y="-369.0"/>
      <point x="-188.0" y="-368.0"/>
      <point x="-187.0" y="-364.0" type="curve" smooth="yes"/>
      <point x="-162.0" y="-254.0" type="line" smooth="yes"/>
      <point x="-161.0" y="-251.0"/>
      <point x="-158.0" y="-249.0"/>
      <point x="-155.0" y="-247.0" type="curve" smooth="yes"/>
      <point x="-100.0" y="-221.0"/>
      <point x="-73.0" y="-163.0"/>
      <point x="-27.0" y="37.0" type="curve" smooth="yes"/>
      <point x="244.0" y="1213.0" type="line" smooth="yes"/>
      <point x="290.0" y="1413.0"/>
      <point x="291.0" y="1471.0"/>
      <point x="248.0" y="1497.0" type="curve" smooth="yes"/>
      <point x="245.0" y="1499.0"/>
      <point x="243.0" y="1501.0"/>
      <point x="244.0" y="1504.0" type="curve" smooth="yes"/>
      <point x="270.0" y="1614.0" type="line" smooth="yes"/>
      <point x="271.0" y="1618.0"/>
      <point x="272.0" y="1619.0"/>
      <point x="276.0" y="1618.0" type="curve" smooth="yes"/>
      <point x="485.0" y="1590.0"/>
      <point x="533.0" y="1430.0"/>
      <point x="486.0" y="1228.0" type="curve" smooth="yes"/>
    </contour>
  </outline>
</glyph>
<glyph name="asterisk" format="2">
  <advance height="2048" width="644"/>
  <unicode hex="002A"/>
  <outline>
    <contour>
      <point x="486.0" y="1204.0" type="line"/>
      <point x="481.0" y="1236.0" type="line"/>
      <point x="677.0" y="1393.0" type="line" smooth="yes"/>
      <point x="680.0" y="1395.0"/>
      <point x="683.0" y="1396.0"/>
      <point x="687.0" y="1396.0" type="curve" smooth="yes"/>
      <point x="776.0" y="1419.0" type="line" smooth="yes"/>
      <point x="780.0" y="1419.0"/>
      <point x="781.0" y="1419.0"/>
      <point x="781.0" y="1415.0" type="curve" smooth="yes"/>
      <point x="800.0" y="1210.0" type="line" smooth="yes"/>
      <point x="800.0" y="1206.0"/>
      <point x="798.0" y="1206.0"/>
      <point x="795.0" y="1204.0" type="curve" smooth="yes"/>
      <point x="709.0" y="1174.0" type="line" smooth="yes"/>
      <point x="706.0" y="1172.0"/>
      <point x="702.0" y="1171.0"/>
      <point x="698.0" y="1171.0" type="curve" smooth="yes"/>
    </contour>
    <contour>
      <point x="466.0" y="1210.0" type="line"/>
      <point x="499.0" y="1231.0" type="line"/>
      <point x="673.0" y="1128.0" type="line" smooth="yes"/>
      <point x="675.0" y="1126.0"/>
      <point x="677.0" y="1123.0"/>
      <point x="678.0" y="1120.0" type="curve" smooth="yes"/>
      <point x="708.0" y="1048.0" type="line" smooth="yes"/>
      <point x="709.0" y="1045.0"/>
      <point x="708.0" y="1043.0"/>
      <point x="705.0" y="1041.0" type="curve" smooth="yes"/>
      <point x="502.0" y="914.0" type="line" smooth="yes"/>
      <point x="499.0" y="912.0"/>
      <point x="496.0" y="914.0"/>
      <point x="494.0" y="916.0" type="curve" smooth="yes"/>
      <point x="457.0" y="982.0" type="line" smooth="yes"/>
      <point x="455.0" y="984.0"/>
      <point x="454.0" y="987.0"/>
      <point x="453.0" y="990.0" type="curve" smooth="yes"/>
    </contour>
    <contour>
      <point x="472.0" y="1230.0" type="line"/>
      <point x="495.0" y="1210.0" type="line"/>
      <point x="408.0" y="990.0" type="line" smooth="yes"/>
      <point x="405.0" y="987.0"/>
      <point x="402.0" y="984.0"/>
      <point x="400.0" y="982.0" type="curve" smooth="yes"/>
      <point x="331.0" y="915.0" type="line" smooth="yes"/>
      <point x="329.0" y="913.0"/>
      <point x="327.0" y="912.0"/>
      <point x="324.0" y="914.0" type="curve" smooth="yes"/>
      <point x="179.0" y="1040.0" type="line" smooth="yes"/>
      <point x="176.0" y="1042.0"/>
      <point x="176.0" y="1045.0"/>
      <point x="179.0" y="1048.0" type="curve" smooth="yes"/>
      <point x="242.0" y="1119.0" type="line" smooth="yes"/>
      <point x="245.0" y="1122.0"/>
      <point x="248.0" y="1125.0"/>
      <point x="250.0" y="1127.0" type="curve" smooth="yes"/>
    </contour>
    <contour>
      <point x="492.0" y="1236.0" type="line"/>
      <point x="474.0" y="1203.0" type="line"/>
      <point x="245.0" y="1170.0" type="line" smooth="yes"/>
      <point x="241.0" y="1170.0"/>
      <point x="240.0" y="1172.0"/>
      <point x="237.0" y="1174.0" type="curve" smooth="yes"/>
      <point x="164.0" y="1204.0" type="line" smooth="yes"/>
      <point x="161.0" y="1206.0"/>
      <point x="160.0" y="1206.0"/>
      <point x="162.0" y="1210.0" type="curve" smooth="yes"/>
      <point x="275.0" y="1414.0" type="line" smooth="yes"/>
      <point x="277.0" y="1418.0"/>
      <point x="279.0" y="1418.0"/>
      <point x="283.0" y="1418.0" type="curve" smooth="yes"/>
      <point x="360.0" y="1396.0" type="line" smooth="yes"/>
      <point x="364.0" y="1396.0"/>
      <point x="365.0" y="1394.0"/>
      <point x="368.0" y="1392.0" type="curve" smooth="yes"/>
    </contour>
    <contour>
      <point x="501.0" y="1220.0" type="line"/>
      <point x="466.0" y="1220.0" type="line"/>
      <point x="413.0" y="1420.0" type="line" smooth="yes"/>
      <point x="414.0" y="1424.0"/>
      <point x="414.0" y="1426.0"/>
      <point x="415.0" y="1430.0" type="curve" smooth="yes"/>
      <point x="439.0" y="1515.0" type="line" smooth="yes"/>
      <point x="440.0" y="1519.0"/>
      <point x="441.0" y="1520.0"/>
      <point x="445.0" y="1520.0" type="curve" smooth="yes"/>
      <point x="660.0" y="1520.0" type="line" smooth="yes"/>
      <point x="664.0" y="1520.0"/>
      <point x="666.0" y="1519.0"/>
      <point x="665.0" y="1515.0" type="curve" smooth="yes"/>
      <point x="649.0" y="1430.0" type="line" smooth="yes"/>
      <point x="648.0" y="1426.0"/>
      <point x="648.0" y="1424.0"/>
      <point x="647.0" y="1420.0" type="curve" smooth="yes"/>
    </contour>
  </outline>
</glyph>
<glyph name="plus" format="2">
  <advance height="1920" width="520"/>
  <unicode hex="002B"/>
  <outline>
    <contour>
      <point x="41.0" y="602.0" type="curve" smooth="yes"/>
      <point x="80.0" y="770.0" type="line" smooth="yes"/>
      <point x="81.0" y="774.0"/>
      <point x="83.0" y="775.0"/>
      <point x="87.0" y="775.0" type="curve" smooth="yes"/>
      <point x="551.0" y="775.0" type="line" smooth="yes"/>
      <point x="555.0" y="775.0"/>
      <point x="557.0" y="774.0"/>
      <point x="556.0" y="770.0" type="curve" smooth="yes"/>
      <point x="517.0" y="602.0" type="line" smooth="yes"/>
      <point x="516.0" y="598.0"/>
      <point x="514.0" y="598.0"/>
      <point x="510.0" y="598.0" type="curve" smooth="yes"/>
      <point x="46.0" y="598.0" type="line" smooth="yes"/>
      <point x="42.0" y="598.0"/>
      <point x="40.0" y="598.0"/>
    </contour>
    <contour>
      <point x="274.0" y="935.0" type="curve" smooth="yes"/>
      <point x="438.0" y="935.0" type="line" smooth="yes"/>
      <point x="442.0" y="935.0"/>
      <point x="444.0" y="934.0"/>
      <point x="443.0" y="930.0" type="curve" smooth="yes"/>
      <point x="327.0" y="430.0" type="line" smooth="yes"/>
      <point x="326.0" y="426.0"/>
      <point x="324.0" y="425.0"/>
      <point x="320.0" y="425.0" type="curve" smooth="yes"/>
      <point x="156.0" y="425.0" type="line" smooth="yes"/>
      <point x="152.0" y="425.0"/>
      <point x="150.0" y="426.0"/>
      <point x="151.0" y="430.0" type="curve" smooth="yes"/>
      <point x="267.0" y="930.0" type="line" smooth="yes"/>
      <point x="268.0" y="934.0"/>
      <point x="270.0" y="935.0"/>
    </contour>
  </outline>
</glyph>
<glyph name="comma" format="2">
  <advance height="1920" width="400"/>
  <unicode hex="002C"/>
  <outline>
    <contour>
      <point x="-99.0" y="-310.0" type="curve" smooth="yes"/>
      <point x="-135.0" y="-310.0" type="line" smooth="yes"/>
      <point x="-142.0" y="-310.0"/>
      <point x="-144.0" y="-308.0"/>
      <point x="-139.0" y="-300.0" type="curve" smooth="yes"/>
      <point x="55.0" y="0.0" type="line"/>
      <point x="-35.0" y="0.0" type="line" smooth="yes"/>
      <point x="-44.0" y="0.0"/>
      <point x="-45.0" y="1.0"/>
      <point x="-43.0" y="10.0" type="curve" smooth="yes"/>
      <point x="36.0" y="350.0" type="line" smooth="yes"/>
      <point x="38.0" y="357.0"/>
      <point x="41.0" y="360.0"/>
      <point x="48.0" y="360.0" type="curve" smooth="yes"/>
      <point x="278.0" y="360.0" type="line" smooth="yes"/>
      <point x="285.0" y="360.0"/>
      <point x="288.0" y="357.0"/>
      <point x="286.0" y="350.0" type="curve" smooth="yes"/>
      <point x="210.0" y="20.0" type="line" smooth="yes"/>
      <point x="208.0" y="13.0"/>
      <point x="206.0" y="9.0"/>
      <point x="199.0" y="0.0" type="curve" smooth="yes"/>
      <point x="-75.0" y="-300.0" type="line" smooth="yes"/>
      <point x="-82.0" y="-308.0"/>
      <point x="-91.0" y="-310.0"/>
    </contour>
  </outline>
</glyph>
<glyph name="hyphen" format="2">
  <advance height="1920" width="285"/>
  <unicode hex="002D"/>
  <outline>
    <contour>
      <point x="22.0" y="529.0" type="curve" smooth="yes"/>
      <point x="61.0" y="696.0" type="line" smooth="yes"/>
      <point x="62.0" y="700.0"/>
      <point x="63.0" y="701.0"/>
      <point x="67.0" y="701.0" type="curve" smooth="yes"/>
      <point x="302.0" y="701.0" type="line" smooth="yes"/>
      <point x="306.0" y="701.0"/>
      <point x="307.0" y="700.0"/>
      <point x="306.0" y="696.0" type="curve" smooth="yes"/>
      <point x="267.0" y="529.0" type="line" smooth="yes"/>
      <point x="266.0" y="525.0"/>
      <point x="265.0" y="524.0"/>
      <point x="261.0" y="524.0" type="curve" smooth="yes"/>
      <point x="26.0" y="524.0" type="line" smooth="yes"/>
      <point x="22.0" y="524.0"/>
      <point x="21.0" y="525.0"/>
    </contour>
  </outline>
</glyph>
<glyph name="period" format="2">
  <advance height="1920" width="400"/>
  <unicode hex="002E"/>
  <outline>
    <contour>
      <point x="195.0" y="0.0" type="curve" smooth="yes"/>
      <point x="-35.0" y="0.0" type="line" smooth="yes"/>
      <point x="-42.0" y="0.0"/>
      <point x="-45.0" y="3.0"/>
      <point x="-43.0" y="10.0" type="curve" smooth="yes"/>
      <point x="36.0" y="350.0" type="line" smooth="yes"/>
      <point x="38.0" y="357.0"/>
      <point x="41.0" y="360.0"/>
      <point x="48.0" y="360.0" type="curve" smooth="yes"/>
      <point x="278.0" y="360.0" type="line" smooth="yes"/>
      <point x="285.0" y="360.0"/>
      <point x="288.0" y="357.0"/>
      <point x="286.0" y="350.0" type="curve" smooth="yes"/>
      <point x="207.0" y="10.0" type="line" smooth="yes"/>
      <point x="205.0" y="3.0"/>
      <point x="202.0" y="0.0"/>
    </contour>
  </outline>
</glyph>
<glyph name="slash" format="2">
  <advance height="2048" width="520"/>
  <unicode hex="002F"/>
  <outline>
    <contour>
      <point x="700.0" y="1395.0" type="curve" smooth="yes"/>
      <point x="48.0" y="-95.0" type="line" smooth="yes"/>
      <point x="45.0" y="-99.0"/>
      <point x="43.0" y="-100.0"/>
      <point x="39.0" y="-100.0" type="curve" smooth="yes"/>
      <point x="-131.0" y="-100.0" type="line" smooth="yes"/>
      <point x="-135.0" y="-100.0"/>
      <point x="-135.0" y="-99.0"/>
      <point x="-132.0" y="-95.0" type="curve" smooth="yes"/>
      <point x="520.0" y="1395.0" type="line" smooth="yes"/>
      <point x="523.0" y="1399.0"/>
      <point x="525.0" y="1400.0"/>
      <point x="528.0" y="1400.0" type="curve" smooth="yes"/>
      <point x="698.0" y="1400.0" type="line" smooth="yes"/>
      <point x="702.0" y="1400.0"/>
      <point x="703.0" y="1399.0"/>
    </contour>
  </outline>
</glyph>
<glyph name="zero" format="2">
  <advance height="1920" width="615"/>
  <unicode hex="0030"/>
  <outline>
    <contour>
      <point x="-39.0" y="244.0" type="curve" smooth="yes"/>
      <point x="172.0" y="1155.0" type="line" smooth="yes"/>
      <point x="210.0" y="1318.0"/>
      <point x="314.0" y="1417.0"/>
      <point x="515.0" y="1417.0" type="curve" smooth="yes"/>
      <point x="716.0" y="1417.0"/>
      <point x="775.0" y="1318.0"/>
      <point x="737.0" y="1155.0" type="curve" smooth="yes"/>
      <point x="526.0" y="244.0" type="line" smooth="yes"/>
      <point x="488.0" y="81.0"/>
      <point x="385.0" y="-18.0"/>
      <point x="184.0" y="-18.0" type="curve" smooth="yes"/>
      <point x="-17.0" y="-18.0"/>
      <point x="-77.0" y="81.0"/>
    </contour>
    <contour>
      <point x="209.0" y="254.0" type="line" smooth="yes"/>
      <point x="192.0" y="180.0"/>
      <point x="191.0" y="152.0"/>
      <point x="223.0" y="152.0" type="curve" smooth="yes"/>
      <point x="255.0" y="152.0"/>
      <point x="267.0" y="180.0"/>
      <point x="284.0" y="254.0" type="curve" smooth="yes"/>
      <point x="489.0" y="1145.0" type="line" smooth="yes"/>
      <point x="506.0" y="1219.0"/>
      <point x="508.0" y="1247.0"/>
      <point x="476.0" y="1247.0" type="curve" smooth="yes"/>
      <point x="444.0" y="1247.0"/>
      <point x="431.0" y="1219.0"/>
      <point x="414.0" y="1145.0" type="curve" smooth="yes"/>
    </contour>
  </outline>
</glyph>
<glyph name="one" format="2">
  <advance height="1920" width="320"/>
  <unicode hex="0031"/>
  <outline>
    <contour>
      <point x="237.0" y="1362.0" type="curve" smooth="yes"/>
      <point x="308.0" y="1363.0"/>
      <point x="339.0" y="1384.0"/>
      <point x="352.0" y="1420.0" type="curve" smooth="yes"/>
      <point x="354.0" y="1424.0"/>
      <point x="356.0" y="1425.0"/>
      <point x="359.0" y="1425.0" type="curve" smooth="yes"/>
      <point x="487.0" y="1425.0" type="line" smooth="yes"/>
      <point x="491.0" y="1425.0"/>
      <point x="491.0" y="1424.0"/>
      <point x="490.0" y="1420.0" type="curve" smooth="yes"/>
      <point x="163.0" y="5.0" type="line" smooth="yes"/>
      <point x="162.0" y="1.0"/>
      <point x="162.0" y="0.0"/>
      <point x="158.0" y="0.0" type="curve" smooth="yes"/>
      <point x="-78.0" y="0.0" type="line" smooth="yes"/>
      <point x="-82.0" y="0.0"/>
      <point x="-82.0" y="1.0"/>
      <point x="-81.0" y="5.0" type="curve" smooth="yes"/>
      <point x="231.0" y="1357.0" type="line" smooth="yes"/>
      <point x="232.0" y="1360.0"/>
      <point x="233.0" y="1362.0"/>
    </contour>
  </outline>
</glyph>
<glyph name="two" format="2">
  <advance height="1920" width="580"/>
  <unicode hex="0032"/>
  <outline>
    <contour>
      <point x="-98.0" y="30.0" type="line" smooth="yes"/>
      <point x="11.0" y="502.0"/>
      <point x="323.0" y="588.0"/>
      <point x="404.0" y="937.0" type="curve" smooth="yes"/>
      <point x="456.0" y="1159.0" type="line" smooth="yes"/>
      <point x="470.0" y="1219.0"/>
      <point x="472.0" y="1243.0"/>
      <point x="454.0" y="1243.0" type="curve" smooth="yes"/>
      <point x="437.0" y="1243.0"/>
      <point x="429.0" y="1217.0"/>
      <point x="416.0" y="1161.0" type="curve" smooth="yes"/>
      <point x="337.0" y="817.0" type="line" smooth="yes"/>
      <point x="336.0" y="813.0"/>
      <point x="333.0" y="812.0"/>
      <point x="329.0" y="812.0" type="curve" smooth="yes"/>
      <point x="99.0" y="812.0" type="line" smooth="yes"/>
      <point x="95.0" y="812.0"/>
      <point x="96.0" y="813.0"/>
      <point x="97.0" y="817.0" type="curve" smooth="yes"/>
      <point x="169.0" y="1131.0" type="line" smooth="yes"/>
      <point x="208.0" y="1298.0"/>
      <point x="309.0" y="1417.0"/>
      <point x="507.0" y="1417.0" type="curve" smooth="yes"/>
      <point x="671.0" y="1417.0"/>
      <point x="731.0" y="1311.0"/>
      <point x="694.0" y="1151.0" type="curve" smooth="yes"/>
      <point x="659.0" y="999.0" type="line" smooth="yes"/>
      <point x="565.0" y="591.0"/>
      <point x="236.0" y="416.0"/>
      <point x="184.0" y="190.0" type="curve" smooth="yes"/>
      <point x="183.0" y="185.0" type="line"/>
      <point x="483.0" y="185.0" type="line" smooth="yes"/>
      <point x="487.0" y="185.0"/>
      <point x="488.0" y="184.0"/>
      <point x="487.0" y="180.0" type="curve" smooth="yes"/>
      <point x="446.0" y="5.0" type="line" smooth="yes"/>
      <point x="445.0" y="1.0"/>
      <point x="444.0" y="0.0"/>
      <point x="440.0" y="0.0" type="curve" smooth="yes"/>
      <point x="-100.0" y="0.0" type="line" smooth="yes"/>
      <point x="-104.0" y="0.0"/>
      <point x="-105.0" y="1.0"/>
      <point x="-104.0" y="5.0" type="curve" smooth="yes"/>
    </contour>
  </outline>
</glyph>
<glyph name="three" format="2">
  <advance height="1920" width="576"/>
  <unicode hex="0033"/>
  <outline>
    <contour>
      <point x="12.0" y="457.0" type="curve" smooth="yes"/>
      <point x="247.0" y="457.0" type="line" smooth="yes"/>
      <point x="251.0" y="457.0"/>
      <point x="251.0" y="455.0"/>
      <point x="250.0" y="451.0" type="curve" smooth="yes"/>
      <point x="207.0" y="264.0" type="line" smooth="yes"/>
      <point x="193.0" y="204.0"/>
      <point x="182.0" y="158.0"/>
      <point x="206.0" y="158.0" type="curve" smooth="yes"/>
      <point x="230.0" y="158.0"/>
      <point x="239.0" y="196.0"/>
      <point x="254.0" y="261.0" type="curve" smooth="yes"/>
      <point x="320.0" y="544.0" type="line" smooth="yes"/>
      <point x="330.0" y="589.0"/>
      <point x="332.0" y="620.0"/>
      <point x="284.0" y="620.0" type="curve" smooth="yes"/>
      <point x="244.0" y="620.0" type="line" smooth="yes"/>
      <point x="240.0" y="620.0"/>
      <point x="239.0" y="621.0"/>
      <point x="240.0" y="625.0" type="curve" smooth="yes"/>
      <point x="278.0" y="790.0" type="line" smooth="yes"/>
      <point x="279.0" y="794.0"/>
      <point x="281.0" y="795.0"/>
      <point x="285.0" y="795.0" type="curve" smooth="yes"/>
      <point x="315.0" y="795.0" type="line" smooth="yes"/>
      <point x="358.0" y="795.0"/>
      <point x="375.0" y="816.0"/>
      <point x="384.0" y="856.0" type="curve" smooth="yes"/>
      <point x="452.0" y="1154.0" type="line" smooth="yes"/>
      <point x="466.0" y="1214.0"/>
      <point x="470.0" y="1241.0"/>
      <point x="448.0" y="1241.0" type="curve" smooth="yes"/>
      <point x="427.0" y="1241.0"/>
      <point x="417.0" y="1206.0"/>
      <point x="405.0" y="1155.0" type="curve" smooth="yes"/>
      <point x="359.0" y="957.0" type="line" smooth="yes"/>
      <point x="358.0" y="953.0"/>
      <point x="358.0" y="952.0"/>
      <point x="354.0" y="952.0" type="curve" smooth="yes"/>
      <point x="124.0" y="952.0" type="line" smooth="yes"/>
      <point x="120.0" y="952.0"/>
      <point x="118.0" y="953.0"/>
      <point x="119.0" y="957.0" type="curve" smooth="yes"/>
      <point x="172.0" y="1185.0" type="line" smooth="yes"/>
      <point x="199.0" y="1302.0"/>
      <point x="289.0" y="1417.0"/>
      <point x="493.0" y="1417.0" type="curve" smooth="yes"/>
      <point x="697.0" y="1417.0"/>
      <point x="734.0" y="1297.0"/>
      <point x="707.0" y="1182.0" type="curve" smooth="yes"/>
      <point x="646.0" y="919.0" type="line" smooth="yes"/>
      <point x="608.0" y="754.0"/>
      <point x="501.0" y="700.0"/>
      <point x="323.0" y="700.0" type="curve"/>
      <point x="338.0" y="725.0" type="line"/>
      <point x="516.0" y="725.0"/>
      <point x="594.0" y="676.0"/>
      <point x="554.0" y="501.0" type="curve" smooth="yes"/>
      <point x="499.0" y="264.0" type="line" smooth="yes"/>
      <point x="460.0" y="94.0"/>
      <point x="365.0" y="-18.0"/>
      <point x="137.0" y="-18.0" type="curve" smooth="yes"/>
      <point x="-59.0" y="-18.0"/>
      <point x="-79.0" y="85.0"/>
      <point x="-45.0" y="234.0" type="curve" smooth="yes"/>
      <point x="5.0" y="451.0" type="line" smooth="yes"/>
      <point x="6.0" y="455.0"/>
      <point x="8.0" y="457.0"/>
    </contour>
  </outline>
</glyph>
<glyph name="four" format="2">
  <advance height="1920" width="575"/>
  <unicode hex="0034"/>
  <outline>
    <contour>
      <point x="569.0" y="495.0" type="curve" smooth="yes"/>
      <point x="531.0" y="330.0" type="line" smooth="yes"/>
      <point x="530.0" y="326.0"/>
      <point x="529.0" y="325.0"/>
      <point x="525.0" y="325.0" type="curve" smooth="yes"/>
      <point x="435.0" y="325.0" type="line"/>
      <point x="361.0" y="5.0" type="line" smooth="yes"/>
      <point x="360.0" y="1.0"/>
      <point x="359.0" y="0.0"/>
      <point x="355.0" y="0.0" type="curve" smooth="yes"/>
      <point x="120.0" y="0.0" type="line" smooth="yes"/>
      <point x="116.0" y="0.0"/>
      <point x="115.0" y="1.0"/>
      <point x="116.0" y="5.0" type="curve" smooth="yes"/>
      <point x="190.0" y="325.0" type="line"/>
      <point x="-30.0" y="325.0" type="line" smooth="yes"/>
      <point x="-34.0" y="325.0"/>
      <point x="-35.0" y="326.0"/>
      <point x="-34.0" y="330.0" type="curve" smooth="yes"/>
      <point x="16.0" y="545.0" type="line" smooth="yes"/>
      <point x="17.0" y="549.0"/>
      <point x="21.0" y="561.0"/>
      <point x="24.0" y="565.0" type="curve" smooth="yes"/>
      <point x="424.0" y="1395.0" type="line" smooth="yes"/>
      <point x="427.0" y="1398.0"/>
      <point x="429.0" y="1400.0"/>
      <point x="433.0" y="1400.0" type="curve" smooth="yes"/>
      <point x="678.0" y="1400.0" type="line" smooth="yes"/>
      <point x="682.0" y="1400.0"/>
      <point x="683.0" y="1399.0"/>
      <point x="682.0" y="1395.0" type="curve" smooth="yes"/>
      <point x="475.0" y="500.0" type="line"/>
      <point x="565.0" y="500.0" type="line" smooth="yes"/>
      <point x="569.0" y="500.0"/>
      <point x="570.0" y="499.0"/>
    </contour>
    <contour>
      <point x="235.0" y="500.0" type="line"/>
      <point x="351.0" y="1000.0" type="line"/>
      <point x="137.0" y="500.0" type="line"/>
    </contour>
  </outline>
</glyph>
<glyph name="five" format="2">
  <advance height="1920" width="600"/>
  <unicode hex="0035"/>
  <outline>
    <contour>
      <point x="-1.0" y="364.0" type="curve" smooth="yes"/>
      <point x="224.0" y="364.0" type="line" smooth="yes"/>
      <point x="227.0" y="364.0"/>
      <point x="229.0" y="362.0"/>
      <point x="228.0" y="359.0" type="curve" smooth="yes"/>
      <point x="187.0" y="180.0"/>
      <point x="189.0" y="152.0"/>
      <point x="213.0" y="152.0" type="curve" smooth="yes"/>
      <point x="242.0" y="152.0"/>
      <point x="254.0" y="193.0"/>
      <point x="297.0" y="379.0" type="curve" smooth="yes"/>
      <point x="356.0" y="631.0" type="line" smooth="yes"/>
      <point x="377.0" y="721.0"/>
      <point x="382.0" y="753.0"/>
      <point x="360.0" y="753.0" type="curve" smooth="yes"/>
      <point x="334.0" y="753.0"/>
      <point x="324.0" y="713.0"/>
      <point x="287.0" y="558.0" type="curve" smooth="yes"/>
      <point x="286.0" y="553.0"/>
      <point x="281.0" y="553.0"/>
      <point x="278.0" y="553.0" type="curve" smooth="yes"/>
      <point x="53.0" y="553.0" type="line" smooth="yes"/>
      <point x="49.0" y="553.0"/>
      <point x="47.0" y="553.0"/>
      <point x="49.0" y="557.0" type="curve" smooth="yes"/>
      <point x="297.0" y="1395.0" type="line" smooth="yes"/>
      <point x="299.0" y="1398.0"/>
      <point x="299.0" y="1400.0"/>
      <point x="303.0" y="1400.0" type="curve" smooth="yes"/>
      <point x="743.0" y="1400.0" type="line" smooth="yes"/>
      <point x="747.0" y="1400.0"/>
      <point x="749.0" y="1399.0"/>
      <point x="748.0" y="1395.0" type="curve" smooth="yes"/>
      <point x="731.0" y="1322.0" type="line" smooth="yes"/>
      <point x="717.0" y="1262.0"/>
      <point x="683.0" y="1225.0"/>
      <point x="573.0" y="1225.0" type="curve" smooth="yes"/>
      <point x="446.0" y="1225.0" type="line"/>
      <point x="280.0" y="694.0" type="line"/>
      <point x="269.0" y="694.0" type="line"/>
      <point x="316.0" y="866.0"/>
      <point x="384.0" y="929.0"/>
      <point x="494.0" y="929.0" type="curve" smooth="yes"/>
      <point x="614.0" y="929.0"/>
      <point x="654.0" y="865.0"/>
      <point x="605.0" y="651.0" type="curve" smooth="yes"/>
      <point x="542.0" y="379.0" type="line" smooth="yes"/>
      <point x="474.0" y="85.0"/>
      <point x="359.0" y="-18.0"/>
      <point x="154.0" y="-18.0" type="curve" smooth="yes"/>
      <point x="-13.0" y="-18.0"/>
      <point x="-69.0" y="55.0"/>
      <point x="-7.0" y="359.0" type="curve" smooth="yes"/>
      <point x="-6.0" y="363.0"/>
      <point x="-5.0" y="364.0"/>
    </contour>
  </outline>
</glyph>
<glyph name="six" format="2">
  <advance height="1920" width="591"/>
  <unicode hex="0036"/>
  <outline>
    <contour>
      <point x="331.0" y="669.0" type="curve" smooth="yes"/>
      <point x="306.0" y="669.0"/>
      <point x="296.0" y="642.0"/>
      <point x="272.0" y="540.0" type="curve" smooth="yes"/>
      <point x="265.0" y="510.0" type="line"/>
      <point x="229.0" y="550.0" type="line"/>
      <point x="259.0" y="682.0"/>
      <point x="332.0" y="794.0"/>
      <point x="450.0" y="794.0" type="curve" smooth="yes"/>
      <point x="594.0" y="794.0"/>
      <point x="611.0" y="694.0"/>
      <point x="570.0" y="517.0" type="curve" smooth="yes"/>
      <point x="512.0" y="266.0" type="line" smooth="yes"/>
      <point x="466.0" y="67.0"/>
      <point x="373.0" y="-16.0"/>
      <point x="177.0" y="-16.0" type="curve" smooth="yes"/>
      <point x="-41.0" y="-16.0"/>
      <point x="-75.0" y="86.0"/>
      <point x="-20.0" y="326.0" type="curve" smooth="yes"/>
      <point x="164.0" y="1121.0" type="line" smooth="yes"/>
      <point x="208.0" y="1311.0"/>
      <point x="305.0" y="1417.0"/>
      <point x="499.0" y="1417.0" type="curve" smooth="yes"/>
      <point x="697.0" y="1417.0"/>
      <point x="738.0" y="1317.0"/>
      <point x="698.0" y="1145.0" type="curve" smooth="yes"/>
      <point x="643.0" y="905.0" type="line" smooth="yes"/>
      <point x="642.0" y="901.0"/>
      <point x="641.0" y="900.0"/>
      <point x="637.0" y="900.0" type="curve" smooth="yes"/>
      <point x="412.0" y="900.0" type="line" smooth="yes"/>
      <point x="408.0" y="900.0"/>
      <point x="407.0" y="901.0"/>
      <point x="408.0" y="905.0" type="curve" smooth="yes"/>
      <point x="459.0" y="1125.0" type="line" smooth="yes"/>
      <point x="474.0" y="1191.0"/>
      <point x="486.0" y="1241.0"/>
      <point x="460.0" y="1241.0" type="curve" smooth="yes"/>
      <point x="435.0" y="1241.0"/>
      <point x="422.0" y="1193.0"/>
      <point x="405.0" y="1118.0" type="curve" smooth="yes"/>
      <point x="215.0" y="293.0" type="line" smooth="yes"/>
      <point x="191.0" y="188.0"/>
      <point x="190.0" y="160.0"/>
      <point x="214.0" y="160.0" type="curve" smooth="yes"/>
      <point x="244.0" y="160.0"/>
      <point x="251.0" y="190.0"/>
      <point x="274.0" y="290.0" type="curve" smooth="yes"/>
      <point x="329.0" y="527.0" type="line" smooth="yes"/>
      <point x="353.0" y="629.0"/>
      <point x="356.0" y="669.0"/>
    </contour>
  </outline>
</glyph>
<glyph name="seven" format="2">
  <advance height="1920" width="521"/>
  <unicode hex="0037"/>
  <outline>
    <contour>
      <point x="732.0" y="1395.0" type="curve" smooth="yes"/>
      <point x="221.0" y="5.0" type="line" smooth="yes"/>
      <point x="219.0" y="0.0"/>
      <point x="217.0" y="0.0"/>
      <point x="212.0" y="0.0" type="curve" smooth="yes"/>
      <point x="-42.0" y="0.0" type="line" smooth="yes"/>
      <point x="-47.0" y="0.0"/>
      <point x="-47.0" y="1.0"/>
      <point x="-45.0" y="5.0" type="curve" smooth="yes"/>
      <point x="469.0" y="1175.0" type="line"/>
      <point x="193.0" y="1175.0" type="line" smooth="yes"/>
      <point x="189.0" y="1175.0"/>
      <point x="189.0" y="1176.0"/>
      <point x="190.0" y="1180.0" type="curve" smooth="yes"/>
      <point x="240.0" y="1395.0" type="line" smooth="yes"/>
      <point x="241.0" y="1399.0"/>
      <point x="241.0" y="1400.0"/>
      <point x="245.0" y="1400.0" type="curve" smooth="yes"/>
      <point x="729.0" y="1400.0" type="line" smooth="yes"/>
      <point x="733.0" y="1400.0"/>
      <point x="733.0" y="1399.0"/>
    </contour>
  </outline>
</glyph>
<glyph name="eight" format="2">
  <advance height="1920" width="630"/>
  <unicode hex="0038"/>
  <outline>
    <contour>
      <point x="232.0" y="155.0" type="curve" smooth="yes"/>
      <point x="262.0" y="155.0"/>
      <point x="275.0" y="178.0"/>
      <point x="284.0" y="216.0" type="curve" smooth="yes"/>
      <point x="365.0" y="567.0" type="line" smooth="yes"/>
      <point x="374.0" y="606.0"/>
      <point x="371.0" y="629.0"/>
      <point x="341.0" y="629.0" type="curve" smooth="yes"/>
      <point x="311.0" y="629.0"/>
      <point x="298.0" y="606.0"/>
      <point x="289.0" y="567.0" type="curve" smooth="yes"/>
      <point x="208.0" y="216.0" type="line" smooth="yes"/>
      <point x="199.0" y="178.0"/>
      <point x="202.0" y="155.0"/>
    </contour>
    <contour>
      <point x="382.0" y="804.0" type="curve" smooth="yes"/>
      <point x="407.0" y="804.0"/>
      <point x="418.0" y="823.0"/>
      <point x="424.0" y="851.0" type="curve" smooth="yes"/>
      <point x="506.0" y="1203.0" type="line" smooth="yes"/>
      <point x="511.0" y="1226.0"/>
      <point x="507.0" y="1244.0"/>
      <point x="483.0" y="1244.0" type="curve" smooth="yes"/>
      <point x="459.0" y="1244.0"/>
      <point x="445.0" y="1226.0"/>
      <point x="440.0" y="1203.0" type="curve" smooth="yes"/>
      <point x="358.0" y="851.0" type="line" smooth="yes"/>
      <point x="352.0" y="823.0"/>
      <point x="357.0" y="804.0"/>
    </contour>
    <contour>
      <point x="379.0" y="729.0" type="line"/>
      <point x="594.0" y="729.0"/>
      <point x="626.0" y="641.0"/>
      <point x="592.0" y="495.0" type="curve" smooth="yes"/>
      <point x="530.0" y="224.0" type="line" smooth="yes"/>
      <point x="494.0" y="70.0"/>
      <point x="421.0" y="-18.0"/>
      <point x="192.0" y="-18.0" type="curve" smooth="yes"/>
      <point x="-12.0" y="-18.0"/>
      <point x="-72.0" y="70.0"/>
      <point x="-36.0" y="224.0" type="curve" smooth="yes"/>
      <point x="26.0" y="495.0" type="line" smooth="yes"/>
      <point x="60.0" y="641.0"/>
      <point x="158.0" y="729.0"/>
      <point x="348.0" y="729.0" type="curve"/>
      <point x="345.0" y="709.0" type="line"/>
      <point x="163.0" y="712.0"/>
      <point x="100.0" y="788.0"/>
      <point x="137.0" y="948.0" type="curve" smooth="yes"/>
      <point x="188.0" y="1171.0" type="line" smooth="yes"/>
      <point x="225.0" y="1332.0"/>
      <point x="339.0" y="1417.0"/>
      <point x="523.0" y="1417.0" type="curve" smooth="yes"/>
      <point x="732.0" y="1417.0"/>
      <point x="781.0" y="1332.0"/>
      <point x="744.0" y="1171.0" type="curve" smooth="yes"/>
      <point x="693.0" y="948.0" type="line" smooth="yes"/>
      <point x="656.0" y="788.0"/>
      <point x="583.0" y="712.0"/>
      <point x="374.0" y="709.0" type="curve"/>
    </contour>
  </outline>
</glyph>
<glyph name="less" format="2">
  <advance height="1920" width="505"/>
  <unicode hex="003C"/>
  <outline>
    <contour>
      <point x="365.0" y="343.0" type="curve" smooth="yes"/>
      <point x="21.0" y="522.0" type="line" smooth="yes"/>
      <point x="17.0" y="524.0"/>
      <point x="17.0" y="526.0"/>
      <point x="18.0" y="530.0" type="curve" smooth="yes"/>
      <point x="51.0" y="670.0" type="line" smooth="yes"/>
      <point x="52.0" y="674.0"/>
      <point x="53.0" y="676.0"/>
      <point x="57.0" y="678.0" type="curve" smooth="yes"/>
      <point x="484.0" y="857.0" type="line" smooth="yes"/>
      <point x="488.0" y="859.0"/>
      <point x="488.0" y="859.0"/>
      <point x="487.0" y="855.0" type="curve" smooth="yes"/>
      <point x="446.0" y="675.0" type="line" smooth="yes"/>
      <point x="445.0" y="671.0"/>
      <point x="444.0" y="669.0"/>
      <point x="440.0" y="667.0" type="curve" smooth="yes"/>
      <point x="203.0" y="600.0" type="line"/>
      <point x="409.0" y="533.0" type="line" smooth="yes"/>
      <point x="413.0" y="531.0"/>
      <point x="412.0" y="529.0"/>
      <point x="411.0" y="525.0" type="curve" smooth="yes"/>
      <point x="370.0" y="345.0" type="line" smooth="yes"/>
      <point x="369.0" y="341.0"/>
      <point x="369.0" y="341.0"/>
    </contour>
  </outline>
</glyph>
<glyph name="equal" format="2">
  <advance height="1920" width="590"/>
  <unicode hex="003D"/>
  <outline>
    <contour>
      <point x="23.0" y="296.0" type="curve" smooth="yes"/>
      <point x="62.0" y="464.0" type="line" smooth="yes"/>
      <point x="63.0" y="468.0"/>
      <point x="64.0" y="469.0"/>
      <point x="68.0" y="469.0" type="curve" smooth="yes"/>
      <point x="498.0" y="469.0" type="line" smooth="yes"/>
      <point x="502.0" y="469.0"/>
      <point x="503.0" y="468.0"/>
      <point x="502.0" y="464.0" type="curve" smooth="yes"/>
      <point x="463.0" y="296.0" type="line" smooth="yes"/>
      <point x="462.0" y="292.0"/>
      <point x="461.0" y="291.0"/>
      <point x="457.0" y="291.0" type="curve" smooth="yes"/>
      <point x="27.0" y="291.0" type="line" smooth="yes"/>
      <point x="23.0" y="291.0"/>
      <point x="22.0" y="292.0"/>
    </contour>
    <contour>
      <point x="78.0" y="531.0" type="curve" smooth="yes"/>
      <point x="116.0" y="699.0" type="line" smooth="yes"/>
      <point x="117.0" y="703.0"/>
      <point x="119.0" y="704.0"/>
      <point x="123.0" y="704.0" type="curve" smooth="yes"/>
      <point x="553.0" y="704.0" type="line" smooth="yes"/>
      <point x="557.0" y="704.0"/>
      <point x="557.0" y="703.0"/>
      <point x="556.0" y="699.0" type="curve" smooth="yes"/>
      <point x="518.0" y="531.0" type="line" smooth="yes"/>
      <point x="517.0" y="527.0"/>
      <point x="515.0" y="526.0"/>
      <point x="511.0" y="526.0" type="curve" smooth="yes"/>
      <point x="81.0" y="526.0" type="line" smooth="yes"/>
      <point x="77.0" y="526.0"/>
      <point x="77.0" y="527.0"/>
    </contour>
  </outline>
</glyph>
<glyph name="greater" format="2">
  <advance height="1920" width="505"/>
  <unicode hex="003E"/>
  <outline>
    <contour>
      <point x="178.0" y="857.0" type="curve" smooth="yes"/>
      <point x="523.0" y="678.0" type="line" smooth="yes"/>
      <point x="527.0" y="676.0"/>
      <point x="526.0" y="674.0"/>
      <point x="525.0" y="670.0" type="curve" smooth="yes"/>
      <point x="492.0" y="530.0" type="line" smooth="yes"/>
      <point x="491.0" y="526.0"/>
      <point x="491.0" y="524.0"/>
      <point x="487.0" y="522.0" type="curve" smooth="yes"/>
      <point x="59.0" y="343.0" type="line" smooth="yes"/>
      <point x="55.0" y="341.0"/>
      <point x="55.0" y="341.0"/>
      <point x="56.0" y="345.0" type="curve" smooth="yes"/>
      <point x="97.0" y="525.0" type="line" smooth="yes"/>
      <point x="98.0" y="529.0"/>
      <point x="99.0" y="531.0"/>
      <point x="103.0" y="533.0" type="curve" smooth="yes"/>
      <point x="339.0" y="600.0" type="line"/>
      <point x="134.0" y="667.0" type="line" smooth="yes"/>
      <point x="130.0" y="669.0"/>
      <point x="131.0" y="671.0"/>
      <point x="132.0" y="675.0" type="curve" smooth="yes"/>
      <point x="173.0" y="855.0" type="line" smooth="yes"/>
      <point x="174.0" y="859.0"/>
      <point x="174.0" y="859.0"/>
    </contour>
  </outline>
</glyph>
<glyph name="question" format="2">
  <advance height="1920" width="600"/>
  <unicode hex="003F"/>
  <outline>
    <contour>
      <point x="288.0" y="0.0" type="curve" smooth="yes"/>
      <point x="58.0" y="0.0" type="line" smooth="yes"/>
      <point x="51.0" y="0.0"/>
      <point x="48.0" y="3.0"/>
      <point x="50.0" y="10.0" type="curve" smooth="yes"/>
      <point x="129.0" y="350.0" type="line" smooth="yes"/>
      <point x="131.0" y="357.0"/>
      <point x="134.0" y="360.0"/>
      <point x="141.0" y="360.0" type="curve" smooth="yes"/>
      <point x="371.0" y="360.0" type="line" smooth="yes"/>
      <point x="378.0" y="360.0"/>
      <point x="381.0" y="357.0"/>
      <point x="379.0" y="350.0" type="curve" smooth="yes"/>
      <point x="300.0" y="10.0" type="line" smooth="yes"/>
      <point x="298.0" y="3.0"/>
      <point x="295.0" y="0.0"/>
    </contour>
    <contour>
      <point x="327.0" y="430.0" type="curve" smooth="yes"/>
      <point x="182.0" y="430.0" type="line" smooth="yes"/>
      <point x="178.0" y="430.0"/>
      <point x="177.0" y="432.0"/>
      <point x="177.0" y="435.0" type="curve" smooth="yes"/>
      <point x="213.0" y="681.0"/>
      <point x="344.0" y="690.0"/>
      <point x="387.0" y="877.0" type="curve" smooth="yes"/>
      <point x="457.0" y="1178.0" type="line" smooth="yes"/>
      <point x="479.0" y="1273.0"/>
      <point x="476.0" y="1291.0"/>
      <point x="458.0" y="1291.0" type="curve" smooth="yes"/>
      <point x="438.0" y="1291.0"/>
      <point x="427.0" y="1266.0"/>
      <point x="405.0" y="1170.0" type="curve" smooth="yes"/>
      <point x="356.0" y="957.0" type="line" smooth="yes"/>
      <point x="355.0" y="953.0"/>
      <point x="355.0" y="952.0"/>
      <point x="351.0" y="952.0" type="curve" smooth="yes"/>
      <point x="121.0" y="952.0" type="line" smooth="yes"/>
      <point x="117.0" y="952.0"/>
      <point x="115.0" y="953.0"/>
      <point x="116.0" y="957.0" type="curve" smooth="yes"/>
      <point x="173.0" y="1205.0" type="line" smooth="yes"/>
      <point x="206.0" y="1347.0"/>
      <point x="314.0" y="1467.0"/>
      <point x="512.0" y="1467.0" type="curve" smooth="yes"/>
      <point x="710.0" y="1467.0"/>
      <point x="779.0" y="1361.0"/>
      <point x="747.0" y="1221.0" type="curve" smooth="yes"/>
      <point x="681.0" y="934.0" type="line" smooth="yes"/>
      <point x="616.0" y="652.0"/>
      <point x="431.0" y="662.0"/>
      <point x="334.0" y="434.0" type="curve" smooth="yes"/>
      <point x="333.0" y="432.0"/>
      <point x="330.0" y="430.0"/>
    </contour>
  </outline>
</glyph>
<glyph name="A" format="2">
  <advance height="960" width="537"/>
  <unicode hex="0041"/>
  <anchor x="131.0" y="0.0" name="bottom"/>
  <anchor x="304.0" y="0.0" name="ogonek"/>
  <anchor x="489.0" y="1400.0" name="top"/>
  <outline>
    <contour>
      <point x="156.736328125" y="520.0" type="line"/>
      <point x="358.0859375" y="520.0" type="line"/>
      <point x="329.0859375" y="395.0" type="line"/>
      <point x="127.736328125" y="395.0" type="line"/>
    </contour>
    <contour>
      <point x="405.391601562" y="1089.0" type="line"/>
      <point x="83.166015625" y="5.0" type="line" smooth="yes"/>
      <point x="82.21875" y="3.0"/>
      <point x="80.345703125" y="0.0"/>
      <point x="76.736328125" y="0.0" type="curve" smooth="yes"/>
      <point x="-113.263671875" y="0.0" type="line" smooth="yes"/>
      <point x="-115.263671875" y="0.0"/>
      <point x="-119.263671875" y="0.0"/>
      <point x="-116.263671875" y="5.0" type="curve" smooth="yes"/>
      <point x="354.736328125" y="1395.0" type="line" smooth="yes"/>
      <point x="357.736328125" y="1399.0"/>
      <point x="359.736328125" y="1400.0"/>
      <point x="361.736328125" y="1400.0" type="curve" smooth="yes"/>
      <point x="638.0859375" y="1400.0" type="line" smooth="yes"/>
      <point x="641.0859375" y="1400.0"/>
      <point x="644.0859375" y="1399.0"/>
      <point x="644.0859375" y="1395.0" type="curve" smooth="yes"/>
      <point x="457.0859375" y="5.0" type="line" smooth="yes"/>
      <point x="457.0859375" y="4.0"/>
      <point x="458.0859375" y="0.0"/>
      <point x="453.0859375" y="0.0" type="curve" smooth="yes"/>
      <point x="203.0859375" y="0.0" type="line" smooth="yes"/>
      <point x="201.28125" y="0.0"/>
      <point x="198.573242188" y="0.0"/>
      <point x="197.783203125" y="5.0" type="curve" smooth="yes"/>
    </contour>
  </outline>
</glyph>
<glyph name="B" format="2">
  <advance height="960" width="581"/>
  <unicode hex="0042"/>
  <anchor x="158.0" y="0.0" name="bottom"/>
  <anchor x="465.0" y="1400.0" name="top"/>
  <outline>
    <contour>
      <point x="346.302734375" y="770.0" type="line"/>
      <point x="368.865234375" y="770.0" type="line" smooth="yes"/>
      <point x="389.622070312" y="770.0"/>
      <point x="404.633789062" y="794.0"/>
      <point x="421.633789062" y="869.0" type="curve" smooth="yes"/>
      <point x="480.666015625" y="1126.0" type="line" smooth="yes"/>
      <point x="497.696289062" y="1201.0"/>
      <point x="499.139648438" y="1225.0"/>
      <point x="473.869140625" y="1225.0" type="curve" smooth="yes"/>
      <point x="451.302734375" y="1225.0" type="line"/>
    </contour>
    <contour>
      <point x="385.0" y="725.0" type="line"/>
      <point x="512.633789062" y="725.0"/>
      <point x="625.633789062" y="656.0"/>
      <point x="580.297851562" y="461.0" type="curve" smooth="yes"/>
      <point x="542.297851562" y="294.0" type="line" smooth="yes"/>
      <point x="494.297851562" y="84.0"/>
      <point x="385.297851562" y="0.0"/>
      <point x="227.297851562" y="0.0" type="curve" smooth="yes"/>
      <point x="-71.697265625" y="0.0" type="line" smooth="yes"/>
      <point x="-75.697265625" y="0.0"/>
      <point x="-76.697265625" y="1.0"/>
      <point x="-75.697265625" y="5.0" type="curve" smooth="yes"/>
      <point x="245.302734375" y="1395.0" type="line" smooth="yes"/>
      <point x="246.302734375" y="1399.0"/>
      <point x="247.302734375" y="1400.0"/>
      <point x="251.302734375" y="1400.0" type="curve" smooth="yes"/>
      <point x="540.984375" y="1400.0" type="line" smooth="yes"/>
      <point x="698.633789062" y="1400.0"/>
      <point x="752.633789062" y="1307.0"/>
      <point x="707.633789062" y="1112.0" type="curve" smooth="yes"/>
      <point x="671.633789062" y="959.0" type="line" smooth="yes"/>
      <point x="626.633789062" y="764.0"/>
      <point x="497.633789062" y="700.0"/>
      <point x="370.899414062" y="700.0" type="curve"/>
    </contour>
    <contour>
      <point x="344.391601562" y="645.0" type="curve" smooth="yes"/>
      <point x="317.302734375" y="645.0" type="line"/>
      <point x="208.302734375" y="175.0" type="line"/>
      <point x="235.440429688" y="175.0" type="line" smooth="yes"/>
      <point x="260.709960938" y="175.0"/>
      <point x="271.297851562" y="203.0"/>
      <point x="288.297851562" y="278.0" type="curve" smooth="yes"/>
      <point x="349.297851562" y="541.0" type="line" smooth="yes"/>
      <point x="366.301757812" y="616.0"/>
      <point x="369.662109375" y="645.0"/>
    </contour>
  </outline>
</glyph>
<glyph name="C" format="2">
  <advance height="960" width="539"/>
  <unicode hex="0043"/>
  <anchor x="168.0" y="0.0" name="bottom"/>
  <anchor x="500.0" y="1400.0" name="top"/>
  <outline>
    <contour>
      <point x="570.393554688" y="603.0" type="curve" smooth="yes"/>
      <point x="552.393554688" y="526.0"/>
      <point x="516.393554688" y="367.0"/>
      <point x="497.393554688" y="294.0" type="curve" smooth="yes"/>
      <point x="447.393554688" y="98.0"/>
      <point x="332.393554688" y="-18.0"/>
      <point x="157.220703125" y="-18.0" type="curve" smooth="yes"/>
      <point x="-46.779296875" y="-18.0"/>
      <point x="-59.779296875" y="109.0"/>
      <point x="-4.779296875" y="349.0" type="curve" smooth="yes"/>
      <point x="155.220703125" y="1042.0" type="line" smooth="yes"/>
      <point x="208.220703125" y="1272.0"/>
      <point x="284.220703125" y="1418.0"/>
      <point x="497.52734375" y="1418.0" type="curve" smooth="yes"/>
      <point x="674.853515625" y="1418.0"/>
      <point x="713.853515625" y="1293.0"/>
      <point x="663.853515625" y="1074.0" type="curve" smooth="yes"/>
      <point x="651.853515625" y="1022.0"/>
      <point x="629.853515625" y="926.0"/>
      <point x="616.853515625" y="866.0" type="curve" smooth="yes"/>
      <point x="615.853515625" y="862.0"/>
      <point x="614.853515625" y="862.0"/>
      <point x="610.853515625" y="862.0" type="curve" smooth="yes"/>
      <point x="436.853515625" y="862.0" type="line" smooth="yes"/>
      <point x="432.853515625" y="862.0"/>
      <point x="430.861328125" y="862.0"/>
      <point x="431.853515625" y="866.0" type="curve" smooth="yes"/>
      <point x="491.923828125" y="1129.0"/>
      <point x="514.853515625" y="1218.0"/>
      <point x="478.584960938" y="1218.0" type="curve" smooth="yes"/>
      <point x="446.997070312" y="1218.0"/>
      <point x="432.176757812" y="1161.0"/>
      <point x="405.220703125" y="1046.0" type="curve" smooth="yes"/>
      <point x="236.220703125" y="314.0" type="line" smooth="yes"/>
      <point x="213.212890625" y="214.0"/>
      <point x="209.784179688" y="182.0"/>
      <point x="239.56640625" y="182.0" type="curve" smooth="yes"/>
      <point x="272.959960938" y="182.0"/>
      <point x="296.420898438" y="262.0"/>
      <point x="375.393554688" y="603.0" type="curve" smooth="yes"/>
      <point x="376.393554688" y="607.0"/>
      <point x="377.393554688" y="608.0"/>
      <point x="381.393554688" y="608.0" type="curve" smooth="yes"/>
      <point x="566.393554688" y="608.0" type="line" smooth="yes"/>
      <point x="570.393554688" y="608.0"/>
      <point x="571.393554688" y="607.0"/>
    </contour>
  </outline>
</glyph>
<glyph name="D" format="2">
  <advance height="960" width="599"/>
  <unicode hex="0044"/>
  <anchor x="142.0" y="0.0" name="bottom"/>
  <anchor x="485.0" y="1400.0" name="top"/>
  <outline>
    <contour>
      <point x="170.971679688" y="0.0" type="curve" smooth="yes"/>
      <point x="-71.697265625" y="0.0" type="line" smooth="yes"/>
      <point x="-75.697265625" y="0.0"/>
      <point x="-76.697265625" y="1.0"/>
      <point x="-75.697265625" y="5.0" type="curve" smooth="yes"/>
      <point x="245.302734375" y="1395.0" type="line" smooth="yes"/>
      <point x="246.302734375" y="1399.0"/>
      <point x="247.302734375" y="1400.0"/>
      <point x="251.302734375" y="1400.0" type="curve" smooth="yes"/>
      <point x="493.9921875" y="1400.0" type="line" smooth="yes"/>
      <point x="694.952148438" y="1400.0"/>
      <point x="773.952148438" y="1285.0"/>
      <point x="705.952148438" y="992.0" type="curve" smooth="yes"/>
      <point x="570.952148438" y="409.0" type="line" smooth="yes"/>
      <point x="502.952148438" y="116.0"/>
      <point x="391.952148438" y="0.0"/>
    </contour>
    <contour>
      <point x="229.059570312" y="175.0" type="line" smooth="yes"/>
      <point x="257.940429688" y="175.0"/>
      <point x="277.952148438" y="220.0"/>
      <point x="319.952148438" y="404.0" type="curve" smooth="yes"/>
      <point x="456.952148438" y="996.0" type="line" smooth="yes"/>
      <point x="498.967773438" y="1180.0"/>
      <point x="500.8828125" y="1225.0"/>
      <point x="472.002929688" y="1225.0" type="curve" smooth="yes"/>
      <point x="451.245117188" y="1225.0" type="line"/>
      <point x="208.302734375" y="175.0" type="line"/>
    </contour>
  </outline>
</glyph>
<glyph name="E" format="2">
  <advance height="960" width="427"/>
  <unicode hex="0045"/>
  <anchor x="172.0" y="0.0" name="bottom"/>
  <anchor x="230.0" y="0.0" name="ogonek"/>
  <anchor x="495.0" y="1400.0" name="top"/>
  <outline>
    <contour>
      <point x="346.302734375" y="770.0" type="line"/>
      <point x="431.302734375" y="770.0" type="line" smooth="yes"/>
      <point x="435.302734375" y="770.0"/>
      <point x="436.302734375" y="769.0"/>
      <point x="435.302734375" y="765.0" type="curve" smooth="yes"/>
      <point x="408.302734375" y="650.0" type="line" smooth="yes"/>
      <point x="407.302734375" y="646.0"/>
      <point x="406.302734375" y="645.0"/>
      <point x="402.302734375" y="645.0" type="curve" smooth="yes"/>
      <point x="317.302734375" y="645.0" type="line"/>
      <point x="208.302734375" y="175.0" type="line"/>
      <point x="363.302734375" y="175.0" type="line" smooth="yes"/>
      <point x="367.302734375" y="175.0"/>
      <point x="368.302734375" y="174.0"/>
      <point x="367.302734375" y="170.0" type="curve" smooth="yes"/>
      <point x="329.302734375" y="5.0" type="line" smooth="yes"/>
      <point x="328.302734375" y="1.0"/>
      <point x="327.302734375" y="0.0"/>
      <point x="323.302734375" y="0.0" type="curve" smooth="yes"/>
      <point x="-71.697265625" y="0.0" type="line" smooth="yes"/>
      <point x="-75.697265625" y="0.0"/>
      <point x="-76.697265625" y="1.0"/>
      <point x="-75.697265625" y="5.0" type="curve" smooth="yes"/>
      <point x="245.302734375" y="1395.0" type="line" smooth="yes"/>
      <point x="246.302734375" y="1399.0"/>
      <point x="247.302734375" y="1400.0"/>
      <point x="251.302734375" y="1400.0" type="curve" smooth="yes"/>
      <point x="636.302734375" y="1400.0" type="line" smooth="yes"/>
      <point x="640.302734375" y="1400.0"/>
      <point x="641.302734375" y="1399.0"/>
      <point x="640.302734375" y="1395.0" type="curve" smooth="yes"/>
      <point x="602.302734375" y="1230.0" type="line" smooth="yes"/>
      <point x="601.302734375" y="1226.0"/>
      <point x="600.302734375" y="1225.0"/>
      <point x="596.302734375" y="1225.0" type="curve" smooth="yes"/>
      <point x="451.302734375" y="1225.0" type="line"/>
    </contour>
  </outline>
</glyph>
<glyph name="F" format="2">
  <advance height="960" width="423"/>
  <unicode hex="0046"/>
  <anchor x="152.0" y="0.0" name="bottom"/>
  <anchor x="475.0" y="1400.0" name="top"/>
  <outline>
    <contour>
      <point x="347.302734375" y="775.0" type="line"/>
      <point x="437.302734375" y="775.0" type="line" smooth="yes"/>
      <point x="441.302734375" y="775.0"/>
      <point x="442.302734375" y="774.0"/>
      <point x="441.302734375" y="770.0" type="curve" smooth="yes"/>
      <point x="414.302734375" y="655.0" type="line" smooth="yes"/>
      <point x="413.302734375" y="651.0"/>
      <point x="412.302734375" y="650.0"/>
      <point x="408.302734375" y="650.0" type="curve" smooth="yes"/>
      <point x="318.302734375" y="650.0" type="line"/>
      <point x="169.302734375" y="5.0" type="line" smooth="yes"/>
      <point x="168.302734375" y="1.0"/>
      <point x="167.302734375" y="0.0"/>
      <point x="163.302734375" y="0.0" type="curve" smooth="yes"/>
      <point x="-71.697265625" y="0.0" type="line" smooth="yes"/>
      <point x="-75.697265625" y="0.0"/>
      <point x="-76.697265625" y="1.0"/>
      <point x="-75.697265625" y="5.0" type="curve" smooth="yes"/>
      <point x="245.302734375" y="1395.0" type="line" smooth="yes"/>
      <point x="246.302734375" y="1399.0"/>
      <point x="247.302734375" y="1400.0"/>
      <point x="251.302734375" y="1400.0" type="curve" smooth="yes"/>
      <point x="641.302734375" y="1400.0" type="line" smooth="yes"/>
      <point x="645.302734375" y="1400.0"/>
      <point x="646.302734375" y="1399.0"/>
      <point x="645.302734375" y="1395.0" type="curve" smooth="yes"/>
      <point x="607.302734375" y="1230.0" type="line" smooth="yes"/>
      <point x="606.302734375" y="1226.0"/>
      <point x="605.302734375" y="1225.0"/>
      <point x="601.302734375" y="1225.0" type="curve" smooth="yes"/>
      <point x="451.302734375" y="1225.0" type="line"/>
    </contour>
  </outline>
</glyph>
<glyph name="G" format="2">
  <advance height="960" width="565"/>
  <unicode hex="0047"/>
  <anchor x="202.0" y="0.0" name="bottom"/>
  <anchor x="485.0" y="1400.0" name="top"/>
  <outline>
    <contour>
      <point x="329.901367188" y="582.0" type="curve" smooth="yes"/>
      <point x="355.909179688" y="695.0" type="line" smooth="yes"/>
      <point x="356.901367188" y="699.0"/>
      <point x="358.901367188" y="700.0"/>
      <point x="362.901367188" y="700.0" type="curve" smooth="yes"/>
      <point x="612.901367188" y="700.0" type="line" smooth="yes"/>
      <point x="616.901367188" y="700.0"/>
      <point x="616.901367188" y="699.0"/>
      <point x="615.901367188" y="695.0" type="curve" smooth="yes"/>
      <point x="456.901367188" y="5.0" type="line" smooth="yes"/>
      <point x="455.901367188" y="1.0"/>
      <point x="454.901367188" y="0.0"/>
      <point x="450.901367188" y="0.0" type="curve" smooth="yes"/>
      <point x="335.901367188" y="0.0" type="line" smooth="yes"/>
      <point x="331.901367188" y="0.0"/>
      <point x="330.901367188" y="1.0"/>
      <point x="330.901367188" y="5.0" type="curve" smooth="yes"/>
      <point x="355.901367188" y="280.0" type="line"/>
      <point x="490.901367188" y="630.0" type="line"/>
      <point x="391.901367188" y="245.0"/>
      <point x="327.901367188" y="-18.0"/>
      <point x="117.303710938" y="-18.0" type="curve" smooth="yes"/>
      <point x="-50.6962890625" y="-18.0"/>
      <point x="-58.6962890625" y="119.0"/>
      <point x="8.3037109375" y="409.0" type="curve" smooth="yes"/>
      <point x="143.303710938" y="992.0" type="line" smooth="yes"/>
      <point x="210.303710938" y="1282.0"/>
      <point x="284.303710938" y="1418.0"/>
      <point x="497.631835938" y="1418.0" type="curve" smooth="yes"/>
      <point x="680.901367188" y="1418.0"/>
      <point x="715.901367188" y="1296.0"/>
      <point x="669.901367188" y="1094.0" type="curve" smooth="yes"/>
      <point x="658.901367188" y="1043.0"/>
      <point x="633.901367188" y="928.0"/>
      <point x="620.901367188" y="867.0" type="curve" smooth="yes"/>
      <point x="619.901367188" y="863.0"/>
      <point x="618.901367188" y="863.0"/>
      <point x="614.901367188" y="863.0" type="curve" smooth="yes"/>
      <point x="419.901367188" y="863.0" type="line" smooth="yes"/>
      <point x="415.901367188" y="863.0"/>
      <point x="414.901367188" y="863.0"/>
      <point x="415.901367188" y="867.0" type="curve" smooth="yes"/>
      <point x="487.901367188" y="1195.0"/>
      <point x="502.901367188" y="1228.0"/>
      <point x="470.791992188" y="1228.0" type="curve" smooth="yes"/>
      <point x="450.034179688" y="1228.0"/>
      <point x="437.244140625" y="1181.0"/>
      <point x="394.272460938" y="996.0" type="curve" smooth="yes"/>
      <point x="257.303710938" y="404.0" type="line" smooth="yes"/>
      <point x="215.303710938" y="224.0"/>
      <point x="206.956054688" y="172.0"/>
      <point x="241.901367188" y="172.0" type="curve" smooth="yes"/>
      <point x="274.901367188" y="172.0"/>
      <point x="293.901367188" y="231.0"/>
      <point x="393.901367188" y="628.0" type="curve"/>
      <point x="442.901367188" y="578.0" type="line"/>
      <point x="333.901367188" y="578.0" type="line" smooth="yes"/>
      <point x="330.901367188" y="578.0"/>
      <point x="328.908203125" y="578.0"/>
    </contour>
  </outline>
</glyph>
<glyph name="H" format="2">
  <advance height="960" width="589"/>
  <unicode hex="0048"/>
  <anchor x="182.0" y="0.0" name="bottom"/>
  <anchor x="505.0" y="1400.0" name="top"/>
  <outline>
    <contour>
      <point x="541.427734375" y="1400.0" type="curve" smooth="yes"/>
      <point x="776.427734375" y="1400.0" type="line" smooth="yes"/>
      <point x="780.427734375" y="1400.0"/>
      <point x="781.427734375" y="1399.0"/>
      <point x="780.427734375" y="1395.0" type="curve" smooth="yes"/>
      <point x="459.427734375" y="5.0" type="line" smooth="yes"/>
      <point x="458.427734375" y="1.0"/>
      <point x="457.427734375" y="0.0"/>
      <point x="453.427734375" y="0.0" type="curve" smooth="yes"/>
      <point x="218.427734375" y="0.0" type="line" smooth="yes"/>
      <point x="214.427734375" y="0.0"/>
      <point x="213.435546875" y="1.0"/>
      <point x="214.427734375" y="5.0" type="curve" smooth="yes"/>
      <point x="356.427734375" y="620.0" type="line"/>
      <point x="311.30078125" y="620.0" type="line"/>
      <point x="169.302734375" y="5.0" type="line" smooth="yes"/>
      <point x="168.302734375" y="1.0"/>
      <point x="167.302734375" y="0.0"/>
      <point x="163.302734375" y="0.0" type="curve" smooth="yes"/>
      <point x="-71.697265625" y="0.0" type="line" smooth="yes"/>
      <point x="-75.697265625" y="0.0"/>
      <point x="-76.697265625" y="1.0"/>
      <point x="-75.697265625" y="5.0" type="curve" smooth="yes"/>
      <point x="245.302734375" y="1395.0" type="line" smooth="yes"/>
      <point x="246.302734375" y="1399.0"/>
      <point x="247.302734375" y="1400.0"/>
      <point x="251.302734375" y="1400.0" type="curve" smooth="yes"/>
      <point x="486.302734375" y="1400.0" type="line" smooth="yes"/>
      <point x="490.302734375" y="1400.0"/>
      <point x="491.286132812" y="1399.0"/>
      <point x="490.293945312" y="1395.0" type="curve" smooth="yes"/>
      <point x="352.243164062" y="795.0" type="line"/>
      <point x="397.427734375" y="795.0" type="line"/>
      <point x="535.427734375" y="1395.0" type="line" smooth="yes"/>
      <point x="536.427734375" y="1399.0"/>
      <point x="537.427734375" y="1400.0"/>
    </contour>
  </outline>
</glyph>
<glyph name="I" format="2">
  <advance height="960" width="299"/>
  <unicode hex="0049"/>
  <anchor x="40.0" y="0.0" name="bottom"/>
  <anchor x="40.0" y="0.0" name="ogonek"/>
  <anchor x="363.0" y="1400.0" name="top"/>
  <outline>
    <contour>
      <point x="251.302734375" y="1400.0" type="curve" smooth="yes"/>
      <point x="486.302734375" y="1400.0" type="line" smooth="yes"/>
      <point x="490.302734375" y="1400.0"/>
      <point x="491.302734375" y="1399.0"/>
      <point x="490.302734375" y="1395.0" type="curve" smooth="yes"/>
      <point x="169.302734375" y="5.0" type="line" smooth="yes"/>
      <point x="168.302734375" y="1.0"/>
      <point x="167.302734375" y="0.0"/>
      <point x="163.302734375" y="0.0" type="curve" smooth="yes"/>
      <point x="-71.697265625" y="0.0" type="line" smooth="yes"/>
      <point x="-75.697265625" y="0.0"/>
      <point x="-76.697265625" y="1.0"/>
      <point x="-75.697265625" y="5.0" type="curve" smooth="yes"/>
      <point x="245.302734375" y="1395.0" type="line" smooth="yes"/>
      <point x="246.302734375" y="1399.0"/>
      <point x="247.302734375" y="1400.0"/>
    </contour>
  </outline>
</glyph>
<glyph name="J" format="2">
  <advance height="960" width="510"/>
  <unicode hex="004A"/>
  <anchor x="118.0" y="0.0" name="bottom"/>
  <anchor x="591.0" y="1400.0" name="top"/>
  <outline>
    <contour>
      <point x="446.474609375" y="1400.0" type="curve" smooth="yes"/>
      <point x="686.474609375" y="1400.0" type="line" smooth="yes"/>
      <point x="690.474609375" y="1400.0"/>
      <point x="691.474609375" y="1399.0"/>
      <point x="690.474609375" y="1395.0" type="curve" smooth="yes"/>
      <point x="430.474609375" y="269.0" type="line" smooth="yes"/>
      <point x="385.474609375" y="76.0"/>
      <point x="320.474609375" y="-18.0"/>
      <point x="117.474609375" y="-18.0" type="curve" smooth="yes"/>
      <point x="-58.4912109375" y="-18.0"/>
      <point x="-86.4912109375" y="77.0"/>
      <point x="-49.4912109375" y="239.0" type="curve" smooth="yes"/>
      <point x="47.5087890625" y="657.0" type="line" smooth="yes"/>
      <point x="48.5087890625" y="661.0"/>
      <point x="49.5087890625" y="663.0"/>
      <point x="53.5087890625" y="663.0" type="curve" smooth="yes"/>
      <point x="228.508789062" y="663.0" type="line" smooth="yes"/>
      <point x="232.508789062" y="663.0"/>
      <point x="233.47265625" y="661.0"/>
      <point x="232.4765625" y="657.0" type="curve" smooth="yes"/>
      <point x="136.508789062" y="244.0" type="line" smooth="yes"/>
      <point x="123.508789062" y="188.0"/>
      <point x="121.3125" y="162.0"/>
      <point x="137.461914062" y="162.0" type="curve" smooth="yes"/>
      <point x="153.612304688" y="162.0"/>
      <point x="161.474609375" y="184.0"/>
      <point x="177.474609375" y="254.0" type="curve" smooth="yes"/>
      <point x="440.495117188" y="1395.0" type="line" smooth="yes"/>
      <point x="441.491210938" y="1399.0"/>
      <point x="442.474609375" y="1400.0"/>
    </contour>
  </outline>
</glyph>
<glyph name="K" format="2">
  <advance height="960" width="610"/>
  <unicode hex="004B"/>
  <anchor x="202.0" y="0.0" name="bottom"/>
  <anchor x="525.0" y="1400.0" name="top"/>
  <outline>
    <contour>
      <point x="251.302734375" y="1400.0" type="curve" smooth="yes"/>
      <point x="486.302734375" y="1400.0" type="line" smooth="yes"/>
      <point x="490.302734375" y="1400.0"/>
      <point x="491.286132812" y="1399.0"/>
      <point x="490.293945312" y="1395.0" type="curve" smooth="yes"/>
      <point x="169.302734375" y="5.0" type="line" smooth="yes"/>
      <point x="168.302734375" y="1.0"/>
      <point x="167.302734375" y="0.0"/>
      <point x="163.302734375" y="0.0" type="curve" smooth="yes"/>
      <point x="-71.697265625" y="0.0" type="line" smooth="yes"/>
      <point x="-75.697265625" y="0.0"/>
      <point x="-76.697265625" y="1.0"/>
      <point x="-75.697265625" y="5.0" type="curve" smooth="yes"/>
      <point x="245.302734375" y="1395.0" type="line" smooth="yes"/>
      <point x="246.302734375" y="1399.0"/>
      <point x="247.302734375" y="1400.0"/>
    </contour>
    <contour>
      <point x="349.302734375" y="785.0" type="line"/>
      <point x="537.075195312" y="890.0" type="line"/>
      <point x="544.075195312" y="5.0" type="line" smooth="yes"/>
      <point x="544.075195312" y="0.0"/>
      <point x="544.075195312" y="0.0"/>
      <point x="542.075195312" y="0.0" type="curve" smooth="yes"/>
      <point x="272.075195312" y="0.0" type="line" smooth="yes"/>
      <point x="267.5625" y="0.0"/>
      <point x="264.922851562" y="3.0"/>
      <point x="264.967773438" y="5.0" type="curve" smooth="yes"/>
    </contour>
    <contour>
      <point x="639.075195312" y="1395.0" type="line" smooth="yes"/>
      <point x="641.075195312" y="1399.0"/>
      <point x="645.075195312" y="1400.0"/>
      <point x="650.075195312" y="1400.0" type="curve" smooth="yes"/>
      <point x="852.075195312" y="1400.0" type="line" smooth="yes"/>
      <point x="855.075195312" y="1400.0"/>
      <point x="857.075195312" y="1399.0"/>
      <point x="854.075195312" y="1395.0" type="curve" smooth="yes"/>
      <point x="450.075195312" y="720.0" type="line"/>
      <point x="405.830078125" y="770.0" type="line"/>
      <point x="262.302734375" y="450.0" type="line"/>
      <point x="160.302734375" y="505.0" type="line"/>
    </contour>
  </outline>
</glyph>
<glyph name="L" format="2">
  <advance height="960" width="454"/>
  <unicode hex="004C"/>
  <anchor x="152.0" y="0.0" name="bottom"/>
  <anchor x="345.0" y="1400.0" name="top"/>
  <outline>
    <contour>
      <point x="251.302734375" y="1400.0" type="curve" smooth="yes"/>
      <point x="486.302734375" y="1400.0" type="line" smooth="yes"/>
      <point x="490.302734375" y="1400.0"/>
      <point x="491.302734375" y="1399.0"/>
      <point x="490.302734375" y="1395.0" type="curve" smooth="yes"/>
      <point x="208.302734375" y="175.0" type="line"/>
      <point x="383.302734375" y="175.0" type="line" smooth="yes"/>
      <point x="387.302734375" y="175.0"/>
      <point x="388.302734375" y="174.0"/>
      <point x="387.302734375" y="170.0" type="curve" smooth="yes"/>
      <point x="349.302734375" y="5.0" type="line" smooth="yes"/>
      <point x="348.302734375" y="1.0"/>
      <point x="347.302734375" y="0.0"/>
      <point x="343.302734375" y="0.0" type="curve" smooth="yes"/>
      <point x="-71.697265625" y="0.0" type="line" smooth="yes"/>
      <point x="-75.697265625" y="0.0"/>
      <point x="-76.697265625" y="1.0"/>
      <point x="-75.697265625" y="5.0" type="curve" smooth="yes"/>
      <point x="245.302734375" y="1395.0" type="line" smooth="yes"/>
      <point x="246.302734375" y="1399.0"/>
      <point x="247.302734375" y="1400.0"/>
    </contour>
  </outline>
</glyph>
<glyph name="M" format="2">
  <advance height="960" width="784"/>
  <unicode hex="004D"/>
  <anchor x="252.0" y="0.0" name="bottom"/>
  <anchor x="585.0" y="1400.0" name="top"/>
  <outline>
    <contour>
      <point x="346.27734375" y="1115.0" type="line"/>
      <point x="90.27734375" y="5.0" type="line" smooth="yes"/>
      <point x="89.27734375" y="1.0"/>
      <point x="88.27734375" y="0.0"/>
      <point x="84.27734375" y="0.0" type="curve" smooth="yes"/>
      <point x="-80.72265625" y="0.0" type="line" smooth="yes"/>
      <point x="-84.72265625" y="0.0"/>
      <point x="-85.72265625" y="1.0"/>
      <point x="-84.72265625" y="5.0" type="curve" smooth="yes"/>
      <point x="236.27734375" y="1395.0" type="line" smooth="yes"/>
      <point x="237.27734375" y="1399.0"/>
      <point x="238.27734375" y="1400.0"/>
      <point x="242.27734375" y="1400.0" type="curve" smooth="yes"/>
      <point x="529.608398438" y="1400.0" type="line" smooth="yes"/>
      <point x="533.21875" y="1400.0"/>
      <point x="534.098632812" y="1399.0"/>
      <point x="534.911132812" y="1395.0" type="curve" smooth="yes"/>
      <point x="423.244140625" y="644.0" type="line"/>
      <point x="662.1640625" y="1395.0" type="line" smooth="yes"/>
      <point x="664.9609375" y="1399.0"/>
      <point x="665.88671875" y="1400.0"/>
      <point x="669.49609375" y="1400.0" type="curve" smooth="yes"/>
      <point x="957.79296875" y="1400.0" type="line" smooth="yes"/>
      <point x="961.79296875" y="1400.0"/>
      <point x="962.79296875" y="1399.0"/>
      <point x="961.79296875" y="1395.0" type="curve" smooth="yes"/>
      <point x="655.193359375" y="5.0" type="line" smooth="yes"/>
      <point x="654.193359375" y="1.0"/>
      <point x="653.193359375" y="0.0"/>
      <point x="649.193359375" y="0.0" type="curve" smooth="yes"/>
      <point x="424.193359375" y="0.0" type="line" smooth="yes"/>
      <point x="420.193359375" y="0.0"/>
      <point x="419.200195312" y="1.0"/>
      <point x="420.193359375" y="5.0" type="curve" smooth="yes"/>
      <point x="662.178710938" y="1115.0" type="line"/>
      <point x="324.52734375" y="5.0" type="line" smooth="yes"/>
      <point x="321.52734375" y="1.0"/>
      <point x="320.52734375" y="0.0"/>
      <point x="316.52734375" y="0.0" type="curve" smooth="yes"/>
      <point x="186.52734375" y="0.0" type="line" smooth="yes"/>
      <point x="182.52734375" y="0.0"/>
      <point x="181.52734375" y="1.0"/>
      <point x="180.52734375" y="5.0" type="curve" smooth="yes"/>
    </contour>
  </outline>
</glyph>
<glyph name="N" format="2">
  <advance height="960" width="575"/>
  <unicode hex="004E"/>
  <anchor x="172.0" y="0.0" name="bottom"/>
  <anchor x="500.0" y="1400.0" name="top"/>
  <outline>
    <contour>
      <point x="597.27734375" y="1400.0" type="curve" smooth="yes"/>
      <point x="772.27734375" y="1400.0" type="line" smooth="yes"/>
      <point x="776.27734375" y="1400.0"/>
      <point x="777.27734375" y="1399.0"/>
      <point x="776.27734375" y="1395.0" type="curve" smooth="yes"/>
      <point x="455.27734375" y="5.0" type="line" smooth="yes"/>
      <point x="454.27734375" y="1.0"/>
      <point x="453.27734375" y="0.0"/>
      <point x="449.27734375" y="0.0" type="curve" smooth="yes"/>
      <point x="284.27734375" y="0.0" type="line" smooth="yes"/>
      <point x="280.27734375" y="0.0"/>
      <point x="276.27734375" y="1.0"/>
      <point x="276.27734375" y="5.0" type="curve" smooth="yes"/>
      <point x="263.27734375" y="796.0" type="line"/>
      <point x="283.27734375" y="796.0" type="line"/>
      <point x="100.27734375" y="5.0" type="line" smooth="yes"/>
      <point x="99.27734375" y="1.0"/>
      <point x="98.27734375" y="0.0"/>
      <point x="94.27734375" y="0.0" type="curve" smooth="yes"/>
      <point x="-80.72265625" y="0.0" type="line" smooth="yes"/>
      <point x="-84.72265625" y="0.0"/>
      <point x="-85.72265625" y="1.0"/>
      <point x="-84.72265625" y="5.0" type="curve" smooth="yes"/>
      <point x="236.27734375" y="1395.0" type="line" smooth="yes"/>
      <point x="237.27734375" y="1399.0"/>
      <point x="238.27734375" y="1400.0"/>
      <point x="242.27734375" y="1400.0" type="curve" smooth="yes"/>
      <point x="457.27734375" y="1400.0" type="line" smooth="yes"/>
      <point x="461.27734375" y="1400.0"/>
      <point x="465.27734375" y="1399.0"/>
      <point x="465.27734375" y="1395.0" type="curve" smooth="yes"/>
      <point x="434.27734375" y="629.0" type="line"/>
      <point x="414.27734375" y="629.0" type="line"/>
      <point x="591.27734375" y="1395.0" type="line" smooth="yes"/>
      <point x="592.27734375" y="1399.0"/>
      <point x="593.27734375" y="1400.0"/>
    </contour>
  </outline>
</glyph>
<glyph name="O" format="2">
  <advance height="960" width="603"/>
  <unicode hex="004F"/>
  <anchor x="193.0" y="0.0" name="bottom"/>
  <anchor x="515.0" y="1400.0" name="top"/>
  <outline>
    <contour>
      <point x="-2.7490234375" y="359.0" type="curve" smooth="yes"/>
      <point x="155.250976562" y="1042.0" type="line" smooth="yes"/>
      <point x="209.250976562" y="1275.0"/>
      <point x="288.250976562" y="1416.0"/>
      <point x="525.541992188" y="1416.0" type="curve" smooth="yes"/>
      <point x="762.938476562" y="1416.0"/>
      <point x="776.938476562" y="1275.0"/>
      <point x="722.938476562" y="1042.0" type="curve" smooth="yes"/>
      <point x="564.938476562" y="359.0" type="line" smooth="yes"/>
      <point x="510.938476562" y="126.0"/>
      <point x="431.938476562" y="-18.0"/>
      <point x="194.536132812" y="-18.0" type="curve" smooth="yes"/>
      <point x="-42.7490234375" y="-18.0"/>
      <point x="-56.7490234375" y="126.0"/>
    </contour>
    <contour>
      <point x="225.250976562" y="264.0" type="line" smooth="yes"/>
      <point x="204.250976562" y="175.0"/>
      <point x="209.192382812" y="152.0"/>
      <point x="233.560546875" y="152.0" type="curve" smooth="yes"/>
      <point x="257.926757812" y="152.0"/>
      <point x="271.982421875" y="175.0"/>
      <point x="292.938476562" y="264.0" type="curve" smooth="yes"/>
      <point x="493.969726562" y="1136.0" type="line" smooth="yes"/>
      <point x="514.938476562" y="1225.0"/>
      <point x="510.930664062" y="1248.0"/>
      <point x="486.5625" y="1248.0" type="curve" smooth="yes"/>
      <point x="462.1953125" y="1248.0"/>
      <point x="447.237304688" y="1225.0"/>
      <point x="426.250976562" y="1136.0" type="curve" smooth="yes"/>
    </contour>
  </outline>
</glyph>
<glyph name="P" format="2">
  <advance height="960" width="554"/>
  <unicode hex="0050"/>
  <anchor x="18.0" y="0.0" name="bottom"/>
  <anchor x="525.0" y="1400.0" name="top"/>
  <outline>
    <contour>
      <point x="451.26953125" y="1225.0" type="line"/>
      <point x="335.302734375" y="725.0" type="line"/>
      <point x="344.350585938" y="725.0" type="line" smooth="yes"/>
      <point x="378.64453125" y="725.0"/>
      <point x="393.663085938" y="749.0"/>
      <point x="403.663085938" y="794.0" type="curve" smooth="yes"/>
      <point x="487.663085938" y="1156.0" type="line" smooth="yes"/>
      <point x="497.663085938" y="1201.0"/>
      <point x="494.58984375" y="1225.0"/>
      <point x="460.294921875" y="1225.0" type="curve" smooth="yes"/>
    </contour>
    <contour>
      <point x="491.302734375" y="1400.0" type="line" smooth="yes"/>
      <point x="668.663085938" y="1400.0"/>
      <point x="736.663085938" y="1326.0"/>
      <point x="693.663085938" y="1141.0" type="curve" smooth="yes"/>
      <point x="628.663085938" y="859.0" type="line" smooth="yes"/>
      <point x="585.663085938" y="674.0"/>
      <point x="485.663085938" y="600.0"/>
      <point x="343.341796875" y="600.0" type="curve" smooth="yes"/>
      <point x="307.241210938" y="600.0" type="line"/>
      <point x="169.302734375" y="5.0" type="line" smooth="yes"/>
      <point x="168.302734375" y="1.0"/>
      <point x="167.302734375" y="0.0"/>
      <point x="163.302734375" y="0.0" type="curve" smooth="yes"/>
      <point x="-71.697265625" y="0.0" type="line" smooth="yes"/>
      <point x="-75.697265625" y="0.0"/>
      <point x="-76.697265625" y="1.0"/>
      <point x="-75.697265625" y="5.0" type="curve" smooth="yes"/>
      <point x="245.302734375" y="1395.0" type="line" smooth="yes"/>
      <point x="246.302734375" y="1399.0"/>
      <point x="247.302734375" y="1400.0"/>
      <point x="251.302734375" y="1400.0" type="curve" smooth="yes"/>
    </contour>
  </outline>
</glyph>
<glyph name="Q" format="2">
  <advance height="960" width="648"/>
  <unicode hex="0051"/>
  <anchor x="192.0" y="0.0" name="bottom"/>
  <anchor x="515.0" y="1400.0" name="top"/>
  <outline>
    <contour>
      <point x="596.967773438" y="205.0" type="curve" smooth="yes"/>
      <point x="550.967773438" y="5.0" type="line" smooth="yes"/>
      <point x="549.967773438" y="1.0"/>
      <point x="549.967773438" y="-1.0"/>
      <point x="543.967773438" y="-2.0" type="curve" smooth="yes"/>
      <point x="382.967773438" y="-28.0"/>
      <point x="341.967773438" y="46.0"/>
      <point x="372.967773438" y="179.0" type="curve"/>
      <point x="464.967773438" y="294.0" type="line"/>
      <point x="424.967773438" y="119.0"/>
      <point x="337.967773438" y="-18.0"/>
      <point x="157.280273438" y="-18.0" type="curve" smooth="yes"/>
      <point x="-50.7197265625" y="-18.0"/>
      <point x="-55.7197265625" y="129.0"/>
      <point x="-15.7197265625" y="304.0" type="curve" smooth="yes"/>
      <point x="167.280273438" y="1096.0" type="line" smooth="yes"/>
      <point x="207.280273438" y="1271.0"/>
      <point x="284.280273438" y="1418.0"/>
      <point x="524.71484375" y="1418.0" type="curve" smooth="yes"/>
      <point x="764.967773438" y="1418.0"/>
      <point x="774.967773438" y="1271.0"/>
      <point x="734.967773438" y="1096.0" type="curve" smooth="yes"/>
      <point x="548.967773438" y="289.0" type="line" smooth="yes"/>
      <point x="535.967773438" y="232.0"/>
      <point x="545.967773438" y="212.0"/>
      <point x="591.967773438" y="210.0" type="curve" smooth="yes"/>
      <point x="597.967773438" y="210.0"/>
      <point x="597.967773438" y="208.0"/>
    </contour>
    <contour>
      <point x="292.967773438" y="264.0" type="curve" smooth="yes"/>
      <point x="493.999023438" y="1136.0" type="line" smooth="yes"/>
      <point x="508.999023438" y="1201.0"/>
      <point x="516.375" y="1248.0"/>
      <point x="485.689453125" y="1248.0" type="curve" smooth="yes"/>
      <point x="455.004882812" y="1248.0"/>
      <point x="441.280273438" y="1201.0"/>
      <point x="426.280273438" y="1136.0" type="curve" smooth="yes"/>
      <point x="225.280273438" y="264.0" type="line" smooth="yes"/>
      <point x="209.264648438" y="194.0"/>
      <point x="202.001953125" y="152.0"/>
      <point x="232.686523438" y="152.0" type="curve" smooth="yes"/>
      <point x="263.372070312" y="152.0"/>
      <point x="276.967773438" y="194.0"/>
    </contour>
  </outline>
</glyph>
<glyph name="R" format="2">
  <advance height="960" width="611"/>
  <unicode hex="0052"/>
  <anchor x="202.0" y="0.0" name="bottom"/>
  <anchor x="525.0" y="1400.0" name="top"/>
  <outline>
    <contour>
      <point x="451.266601562" y="1225.0" type="line"/>
      <point x="334.302734375" y="720.0" type="line"/>
      <point x="352.356445312" y="720.0" type="line" smooth="yes"/>
      <point x="383.041015625" y="720.0"/>
      <point x="394.616210938" y="751.0"/>
      <point x="404.616210938" y="796.0" type="curve" smooth="yes"/>
      <point x="485.6328125" y="1148.0" type="line" smooth="yes"/>
      <point x="494.655273438" y="1188.0"/>
      <point x="500.000976562" y="1225.0"/>
      <point x="469.31640625" y="1225.0" type="curve" smooth="yes"/>
    </contour>
    <contour>
      <point x="518.379882812" y="1400.0" type="line" smooth="yes"/>
      <point x="748.616210938" y="1400.0"/>
      <point x="769.616210938" y="1296.0"/>
      <point x="733.616210938" y="1141.0" type="curve" smooth="yes"/>
      <point x="673.616210938" y="879.0" type="line" smooth="yes"/>
      <point x="634.616210938" y="709.0"/>
      <point x="504.616210938" y="640.0"/>
      <point x="343.3359375" y="640.0" type="curve"/>
      <point x="350.328125" y="670.0" type="line"/>
      <point x="525.616210938" y="670.0"/>
      <point x="626.616210938" y="656.0"/>
      <point x="582.616210938" y="466.0" type="curve" smooth="yes"/>
      <point x="512.616210938" y="164.0" type="line" smooth="yes"/>
      <point x="499.616210938" y="107.0"/>
      <point x="495.616210938" y="64.0"/>
      <point x="510.616210938" y="30.0" type="curve" smooth="yes"/>
      <point x="513.616210938" y="24.0"/>
      <point x="513.616210938" y="23.0"/>
      <point x="512.616210938" y="20.0" type="curve" smooth="yes"/>
      <point x="508.616210938" y="5.0" type="line" smooth="yes"/>
      <point x="507.616210938" y="1.0"/>
      <point x="506.616210938" y="0.0"/>
      <point x="502.616210938" y="0.0" type="curve" smooth="yes"/>
      <point x="264.616210938" y="0.0" type="line" smooth="yes"/>
      <point x="260.616210938" y="0.0"/>
      <point x="257.616210938" y="2.0"/>
      <point x="255.616210938" y="6.0" type="curve" smooth="yes"/>
      <point x="236.616210938" y="46.0"/>
      <point x="241.616210938" y="90.0"/>
      <point x="258.616210938" y="164.0" type="curve" smooth="yes"/>
      <point x="344.616210938" y="536.0" type="line" smooth="yes"/>
      <point x="353.627929688" y="576.0"/>
      <point x="344.126953125" y="595.0"/>
      <point x="318.857421875" y="595.0" type="curve" smooth="yes"/>
      <point x="305.302734375" y="595.0" type="line"/>
      <point x="169.298828125" y="5.0" type="line" smooth="yes"/>
      <point x="168.302734375" y="1.0"/>
      <point x="167.302734375" y="0.0"/>
      <point x="163.302734375" y="0.0" type="curve" smooth="yes"/>
      <point x="-71.697265625" y="0.0" type="line" smooth="yes"/>
      <point x="-75.697265625" y="0.0"/>
      <point x="-76.697265625" y="1.0"/>
      <point x="-75.697265625" y="5.0" type="curve" smooth="yes"/>
      <point x="245.302734375" y="1395.0" type="line" smooth="yes"/>
      <point x="246.302734375" y="1399.0"/>
      <point x="247.302734375" y="1400.0"/>
      <point x="251.302734375" y="1400.0" type="curve" smooth="yes"/>
    </contour>
  </outline>
</glyph>
<glyph name="S" format="2">
  <advance height="960" width="472"/>
  <unicode hex="0053"/>
  <anchor x="122.0" y="0.0" name="bottom"/>
  <anchor x="404.0" y="1400.0" name="top"/>
  <outline>
    <contour>
      <point x="30.27734375" y="524.0" type="curve" smooth="yes"/>
      <point x="206.27734375" y="524.0" type="line" smooth="yes"/>
      <point x="207.27734375" y="524.0"/>
      <point x="210.27734375" y="524.0"/>
      <point x="209.27734375" y="520.0" type="curve" smooth="yes"/>
      <point x="193.27734375" y="452.0"/>
      <point x="175.27734375" y="372.0"/>
      <point x="155.27734375" y="285.0" type="curve" smooth="yes"/>
      <point x="135.27734375" y="200.0"/>
      <point x="133.78125" y="172.0"/>
      <point x="150.928710938" y="172.0" type="curve" smooth="yes"/>
      <point x="172.588867188" y="172.0"/>
      <point x="182.469726562" y="208.0"/>
      <point x="206.469726562" y="314.0" type="curve" smooth="yes"/>
      <point x="241.478515625" y="466.0"/>
      <point x="216.27734375" y="558.0"/>
      <point x="187.27734375" y="645.0" type="curve" smooth="yes"/>
      <point x="151.27734375" y="754.0"/>
      <point x="107.27734375" y="869.0"/>
      <point x="164.27734375" y="1116.0" type="curve" smooth="yes"/>
      <point x="211.27734375" y="1321.0"/>
      <point x="306.27734375" y="1418.0"/>
      <point x="472.27734375" y="1418.0" type="curve" smooth="yes"/>
      <point x="635.067382812" y="1418.0"/>
      <point x="662.067382812" y="1308.0"/>
      <point x="626.067382812" y="1150.0" type="curve" smooth="yes"/>
      <point x="570.067382812" y="906.0" type="line" smooth="yes"/>
      <point x="569.067382812" y="902.0"/>
      <point x="566.067382812" y="902.0"/>
      <point x="563.067382812" y="902.0" type="curve" smooth="yes"/>
      <point x="399.067382812" y="902.0" type="line" smooth="yes"/>
      <point x="396.067382812" y="902.0"/>
      <point x="393.075195312" y="902.0"/>
      <point x="394.067382812" y="906.0" type="curve" smooth="yes"/>
      <point x="416.067382812" y="1000.0"/>
      <point x="432.067382812" y="1070.0"/>
      <point x="448.067382812" y="1139.0" type="curve" smooth="yes"/>
      <point x="467.067382812" y="1221.0"/>
      <point x="467.422851562" y="1238.0"/>
      <point x="452.080078125" y="1238.0" type="curve" smooth="yes"/>
      <point x="437.640625" y="1238.0"/>
      <point x="425.27734375" y="1211.0"/>
      <point x="407.27734375" y="1132.0" type="curve" smooth="yes"/>
      <point x="365.27734375" y="952.0"/>
      <point x="397.067382812" y="839.0"/>
      <point x="430.067382812" y="753.0" type="curve" smooth="yes"/>
      <point x="469.067382812" y="653.0"/>
      <point x="501.469726562" y="552.0"/>
      <point x="446.469726562" y="314.0" type="curve" smooth="yes"/>
      <point x="393.469726562" y="85.0"/>
      <point x="291.469726562" y="-18.0"/>
      <point x="131.469726562" y="-18.0" type="curve" smooth="yes"/>
      <point x="-27.72265625" y="-18.0"/>
      <point x="-82.72265625" y="52.0"/>
      <point x="-39.72265625" y="240.0" type="curve" smooth="yes"/>
      <point x="25.27734375" y="520.0" type="line" smooth="yes"/>
      <point x="26.27734375" y="524.0"/>
      <point x="29.27734375" y="524.0"/>
    </contour>
  </outline>
</glyph>
<glyph name="T" format="2">
  <advance height="960" width="533"/>
  <unicode hex="0054"/>
  <anchor x="133.0" y="0.0" name="bottom"/>
  <anchor x="475.0" y="1400.0" name="top"/>
  <outline>
    <contour>
      <point x="219.706054688" y="1400.0" type="curve" smooth="yes"/>
      <point x="754.706054688" y="1400.0" type="line" smooth="yes"/>
      <point x="758.706054688" y="1400.0"/>
      <point x="759.706054688" y="1399.0"/>
      <point x="758.706054688" y="1395.0" type="curve" smooth="yes"/>
      <point x="720.706054688" y="1230.0" type="line" smooth="yes"/>
      <point x="719.706054688" y="1226.0"/>
      <point x="718.706054688" y="1225.0"/>
      <point x="714.706054688" y="1225.0" type="curve" smooth="yes"/>
      <point x="569.706054688" y="1225.0" type="line"/>
      <point x="287.706054688" y="5.0" type="line" smooth="yes"/>
      <point x="286.706054688" y="1.0"/>
      <point x="285.706054688" y="0.0"/>
      <point x="281.706054688" y="0.0" type="curve" smooth="yes"/>
      <point x="46.7060546875" y="0.0" type="line" smooth="yes"/>
      <point x="42.7060546875" y="0.0"/>
      <point x="41.7060546875" y="1.0"/>
      <point x="42.7060546875" y="5.0" type="curve" smooth="yes"/>
      <point x="324.706054688" y="1225.0" type="line"/>
      <point x="179.706054688" y="1225.0" type="line" smooth="yes"/>
      <point x="175.706054688" y="1225.0"/>
      <point x="174.706054688" y="1226.0"/>
      <point x="175.706054688" y="1230.0" type="curve" smooth="yes"/>
      <point x="213.706054688" y="1395.0" type="line" smooth="yes"/>
      <point x="214.706054688" y="1399.0"/>
      <point x="215.706054688" y="1400.0"/>
    </contour>
  </outline>
</glyph>
<glyph name="U" format="2">
  <advance height="960" width="534"/>
  <unicode hex="0055"/>
  <anchor x="180.0" y="0.0" name="bottom"/>
  <anchor x="228.0" y="0.0" name="ogonek"/>
  <anchor x="503.0" y="1400.0" name="top"/>
  <outline>
    <contour>
      <point x="277.41015625" y="254.0" type="curve" smooth="yes"/>
      <point x="540.452148438" y="1395.0" type="line" smooth="yes"/>
      <point x="541.444335938" y="1399.0"/>
      <point x="542.411132812" y="1400.0"/>
      <point x="546.411132812" y="1400.0" type="curve" smooth="yes"/>
      <point x="721.411132812" y="1400.0" type="line" smooth="yes"/>
      <point x="725.411132812" y="1400.0"/>
      <point x="726.41015625" y="1399.0"/>
      <point x="725.411132812" y="1395.0" type="curve" smooth="yes"/>
      <point x="472.41015625" y="299.0" type="line" smooth="yes"/>
      <point x="435.411132812" y="139.0"/>
      <point x="375.411132812" y="-18.0"/>
      <point x="162.78125" y="-18.0" type="curve" smooth="yes"/>
      <point x="-71.21875" y="-18.0"/>
      <point x="-57.21875" y="104.0"/>
      <point x="-13.21875" y="294.0" type="curve" smooth="yes"/>
      <point x="240.78125" y="1395.0" type="line" smooth="yes"/>
      <point x="241.78125" y="1399.0"/>
      <point x="242.78125" y="1400.0"/>
      <point x="246.78125" y="1400.0" type="curve" smooth="yes"/>
      <point x="486.78125" y="1400.0" type="line" smooth="yes"/>
      <point x="490.78125" y="1400.0"/>
      <point x="491.78125" y="1399.0"/>
      <point x="490.78125" y="1395.0" type="curve" smooth="yes"/>
      <point x="235.78125" y="289.0" type="line" smooth="yes"/>
      <point x="208.78125" y="174.0"/>
      <point x="207.426757812" y="152.0"/>
      <point x="228.184570312" y="152.0" type="curve" smooth="yes"/>
      <point x="248.942382812" y="152.0"/>
      <point x="260.411132812" y="179.0"/>
    </contour>
  </outline>
</glyph>
<glyph name="V" format="2">
  <advance height="960" width="548"/>
  <unicode hex="0056"/>
  <anchor x="170.0" y="0.0" name="bottom"/>
  <anchor x="494.0" y="1400.0" name="top"/>
  <outline>
    <contour>
      <point x="257.189453125" y="311.0" type="line"/>
      <point x="587.189453125" y="1395.0" type="line" smooth="yes"/>
      <point x="588.189453125" y="1397.0"/>
      <point x="591.189453125" y="1400.0"/>
      <point x="595.189453125" y="1400.0" type="curve" smooth="yes"/>
      <point x="785.189453125" y="1400.0" type="line" smooth="yes"/>
      <point x="787.189453125" y="1400.0"/>
      <point x="790.189453125" y="1400.0"/>
      <point x="787.189453125" y="1395.0" type="curve" smooth="yes"/>
      <point x="317.189453125" y="5.0" type="line" smooth="yes"/>
      <point x="314.189453125" y="1.0"/>
      <point x="311.189453125" y="0.0"/>
      <point x="309.189453125" y="0.0" type="curve" smooth="yes"/>
      <point x="19.189453125" y="0.0" type="line" smooth="yes"/>
      <point x="16.189453125" y="0.0"/>
      <point x="14.189453125" y="1.0"/>
      <point x="14.189453125" y="5.0" type="curve" smooth="yes"/>
      <point x="200.189453125" y="1395.0" type="line" smooth="yes"/>
      <point x="200.189453125" y="1396.0"/>
      <point x="200.189453125" y="1400.0"/>
      <point x="205.189453125" y="1400.0" type="curve" smooth="yes"/>
      <point x="455.189453125" y="1400.0" type="line" smooth="yes"/>
      <point x="457.189453125" y="1400.0"/>
      <point x="459.189453125" y="1400.0"/>
      <point x="460.189453125" y="1395.0" type="curve" smooth="yes"/>
    </contour>
  </outline>
</glyph>
<glyph name="W" format="2">
  <advance height="960" width="794"/>
  <unicode hex="0057"/>
  <anchor x="296.0" y="0.0" name="bottom"/>
  <anchor x="639.0" y="1400.0" name="top"/>
  <outline>
    <contour>
      <point x="271.895507812" y="495.0" type="line"/>
      <point x="562.497070312" y="1395.0" type="line" smooth="yes"/>
      <point x="564.370117188" y="1398.0"/>
      <point x="566.219726562" y="1400.0"/>
      <point x="569.829101562" y="1400.0" type="curve" smooth="yes"/>
      <point x="721.938476562" y="1400.0" type="line" smooth="yes"/>
      <point x="725.938476562" y="1400.0"/>
      <point x="726.938476562" y="1398.0"/>
      <point x="726.938476562" y="1395.0" type="curve" smooth="yes"/>
      <point x="597.938476562" y="477.0" type="line"/>
      <point x="868.938476562" y="1395.0" type="line" smooth="yes"/>
      <point x="870.938476562" y="1398.0"/>
      <point x="872.938476562" y="1400.0"/>
      <point x="876.938476562" y="1400.0" type="curve" smooth="yes"/>
      <point x="1046.93847656" y="1400.0" type="line" smooth="yes"/>
      <point x="1050.93847656" y="1400.0"/>
      <point x="1050.93847656" y="1398.0"/>
      <point x="1048.93847656" y="1395.0" type="curve" smooth="yes"/>
      <point x="593.938476562" y="5.0" type="line" smooth="yes"/>
      <point x="591.938476562" y="1.0"/>
      <point x="589.938476562" y="0.0"/>
      <point x="585.938476562" y="0.0" type="curve" smooth="yes"/>
      <point x="365.938476562" y="0.0" type="line" smooth="yes"/>
      <point x="363.23046875" y="0.0"/>
      <point x="361.448242188" y="1.0"/>
      <point x="361.5390625" y="5.0" type="curve" smooth="yes"/>
      <point x="474.310546875" y="765.0" type="line"/>
      <point x="237.895507812" y="5.0" type="line" smooth="yes"/>
      <point x="235.895507812" y="1.0"/>
      <point x="233.895507812" y="0.0"/>
      <point x="229.895507812" y="0.0" type="curve" smooth="yes"/>
      <point x="7.8955078125" y="0.0" type="line" smooth="yes"/>
      <point x="3.8955078125" y="0.0"/>
      <point x="1.8955078125" y="1.0"/>
      <point x="1.8955078125" y="5.0" type="curve" smooth="yes"/>
      <point x="193.895507812" y="1395.0" type="line" smooth="yes"/>
      <point x="193.895507812" y="1398.0"/>
      <point x="193.895507812" y="1400.0"/>
      <point x="197.895507812" y="1400.0" type="curve" smooth="yes"/>
      <point x="435.895507812" y="1400.0" type="line" smooth="yes"/>
      <point x="439.895507812" y="1400.0"/>
      <point x="440.895507812" y="1398.0"/>
      <point x="440.895507812" y="1395.0" type="curve" smooth="yes"/>
    </contour>
  </outline>
</glyph>
<glyph name="X" format="2">
  <advance height="960" width="593"/>
  <unicode hex="0058"/>
  <anchor x="196.0" y="0.0" name="bottom"/>
  <anchor x="519.0" y="1400.0" name="top"/>
  <outline>
    <contour>
      <point x="579.670898438" y="1400.0" type="curve" smooth="yes"/>
      <point x="811.670898438" y="1400.0" type="line" smooth="yes"/>
      <point x="815.670898438" y="1400.0"/>
      <point x="815.670898438" y="1399.0"/>
      <point x="812.670898438" y="1395.0" type="curve" smooth="yes"/>
      <point x="503.670898438" y="732.0" type="line"/>
      <point x="516.670898438" y="5.0" type="line" smooth="yes"/>
      <point x="517.670898438" y="1.0"/>
      <point x="518.670898438" y="0.0"/>
      <point x="514.670898438" y="0.0" type="curve" smooth="yes"/>
      <point x="234.670898438" y="0.0" type="line" smooth="yes"/>
      <point x="231.060546875" y="0.0"/>
      <point x="229.278320312" y="1.0"/>
      <point x="228.465820312" y="5.0" type="curve" smooth="yes"/>
      <point x="289.610351562" y="436.0" type="line"/>
      <point x="123.776367188" y="5.0" type="line" smooth="yes"/>
      <point x="120.075195312" y="1.0"/>
      <point x="118.248046875" y="0.0"/>
      <point x="114.638671875" y="0.0" type="curve" smooth="yes"/>
      <point x="-122.361328125" y="0.0" type="line" smooth="yes"/>
      <point x="-126.361328125" y="0.0"/>
      <point x="-127.361328125" y="1.0"/>
      <point x="-123.361328125" y="5.0" type="curve" smooth="yes"/>
      <point x="238.638671875" y="680.0" type="line"/>
      <point x="212.638671875" y="1395.0" type="line" smooth="yes"/>
      <point x="211.638671875" y="1399.0"/>
      <point x="210.638671875" y="1400.0"/>
      <point x="214.638671875" y="1400.0" type="curve" smooth="yes"/>
      <point x="480.077148438" y="1400.0" type="line" smooth="yes"/>
      <point x="483.6875" y="1400.0"/>
      <point x="486.37109375" y="1399.0"/>
      <point x="487.184570312" y="1395.0" type="curve" smooth="yes"/>
      <point x="426.538085938" y="946.0" type="line"/>
      <point x="570.670898438" y="1395.0" type="line" smooth="yes"/>
      <point x="573.670898438" y="1399.0"/>
      <point x="575.670898438" y="1400.0"/>
    </contour>
  </outline>
</glyph>
<glyph name="Y" format="2">
  <advance height="960" width="633"/>
  <unicode hex="0059"/>
  <anchor x="205.0" y="0.0" name="bottom"/>
  <anchor x="543.0" y="1400.0" name="top"/>
  <outline>
    <contour>
      <point x="664.739257812" y="1400.0" type="curve" smooth="yes"/>
      <point x="857.739257812" y="1400.0" type="line" smooth="yes"/>
      <point x="861.739257812" y="1400.0"/>
      <point x="861.739257812" y="1399.0"/>
      <point x="858.739257812" y="1395.0" type="curve" smooth="yes"/>
      <point x="480.739257812" y="625.0" type="line"/>
      <point x="337.739257812" y="5.0" type="line" smooth="yes"/>
      <point x="336.739257812" y="1.0"/>
      <point x="335.739257812" y="0.0"/>
      <point x="331.739257812" y="0.0" type="curve" smooth="yes"/>
      <point x="96.7392578125" y="0.0" type="line" smooth="yes"/>
      <point x="92.7392578125" y="0.0"/>
      <point x="91.7392578125" y="1.0"/>
      <point x="92.7392578125" y="5.0" type="curve" smooth="yes"/>
      <point x="235.739257812" y="625.0" type="line"/>
      <point x="214.739257812" y="1395.0" type="line" smooth="yes"/>
      <point x="213.739257812" y="1399.0"/>
      <point x="213.739257812" y="1400.0"/>
      <point x="217.739257812" y="1400.0" type="curve" smooth="yes"/>
      <point x="494.739257812" y="1400.0" type="line" smooth="yes"/>
      <point x="498.739257812" y="1400.0"/>
      <point x="500.739257812" y="1399.0"/>
      <point x="501.739257812" y="1395.0" type="curve" smooth="yes"/>
      <point x="441.739257812" y="800.0" type="line"/>
      <point x="655.739257812" y="1395.0" type="line" smooth="yes"/>
      <point x="658.739257812" y="1399.0"/>
      <point x="660.739257812" y="1400.0"/>
    </contour>
  </outline>
</glyph>
<glyph name="Z" format="2">
  <advance height="960" width="522"/>
  <unicode hex="005A"/>
  <anchor x="164.0" y="0.0" name="bottom"/>
  <anchor x="466.0" y="1400.0" name="top"/>
  <outline>
    <contour>
      <point x="-138.666992188" y="5.0" type="curve" smooth="yes"/>
      <point x="432.333007812" y="1225.0" type="line"/>
      <point x="214.333007812" y="1225.0" type="line" smooth="yes"/>
      <point x="210.333007812" y="1225.0"/>
      <point x="209.333007812" y="1226.0"/>
      <point x="210.333007812" y="1230.0" type="curve" smooth="yes"/>
      <point x="248.333007812" y="1395.0" type="line" smooth="yes"/>
      <point x="249.333007812" y="1399.0"/>
      <point x="250.333007812" y="1400.0"/>
      <point x="254.333007812" y="1400.0" type="curve" smooth="yes"/>
      <point x="749.333007812" y="1400.0" type="line" smooth="yes"/>
      <point x="753.333007812" y="1400.0"/>
      <point x="754.333007812" y="1399.0"/>
      <point x="750.333007812" y="1395.0" type="curve" smooth="yes"/>
      <point x="188.333007812" y="175.0" type="line"/>
      <point x="456.333007812" y="175.0" type="line" smooth="yes"/>
      <point x="460.333007812" y="175.0"/>
      <point x="461.333007812" y="174.0"/>
      <point x="460.333007812" y="170.0" type="curve" smooth="yes"/>
      <point x="422.333007812" y="5.0" type="line" smooth="yes"/>
      <point x="421.333007812" y="1.0"/>
      <point x="420.333007812" y="0.0"/>
      <point x="416.333007812" y="0.0" type="curve" smooth="yes"/>
      <point x="-138.666992188" y="0.0" type="line" smooth="yes"/>
      <point x="-142.666992188" y="0.0"/>
      <point x="-142.666992188" y="1.0"/>
    </contour>
  </outline>
</glyph>
<glyph name="bracketleft" format="2">
  <advance height="1920" width="380"/>
  <unicode hex="005B"/>
  <outline>
    <contour>
      <point x="456.0" y="1475.0" type="line"/>
      <point x="61.0" y="-235.0" type="line"/>
      <point x="176.0" y="-235.0" type="line" smooth="yes"/>
      <point x="180.0" y="-235.0"/>
      <point x="181.0" y="-236.0"/>
      <point x="180.0" y="-240.0" type="curve" smooth="yes"/>
      <point x="153.0" y="-355.0" type="line" smooth="yes"/>
      <point x="152.0" y="-359.0"/>
      <point x="151.0" y="-360.0"/>
      <point x="147.0" y="-360.0" type="curve" smooth="yes"/>
      <point x="-163.0" y="-360.0" type="line" smooth="yes"/>
      <point x="-167.0" y="-360.0"/>
      <point x="-168.0" y="-359.0"/>
      <point x="-167.0" y="-355.0" type="curve" smooth="yes"/>
      <point x="283.0" y="1595.0" type="line" smooth="yes"/>
      <point x="284.0" y="1599.0"/>
      <point x="285.0" y="1600.0"/>
      <point x="289.0" y="1600.0" type="curve" smooth="yes"/>
      <point x="599.0" y="1600.0" type="line" smooth="yes"/>
      <point x="603.0" y="1600.0"/>
      <point x="604.0" y="1599.0"/>
      <point x="603.0" y="1595.0" type="curve" smooth="yes"/>
      <point x="577.0" y="1480.0" type="line" smooth="yes"/>
      <point x="576.0" y="1476.0"/>
      <point x="575.0" y="1475.0"/>
      <point x="571.0" y="1475.0" type="curve" smooth="yes"/>
    </contour>
  </outline>
</glyph>
<glyph name="backslash" format="2">
  <advance height="2048" width="519"/>
  <unicode hex="005C"/>
  <outline>
    <contour>
      <point x="368.0" y="-95.0" type="line" smooth="yes"/>
      <point x="369.0" y="-99.0"/>
      <point x="368.0" y="-100.0"/>
      <point x="364.0" y="-100.0" type="curve" smooth="yes"/>
      <point x="194.0" y="-100.0" type="line" smooth="yes"/>
      <point x="191.0" y="-100.0"/>
      <point x="189.0" y="-99.0"/>
      <point x="188.0" y="-95.0" type="curve" smooth="yes"/>
      <point x="224.0" y="1395.0" type="line" smooth="yes"/>
      <point x="223.0" y="1399.0"/>
      <point x="224.0" y="1400.0"/>
      <point x="228.0" y="1400.0" type="curve" smooth="yes"/>
      <point x="398.0" y="1400.0" type="line" smooth="yes"/>
      <point x="402.0" y="1400.0"/>
      <point x="403.0" y="1399.0"/>
      <point x="404.0" y="1395.0" type="curve" smooth="yes"/>
    </contour>
  </outline>
</glyph>
<glyph name="bracketright" format="2">
  <advance height="1920" width="380"/>
  <unicode hex="005D"/>
  <outline>
    <contour>
      <point x="-29.0" y="-235.0" type="line"/>
      <point x="366.0" y="1475.0" type="line"/>
      <point x="251.0" y="1475.0" type="line" smooth="yes"/>
      <point x="247.0" y="1475.0"/>
      <point x="246.0" y="1476.0"/>
      <point x="247.0" y="1480.0" type="curve" smooth="yes"/>
      <point x="273.0" y="1595.0" type="line" smooth="yes"/>
      <point x="274.0" y="1599.0"/>
      <point x="275.0" y="1600.0"/>
      <point x="279.0" y="1600.0" type="curve" smooth="yes"/>
      <point x="589.0" y="1600.0" type="line" smooth="yes"/>
      <point x="593.0" y="1600.0"/>
      <point x="594.0" y="1599.0"/>
      <point x="593.0" y="1595.0" type="curve" smooth="yes"/>
      <point x="143.0" y="-355.0" type="line" smooth="yes"/>
      <point x="142.0" y="-359.0"/>
      <point x="141.0" y="-360.0"/>
      <point x="137.0" y="-360.0" type="curve" smooth="yes"/>
      <point x="-173.0" y="-360.0" type="line" smooth="yes"/>
      <point x="-177.0" y="-360.0"/>
      <point x="-178.0" y="-359.0"/>
      <point x="-177.0" y="-355.0" type="curve" smooth="yes"/>
      <point x="-150.0" y="-240.0" type="line" smooth="yes"/>
      <point x="-149.0" y="-236.0"/>
      <point x="-148.0" y="-235.0"/>
      <point x="-144.0" y="-235.0" type="curve" smooth="yes"/>
    </contour>
  </outline>
</glyph>
<glyph name="asciicircum" format="2">
  <advance height="1920" width="412"/>
  <unicode hex="005E"/>
  <outline>
    <contour>
      <point x="346.112304688" y="1131.0" type="line"/>
      <point x="227.842773438" y="740.0" type="line" smooth="yes"/>
      <point x="225.45703125" y="734.0"/>
      <point x="222.534179688" y="730.0"/>
      <point x="218.534179688" y="730.0" type="curve" smooth="yes"/>
      <point x="33.5341796875" y="730.0" type="line" smooth="yes"/>
      <point x="29.5341796875" y="730.0"/>
      <point x="30.45703125" y="734.0"/>
      <point x="32.8427734375" y="740.0" type="curve" smooth="yes"/>
      <point x="318.907226562" y="1390.0" type="line" smooth="yes"/>
      <point x="322.984375" y="1399.0"/>
      <point x="324.215820312" y="1400.0"/>
      <point x="328.215820312" y="1400.0" type="curve" smooth="yes"/>
      <point x="488.215820312" y="1400.0" type="line" smooth="yes"/>
      <point x="492.215820312" y="1400.0"/>
      <point x="492.984375" y="1399.0"/>
      <point x="492.907226562" y="1390.0" type="curve" smooth="yes"/>
      <point x="478.842773438" y="740.0" type="line" smooth="yes"/>
      <point x="479.45703125" y="734.0"/>
      <point x="479.534179688" y="730.0"/>
      <point x="473.534179688" y="730.0" type="curve" smooth="yes"/>
      <point x="288.534179688" y="730.0" type="line" smooth="yes"/>
      <point x="283.534179688" y="730.0"/>
      <point x="283.45703125" y="734.0"/>
      <point x="283.842773438" y="740.0" type="curve" smooth="yes"/>
    </contour>
  </outline>
</glyph>
<glyph name="underscore" format="2">
  <advance height="1920" width="450"/>
  <unicode hex="005F"/>
  <outline>
    <contour>
      <point x="-160.0" y="-172.0" type="curve" smooth="yes"/>
      <point x="-121.0" y="-5.0" type="line" smooth="yes"/>
      <point x="-120.0" y="-1.0"/>
      <point x="-119.0" y="0.0"/>
      <point x="-115.0" y="0.0" type="curve" smooth="yes"/>
      <point x="325.0" y="0.0" type="line" smooth="yes"/>
      <point x="329.0" y="0.0"/>
      <point x="330.0" y="-1.0"/>
      <point x="329.0" y="-5.0" type="curve" smooth="yes"/>
      <point x="290.0" y="-172.0" type="line" smooth="yes"/>
      <point x="289.0" y="-176.0"/>
      <point x="288.0" y="-178.0"/>
      <point x="284.0" y="-178.0" type="curve" smooth="yes"/>
      <point x="-156.0" y="-178.0" type="line" smooth="yes"/>
      <point x="-160.0" y="-178.0"/>
      <point x="-161.0" y="-176.0"/>
    </contour>
  </outline>
</glyph>
<glyph name="grave" format="2">
  <advance width="386"/>
  <unicode hex="0060"/>
  <outline>
    <contour>
      <point x="488.0" y="1104.0" type="curve" smooth="yes"/>
      <point x="363.0" y="1104.0" type="line" smooth="yes"/>
      <point x="359.0" y="1104.0"/>
      <point x="356.0" y="1109.0"/>
      <point x="355.0" y="1114.0" type="curve" smooth="yes"/>
      <point x="231.0" y="1390.0" type="line" smooth="yes"/>
      <point x="230.0" y="1395.0"/>
      <point x="229.0" y="1400.0"/>
      <point x="233.0" y="1400.0" type="curve" smooth="yes"/>
      <point x="513.0" y="1400.0" type="line" smooth="yes"/>
      <point x="517.0" y="1400.0"/>
      <point x="519.0" y="1397.0"/>
      <point x="519.0" y="1390.0" type="curve" smooth="yes"/>
      <point x="492.0" y="1114.0" type="line" smooth="yes"/>
      <point x="492.0" y="1107.0"/>
      <point x="492.0" y="1104.0"/>
    </contour>
  </outline>
</glyph>
<glyph name="a" format="2">
  <advance height="960" width="560"/>
  <unicode hex="0061"/>
  <anchor x="131.0" y="0.0" name="bottom"/>
  <anchor x="333.0" y="0.0" name="ogonek"/>
  <anchor x="427.0" y="1050.0" name="top"/>
  <outline>
    <contour>
      <point x="267.0" y="238.0" type="line"/>
      <point x="234.0" y="93.0"/>
      <point x="135.0" y="-18.0"/>
      <point x="37.0" y="-18.0" type="curve" smooth="yes"/>
      <point x="-51.0" y="-18.0"/>
      <point x="-87.0" y="54.0"/>
      <point x="-48.0" y="224.0" type="curve" smooth="yes"/>
      <point x="91.0" y="827.0" type="line" smooth="yes"/>
      <point x="128.0" y="987.0"/>
      <point x="214.0" y="1067.0"/>
      <point x="352.0" y="1067.0" type="curve" smooth="yes"/>
      <point x="476.0" y="1067.0"/>
      <point x="535.0" y="986.0"/>
      <point x="502.0" y="841.0" type="curve"/>
      <point x="368.0" y="807.0" type="line"/>
      <point x="384.0" y="877.0"/>
      <point x="382.0" y="897.0"/>
      <point x="367.0" y="897.0" type="curve" smooth="yes"/>
      <point x="351.0" y="897.0"/>
      <point x="338.0" y="872.0"/>
      <point x="325.0" y="817.0" type="curve" smooth="yes"/>
      <point x="190.0" y="234.0" type="line" smooth="yes"/>
      <point x="177.0" y="179.0"/>
      <point x="172.0" y="152.0"/>
      <point x="191.0" y="152.0" type="curve" smooth="yes"/>
      <point x="208.0" y="152.0"/>
      <point x="225.0" y="189.0"/>
      <point x="238.0" y="244.0" type="curve"/>
    </contour>
    <contour>
      <point x="482.0" y="140.0" type="curve" smooth="yes"/>
      <point x="451.0" y="5.0" type="line" smooth="yes"/>
      <point x="450.0" y="1.0"/>
      <point x="449.0" y="0.0"/>
      <point x="445.0" y="-1.0" type="curve" smooth="yes"/>
      <point x="240.0" y="-50.0"/>
      <point x="187.0" y="22.0"/>
      <point x="223.0" y="176.0" type="curve" smooth="yes"/>
      <point x="387.0" y="887.0" type="line" smooth="yes"/>
      <point x="623.0" y="1063.0" type="line" smooth="yes"/>
      <point x="628.0" y="1067.0"/>
      <point x="634.0" y="1067.0"/>
      <point x="638.0" y="1067.0" type="curve" smooth="yes"/>
      <point x="662.0" y="1067.0" type="line" smooth="yes"/>
      <point x="666.0" y="1067.0"/>
      <point x="668.0" y="1067.0"/>
      <point x="667.0" y="1063.0" type="curve" smooth="yes"/>
      <point x="466.0" y="191.0" type="line" smooth="yes"/>
      <point x="458.0" y="157.0"/>
      <point x="461.0" y="145.0"/>
      <point x="478.0" y="144.0" type="curve" smooth="yes"/>
      <point x="481.0" y="144.0"/>
      <point x="483.0" y="143.0"/>
    </contour>
  </outline>
</glyph>
<glyph name="b" format="2">
  <advance height="960" width="573"/>
  <unicode hex="0062"/>
  <outline>
    <contour>
      <point x="254.28515625" y="1450.0" type="curve" smooth="yes"/>
      <point x="489.28515625" y="1450.0" type="line" smooth="yes"/>
      <point x="493.28515625" y="1450.0"/>
      <point x="494.245117188" y="1449.0"/>
      <point x="493.249023438" y="1445.0" type="curve" smooth="yes"/>
      <point x="196.28515625" y="162.0" type="line"/>
      <point x="-45.71484375" y="-12.0" type="line" smooth="yes"/>
      <point x="-50.71484375" y="-16.0"/>
      <point x="-55.71484375" y="-18.0"/>
      <point x="-59.71484375" y="-18.0" type="curve" smooth="yes"/>
      <point x="-84.71484375" y="-18.0" type="line" smooth="yes"/>
      <point x="-88.71484375" y="-18.0"/>
      <point x="-89.71484375" y="-16.0"/>
      <point x="-88.71484375" y="-12.0" type="curve" smooth="yes"/>
      <point x="248.28515625" y="1445.0" type="line" smooth="yes"/>
      <point x="249.28515625" y="1449.0"/>
      <point x="250.28515625" y="1450.0"/>
    </contour>
    <contour>
      <point x="314.28515625" y="801.0" type="line"/>
      <point x="347.28515625" y="946.0"/>
      <point x="445.185546875" y="1067.0"/>
      <point x="542.51953125" y="1067.0" type="curve" smooth="yes"/>
      <point x="650.51953125" y="1067.0"/>
      <point x="686.51953125" y="997.0"/>
      <point x="647.51953125" y="827.0" type="curve" smooth="yes"/>
      <point x="508.51953125" y="224.0" type="line" smooth="yes"/>
      <point x="471.51953125" y="64.0"/>
      <point x="384.51953125" y="-18.0"/>
      <point x="236.51953125" y="-18.0" type="curve" smooth="yes"/>
      <point x="115.28515625" y="-18.0"/>
      <point x="49.28515625" y="63.0"/>
      <point x="82.28515625" y="208.0" type="curve"/>
      <point x="215.28515625" y="244.0" type="line"/>
      <point x="199.27734375" y="174.0"/>
      <point x="199.973632812" y="152.0"/>
      <point x="219.922851562" y="152.0" type="curve" smooth="yes"/>
      <point x="242.723632812" y="152.0"/>
      <point x="252.53515625" y="179.0"/>
      <point x="265.51953125" y="234.0" type="curve" smooth="yes"/>
      <point x="400.51953125" y="817.0" type="line" smooth="yes"/>
      <point x="413.51953125" y="872.0"/>
      <point x="414.72265625" y="897.0"/>
      <point x="391.922851562" y="897.0" type="curve" smooth="yes"/>
      <point x="371.97265625" y="897.0"/>
      <point x="358.26953125" y="862.0"/>
      <point x="345.284179688" y="807.0" type="curve"/>
    </contour>
  </outline>
</glyph>
<glyph name="c" format="2">
  <advance height="960" width="462"/>
  <unicode hex="0063"/>
  <anchor x="132.0" y="0.0" name="bottom"/>
  <anchor x="371.0" y="1050.0" name="top"/>
  <outline>
    <contour>
      <point x="450.026367188" y="434.0" type="curve" smooth="yes"/>
      <point x="436.026367188" y="377.0"/>
      <point x="414.026367188" y="276.0"/>
      <point x="402.026367188" y="232.0" type="curve" smooth="yes"/>
      <point x="353.026367188" y="45.0"/>
      <point x="262.026367188" y="-18.0"/>
      <point x="122.743164062" y="-18.0" type="curve" smooth="yes"/>
      <point x="-12.2568359375" y="-18.0"/>
      <point x="-72.2568359375" y="76.0"/>
      <point x="-38.2568359375" y="224.0" type="curve" smooth="yes"/>
      <point x="100.743164062" y="827.0" type="line" smooth="yes"/>
      <point x="134.743164062" y="975.0"/>
      <point x="225.743164062" y="1067.0"/>
      <point x="375.743164062" y="1067.0" type="curve" smooth="yes"/>
      <point x="528.026367188" y="1067.0"/>
      <point x="564.026367188" y="987.0"/>
      <point x="531.026367188" y="820.0" type="curve" smooth="yes"/>
      <point x="522.026367188" y="776.0"/>
      <point x="501.026367188" y="675.0"/>
      <point x="488.026367188" y="617.0" type="curve" smooth="yes"/>
      <point x="487.026367188" y="614.0"/>
      <point x="487.026367188" y="613.0"/>
      <point x="483.026367188" y="613.0" type="curve" smooth="yes"/>
      <point x="338.026367188" y="613.0" type="line" smooth="yes"/>
      <point x="335.026367188" y="613.0"/>
      <point x="332.026367188" y="615.0"/>
      <point x="332.026367188" y="617.0" type="curve" smooth="yes"/>
      <point x="348.026367188" y="685.0"/>
      <point x="358.147460938" y="735.0"/>
      <point x="367.102539062" y="772.0" type="curve" smooth="yes"/>
      <point x="386.208007812" y="859.0"/>
      <point x="388.328125" y="873.0"/>
      <point x="374.791015625" y="873.0" type="curve" smooth="yes"/>
      <point x="359.44921875" y="873.0"/>
      <point x="348.743164062" y="842.0"/>
      <point x="331.743164062" y="767.0" type="curve" smooth="yes"/>
      <point x="220.743164062" y="284.0" type="line" smooth="yes"/>
      <point x="203.743164062" y="212.0"/>
      <point x="195.743164062" y="178.0"/>
      <point x="213.84375" y="178.0" type="curve" smooth="yes"/>
      <point x="227.381835938" y="178.0"/>
      <point x="235.026367188" y="192.0"/>
      <point x="258.026367188" y="283.0" type="curve" smooth="yes"/>
      <point x="268.026367188" y="320.0"/>
      <point x="280.026367188" y="369.0"/>
      <point x="295.026367188" y="435.0" type="curve" smooth="yes"/>
      <point x="295.026367188" y="437.0"/>
      <point x="299.026367188" y="438.0"/>
      <point x="302.026367188" y="438.0" type="curve" smooth="yes"/>
      <point x="447.026367188" y="438.0" type="line" smooth="yes"/>
      <point x="451.026367188" y="438.0"/>
      <point x="451.026367188" y="437.0"/>
    </contour>
  </outline>
</glyph>
<glyph name="d" format="2">
  <advance height="960" width="569"/>
  <unicode hex="0064"/>
  <outline>
    <contour>
      <point x="289.099609375" y="238.0" type="line"/>
      <point x="256.099609375" y="93.0"/>
      <point x="168.873046875" y="-18.0"/>
      <point x="66.7431640625" y="-18.0" type="curve" smooth="yes"/>
      <point x="-41.2568359375" y="-18.0"/>
      <point x="-77.2568359375" y="54.0"/>
      <point x="-38.2568359375" y="224.0" type="curve" smooth="yes"/>
      <point x="100.743164062" y="827.0" type="line" smooth="yes"/>
      <point x="139.743164062" y="997.0"/>
      <point x="208.743164062" y="1067.0"/>
      <point x="316.743164062" y="1067.0" type="curve" smooth="yes"/>
      <point x="418.921875" y="1067.0"/>
      <point x="454.065429688" y="956.0"/>
      <point x="421.065429688" y="811.0" type="curve"/>
      <point x="390.505859375" y="807.0" type="line"/>
      <point x="403.4765625" y="862.0"/>
      <point x="409.678710938" y="897.0"/>
      <point x="388.01953125" y="897.0" type="curve" smooth="yes"/>
      <point x="366.359375" y="897.0"/>
      <point x="357.673828125" y="872.0"/>
      <point x="344.704101562" y="817.0" type="curve" smooth="yes"/>
      <point x="209.743164062" y="234.0" type="line" smooth="yes"/>
      <point x="196.743164062" y="179.0"/>
      <point x="194.359375" y="152.0"/>
      <point x="216.01953125" y="152.0" type="curve" smooth="yes"/>
      <point x="237.6796875" y="152.0"/>
      <point x="247.538085938" y="189.0"/>
      <point x="260.5078125" y="244.0" type="curve"/>
    </contour>
    <contour>
      <point x="784.065429688" y="1445.0" type="curve" smooth="yes"/>
      <point x="451.099609375" y="5.0" type="line" smooth="yes"/>
      <point x="450.099609375" y="1.0"/>
      <point x="448.099609375" y="0.0"/>
      <point x="444.099609375" y="0.0" type="curve" smooth="yes"/>
      <point x="217.099609375" y="0.0" type="line" smooth="yes"/>
      <point x="213.099609375" y="0.0"/>
      <point x="212.099609375" y="1.0"/>
      <point x="213.099609375" y="5.0" type="curve" smooth="yes"/>
      <point x="237.099609375" y="110.0" type="line"/>
      <point x="233.484375" y="126.0" type="line"/>
      <point x="538.4375" y="1445.0" type="line" smooth="yes"/>
      <point x="539.43359375" y="1449.0"/>
      <point x="541.345703125" y="1450.0"/>
      <point x="545.145507812" y="1450.0" type="curve" smooth="yes"/>
      <point x="779.065429688" y="1450.0" type="line" smooth="yes"/>
      <point x="783.065429688" y="1450.0"/>
      <point x="785.065429688" y="1449.0"/>
    </contour>
  </outline>
</glyph>
<glyph name="e" format="2">
  <advance height="960" width="551"/>
  <unicode hex="0065"/>
  <anchor x="180.0" y="0.0" name="bottom"/>
  <anchor x="289.0" y="30.0" name="ogonek"/>
  <anchor x="427.0" y="1050.0" name="top"/>
  <outline>
    <contour>
      <point x="530.9453125" y="414.0" type="curve" smooth="yes"/>
      <point x="512.9453125" y="338.0"/>
      <point x="502.9453125" y="300.0"/>
      <point x="487.9453125" y="239.0" type="curve" smooth="yes"/>
      <point x="441.9453125" y="58.0"/>
      <point x="320.9453125" y="-18.0"/>
      <point x="171.603515625" y="-18.0" type="curve" smooth="yes"/>
      <point x="-10.2119140625" y="-18.0"/>
      <point x="-74.2119140625" y="69.0"/>
      <point x="-27.2119140625" y="274.0" type="curve" smooth="yes"/>
      <point x="88.7880859375" y="777.0" type="line" smooth="yes"/>
      <point x="134.788085938" y="977.0"/>
      <point x="235.788085938" y="1067.0"/>
      <point x="421.651367188" y="1067.0" type="curve" smooth="yes"/>
      <point x="602.9453125" y="1067.0"/>
      <point x="656.9453125" y="979.0"/>
      <point x="611.9453125" y="767.0" type="curve" smooth="yes"/>
      <point x="586.9453125" y="652.0"/>
      <point x="578.9453125" y="607.0"/>
      <point x="550.9453125" y="485.0" type="curve" smooth="yes"/>
      <point x="550.9453125" y="483.0"/>
      <point x="549.9453125" y="481.0"/>
      <point x="545.9453125" y="481.0" type="curve" smooth="yes"/>
      <point x="158.788085938" y="481.0" type="line"/>
      <point x="177.788085938" y="565.0" type="line"/>
      <point x="327.321289062" y="565.0" type="line"/>
      <point x="404.489257812" y="906.0"/>
      <point x="411.279296875" y="927.0"/>
      <point x="389.619140625" y="927.0" type="curve" smooth="yes"/>
      <point x="373.375" y="927.0"/>
      <point x="363.764648438" y="901.0"/>
      <point x="349.778320312" y="841.0" type="curve" smooth="yes"/>
      <point x="203.788085938" y="209.0" type="line" smooth="yes"/>
      <point x="186.756835938" y="134.0"/>
      <point x="188.291015625" y="122.0"/>
      <point x="202.731445312" y="122.0" type="curve" smooth="yes"/>
      <point x="219.87890625" y="122.0"/>
      <point x="242.0546875" y="185.0"/>
      <point x="295.9453125" y="414.0" type="curve" smooth="yes"/>
      <point x="295.989257812" y="416.0"/>
      <point x="298.9453125" y="418.0"/>
      <point x="301.9453125" y="418.0" type="curve" smooth="yes"/>
      <point x="527.9453125" y="418.0" type="line" smooth="yes"/>
      <point x="531.9453125" y="418.0"/>
      <point x="531.9453125" y="417.0"/>
    </contour>
  </outline>
</glyph>
<glyph name="f" format="2">
  <advance height="960" width="323"/>
  <unicode hex="0066"/>
  <outline>
    <contour>
      <point x="442.212890625" y="930.0" type="curve" smooth="yes"/>
      <point x="107.212890625" y="930.0" type="line" smooth="yes"/>
      <point x="103.212890625" y="930.0"/>
      <point x="102.211914062" y="931.0"/>
      <point x="103.212890625" y="935.0" type="curve" smooth="yes"/>
      <point x="128.211914062" y="1045.0" type="line" smooth="yes"/>
      <point x="129.211914062" y="1049.0"/>
      <point x="130.211914062" y="1050.0"/>
      <point x="134.211914062" y="1050.0" type="curve" smooth="yes"/>
      <point x="469.211914062" y="1050.0" type="line" smooth="yes"/>
      <point x="473.211914062" y="1050.0"/>
      <point x="474.211914062" y="1049.0"/>
      <point x="473.211914062" y="1045.0" type="curve" smooth="yes"/>
      <point x="448.212890625" y="935.0" type="line" smooth="yes"/>
      <point x="447.211914062" y="931.0"/>
      <point x="446.212890625" y="930.0"/>
    </contour>
    <contour>
      <point x="235.211914062" y="1313.0" type="line" smooth="yes"/>
      <point x="262.212890625" y="1432.0"/>
      <point x="361.211914062" y="1469.0"/>
      <point x="558.211914062" y="1440.0" type="curve" smooth="yes"/>
      <point x="563.211914062" y="1439.0"/>
      <point x="564.212890625" y="1438.0"/>
      <point x="563.211914062" y="1434.0" type="curve" smooth="yes"/>
      <point x="533.211914062" y="1304.0" type="line" smooth="yes"/>
      <point x="532.212890625" y="1301.0"/>
      <point x="530.211914062" y="1299.0"/>
      <point x="524.212890625" y="1300.0" type="curve" smooth="yes"/>
      <point x="488.211914062" y="1308.0"/>
      <point x="473.212890625" y="1296.0"/>
      <point x="463.211914062" y="1253.0" type="curve" smooth="yes"/>
      <point x="92.2119140625" y="-355.0" type="line" smooth="yes"/>
      <point x="91.2119140625" y="-359.0"/>
      <point x="91.2119140625" y="-360.0"/>
      <point x="87.2119140625" y="-360.0" type="curve" smooth="yes"/>
      <point x="-145.788085938" y="-360.0" type="line" smooth="yes"/>
      <point x="-149.788085938" y="-360.0"/>
      <point x="-150.788085938" y="-359.0"/>
      <point x="-149.788085938" y="-355.0" type="curve" smooth="yes"/>
    </contour>
  </outline>
</glyph>
<glyph name="g" format="2">
  <advance height="960" width="547"/>
  <unicode hex="0067"/>
  <anchor x="426.0" y="1075.0" name="top"/>
  <outline>
    <contour>
      <point x="749.625976562" y="1255.0" type="curve" smooth="yes"/>
      <point x="711.625976562" y="1119.0"/>
      <point x="597.625976562" y="1030.0"/>
      <point x="429.551757812" y="1030.0" type="curve"/>
      <point x="419.9609375" y="1045.0" type="line"/>
      <point x="447.036132812" y="1045.0"/>
      <point x="480.625976562" y="1071.0"/>
      <point x="539.625976562" y="1256.0" type="curve" smooth="yes"/>
      <point x="540.625976562" y="1259.0"/>
      <point x="542.625976562" y="1260.0"/>
      <point x="546.625976562" y="1260.0" type="curve" smooth="yes"/>
      <point x="746.625976562" y="1260.0" type="line" smooth="yes"/>
      <point x="750.625976562" y="1260.0"/>
      <point x="750.625976562" y="1259.0"/>
    </contour>
    <contour>
      <point x="282.625976562" y="170.0" type="line" smooth="yes"/>
      <point x="422.625976562" y="170.0"/>
      <point x="478.625976562" y="100.0"/>
      <point x="435.625976562" y="-88.0" type="curve" smooth="yes"/>
      <point x="389.625976562" y="-286.0"/>
      <point x="281.625976562" y="-360.0"/>
      <point x="97.515625" y="-360.0" type="curve" smooth="yes"/>
      <point x="21.83984375" y="-360.0" type="line" smooth="yes"/>
      <point x="-121.499023438" y="-360.0"/>
      <point x="-184.499023438" y="-296.0"/>
      <point x="-154.499023438" y="-168.0" type="curve" smooth="yes"/>
      <point x="-131.499023438" y="-70.0"/>
      <point x="-25.4990234375" y="15.0"/>
      <point x="117.55859375" y="15.0" type="curve"/>
      <point x="180.622070312" y="15.0" type="line"/>
      <point x="139.8046875" y="5.0"/>
      <point x="101.629882812" y="-44.0"/>
      <point x="81.6201171875" y="-132.0" type="curve" smooth="yes"/>
      <point x="59.6298828125" y="-226.0"/>
      <point x="69.0966796875" y="-260.0"/>
      <point x="107.905273438" y="-260.0" type="curve" smooth="yes"/>
      <point x="114.696289062" y="-260.0" type="line" smooth="yes"/>
      <point x="143.802734375" y="-260.0"/>
      <point x="178.625976562" y="-206.0"/>
      <point x="198.625976562" y="-118.0" type="curve" smooth="yes"/>
      <point x="217.625976562" y="-34.0"/>
      <point x="209.625976562" y="0.0"/>
      <point x="170.81640625" y="0.0" type="curve" smooth="yes"/>
      <point x="61.18359375" y="0.0" type="line" smooth="yes"/>
      <point x="-38.4990234375" y="0.0"/>
      <point x="-89.4990234375" y="68.0"/>
      <point x="-67.4990234375" y="162.0" type="curve" smooth="yes"/>
      <point x="-43.4990234375" y="266.0"/>
      <point x="69.5009765625" y="333.0"/>
      <point x="187.66015625" y="333.0" type="curve"/>
      <point x="165.97265625" y="283.0" type="line"/>
      <point x="136.866210938" y="283.0"/>
      <point x="111.49609375" y="262.0"/>
      <point x="103.500976562" y="228.0" type="curve" smooth="yes"/>
      <point x="92.5009765625" y="182.0"/>
      <point x="129.297851562" y="170.0"/>
      <point x="192.360351562" y="170.0" type="curve" smooth="yes"/>
    </contour>
    <contour>
      <point x="323.625976562" y="494.0" type="curve" smooth="yes"/>
      <point x="396.643554688" y="811.0" type="line" smooth="yes"/>
      <point x="419.674804688" y="912.0"/>
      <point x="424.885742188" y="943.0"/>
      <point x="405.932617188" y="943.0" type="curve" smooth="yes"/>
      <point x="388.78515625" y="943.0"/>
      <point x="375.474609375" y="913.0"/>
      <point x="351.500976562" y="811.0" type="curve" smooth="yes"/>
      <point x="278.500976562" y="494.0" type="line" smooth="yes"/>
      <point x="252.126953125" y="396.0"/>
      <point x="251.900390625" y="363.0"/>
      <point x="270.333984375" y="363.0" type="curve" smooth="yes"/>
      <point x="290.708007812" y="363.0"/>
      <point x="299.639648438" y="392.0"/>
    </contour>
    <contour>
      <point x="561.625976562" y="574.0" type="line" smooth="yes"/>
      <point x="521.625976562" y="399.0"/>
      <point x="424.625976562" y="237.0"/>
      <point x="241.331054688" y="237.0" type="curve" smooth="yes"/>
      <point x="61.5009765625" y="237.0"/>
      <point x="36.5009765625" y="399.0"/>
      <point x="76.5009765625" y="574.0" type="curve" smooth="yes"/>
      <point x="124.500976562" y="781.0" type="line" smooth="yes"/>
      <point x="164.500976562" y="956.0"/>
      <point x="252.500976562" y="1067.0"/>
      <point x="433.994140625" y="1067.0" type="curve" smooth="yes"/>
      <point x="615.625976562" y="1067.0"/>
      <point x="649.625976562" y="956.0"/>
      <point x="609.625976562" y="781.0" type="curve" smooth="yes"/>
    </contour>
  </outline>
</glyph>
<glyph name="h" format="2">
  <advance height="960" width="561"/>
  <unicode hex="0068"/>
  <anchor x="173.0" y="0.0" name="bottom"/>
  <anchor x="373.0" y="1450.0" name="top"/>
  <outline>
    <contour>
      <point x="254.27734375" y="1450.0" type="curve" smooth="yes"/>
      <point x="489.27734375" y="1450.0" type="line" smooth="yes"/>
      <point x="493.27734375" y="1450.0"/>
      <point x="494.270507812" y="1449.0"/>
      <point x="493.27734375" y="1445.0" type="curve" smooth="yes"/>
      <point x="160.27734375" y="5.0" type="line" smooth="yes"/>
      <point x="159.27734375" y="1.0"/>
      <point x="157.27734375" y="0.0"/>
      <point x="154.27734375" y="0.0" type="curve" smooth="yes"/>
      <point x="-80.72265625" y="0.0" type="line" smooth="yes"/>
      <point x="-84.72265625" y="0.0"/>
      <point x="-85.72265625" y="1.0"/>
      <point x="-84.72265625" y="5.0" type="curve" smooth="yes"/>
      <point x="248.27734375" y="1445.0" type="line" smooth="yes"/>
      <point x="249.27734375" y="1449.0"/>
      <point x="250.27734375" y="1450.0"/>
    </contour>
    <contour>
      <point x="336.27734375" y="877.0" type="line"/>
      <point x="364.27734375" y="997.0"/>
      <point x="448.139648438" y="1067.0"/>
      <point x="542.139648438" y="1067.0" type="curve" smooth="yes"/>
      <point x="646.139648438" y="1067.0"/>
      <point x="677.139648438" y="1012.0"/>
      <point x="641.139648438" y="857.0" type="curve" smooth="yes"/>
      <point x="444.139648438" y="5.0" type="line" smooth="yes"/>
      <point x="443.139648438" y="1.0"/>
      <point x="442.139648438" y="0.0"/>
      <point x="438.139648438" y="0.0" type="curve" smooth="yes"/>
      <point x="203.139648438" y="0.0" type="line" smooth="yes"/>
      <point x="199.139648438" y="0.0"/>
      <point x="198.146484375" y="1.0"/>
      <point x="199.139648438" y="5.0" type="curve" smooth="yes"/>
      <point x="390.139648438" y="831.0" type="line" smooth="yes"/>
      <point x="402.139648438" y="881.0"/>
      <point x="402.560546875" y="903.0"/>
      <point x="389.92578125" y="903.0" type="curve" smooth="yes"/>
      <point x="373.6796875" y="903.0"/>
      <point x="359.27734375" y="866.0"/>
      <point x="335.27734375" y="761.0" type="curve"/>
    </contour>
  </outline>
</glyph>
<glyph name="i" format="2">
  <advance height="960" width="280"/>
  <unicode hex="0069"/>
  <anchor x="28.0" y="0.0" name="bottom"/>
  <anchor x="28.0" y="0.0" name="ogonek"/>
  <outline>
    <contour>
      <point x="456.287109375" y="1480.0" type="curve" smooth="yes"/>
      <point x="383.287109375" y="1165.0" type="line" smooth="yes"/>
      <point x="382.287109375" y="1161.0"/>
      <point x="381.287109375" y="1160.0"/>
      <point x="377.287109375" y="1160.0" type="curve" smooth="yes"/>
      <point x="232.287109375" y="1160.0" type="line" smooth="yes"/>
      <point x="228.287109375" y="1160.0"/>
      <point x="227.287109375" y="1161.0"/>
      <point x="228.287109375" y="1165.0" type="curve" smooth="yes"/>
      <point x="301.287109375" y="1480.0" type="line" smooth="yes"/>
      <point x="302.287109375" y="1484.0"/>
      <point x="303.287109375" y="1485.0"/>
      <point x="307.287109375" y="1485.0" type="curve" smooth="yes"/>
      <point x="452.287109375" y="1485.0" type="line" smooth="yes"/>
      <point x="456.287109375" y="1485.0"/>
      <point x="457.287109375" y="1484.0"/>
    </contour>
    <contour>
      <point x="400.287109375" y="1045.0" type="curve" smooth="yes"/>
      <point x="160.287109375" y="5.0" type="line" smooth="yes"/>
      <point x="159.287109375" y="1.0"/>
      <point x="158.287109375" y="0.0"/>
      <point x="154.287109375" y="0.0" type="curve" smooth="yes"/>
      <point x="-80.712890625" y="0.0" type="line" smooth="yes"/>
      <point x="-84.712890625" y="0.0"/>
      <point x="-85.712890625" y="1.0"/>
      <point x="-84.712890625" y="5.0" type="curve" smooth="yes"/>
      <point x="155.287109375" y="1045.0" type="line" smooth="yes"/>
      <point x="156.287109375" y="1049.0"/>
      <point x="157.287109375" y="1050.0"/>
      <point x="161.287109375" y="1050.0" type="curve" smooth="yes"/>
      <point x="396.287109375" y="1050.0" type="line" smooth="yes"/>
      <point x="400.287109375" y="1050.0"/>
      <point x="401.287109375" y="1049.0"/>
    </contour>
  </outline>
</glyph>
<glyph name="j" format="2">
  <advance height="960" width="280"/>
  <unicode hex="006A"/>
  <outline>
    <contour>
      <point x="165.733398438" y="-59.0" type="line" smooth="yes"/>
      <point x="116.733398438" y="-271.0"/>
      <point x="28.7333984375" y="-371.0"/>
      <point x="-130.266601562" y="-371.0" type="curve" smooth="yes"/>
      <point x="-369.266601562" y="-371.0"/>
      <point x="-330.266601562" y="-200.0"/>
      <point x="-295.266601562" y="-107.0" type="curve" smooth="yes"/>
      <point x="-293.266601562" y="-102.0"/>
      <point x="-290.266601562" y="-100.0"/>
      <point x="-283.266601562" y="-100.0" type="curve" smooth="yes"/>
      <point x="-147.266601562" y="-100.0" type="line" smooth="yes"/>
      <point x="-140.266601562" y="-100.0"/>
      <point x="-138.266601562" y="-103.0"/>
      <point x="-139.266601562" y="-107.0" type="curve" smooth="yes"/>
      <point x="-153.266601562" y="-151.0"/>
      <point x="-175.266601562" y="-204.0"/>
      <point x="-145.266601562" y="-204.0" type="curve" smooth="yes"/>
      <point x="-117.266601562" y="-204.0"/>
      <point x="-99.2666015625" y="-145.0"/>
      <point x="-79.2666015625" y="-60.0" type="curve" smooth="yes"/>
      <point x="174.733398438" y="1040.0" type="line" smooth="yes"/>
      <point x="176.733398438" y="1047.0"/>
      <point x="179.733398438" y="1050.0"/>
      <point x="186.733398438" y="1050.0" type="curve" smooth="yes"/>
      <point x="411.733398438" y="1050.0" type="line" smooth="yes"/>
      <point x="418.733398438" y="1050.0"/>
      <point x="421.733398438" y="1047.0"/>
      <point x="419.733398438" y="1040.0" type="curve" smooth="yes"/>
    </contour>
    <contour>
      <point x="476.733398438" y="1480.0" type="curve" smooth="yes"/>
      <point x="403.733398438" y="1165.0" type="line" smooth="yes"/>
      <point x="402.733398438" y="1161.0"/>
      <point x="401.733398438" y="1160.0"/>
      <point x="397.733398438" y="1160.0" type="curve" smooth="yes"/>
      <point x="252.733398438" y="1160.0" type="line" smooth="yes"/>
      <point x="248.733398438" y="1160.0"/>
      <point x="247.733398438" y="1161.0"/>
      <point x="248.733398438" y="1165.0" type="curve" smooth="yes"/>
      <point x="321.733398438" y="1480.0" type="line" smooth="yes"/>
      <point x="322.733398438" y="1484.0"/>
      <point x="323.733398438" y="1485.0"/>
      <point x="327.733398438" y="1485.0" type="curve" smooth="yes"/>
      <point x="472.733398438" y="1485.0" type="line" smooth="yes"/>
      <point x="476.733398438" y="1485.0"/>
      <point x="477.733398438" y="1484.0"/>
    </contour>
  </outline>
</glyph>
<glyph name="k" format="2">
  <advance height="960" width="578"/>
  <unicode hex="006B"/>
  <outline>
    <contour>
      <point x="254.27734375" y="1450.0" type="curve" smooth="yes"/>
      <point x="489.27734375" y="1450.0" type="line" smooth="yes"/>
      <point x="493.27734375" y="1450.0"/>
      <point x="494.216796875" y="1449.0"/>
      <point x="493.224609375" y="1445.0" type="curve" smooth="yes"/>
      <point x="160.27734375" y="5.0" type="line" smooth="yes"/>
      <point x="159.27734375" y="1.0"/>
      <point x="158.27734375" y="0.0"/>
      <point x="154.27734375" y="0.0" type="curve" smooth="yes"/>
      <point x="-80.72265625" y="0.0" type="line" smooth="yes"/>
      <point x="-84.72265625" y="0.0"/>
      <point x="-85.72265625" y="1.0"/>
      <point x="-84.72265625" y="5.0" type="curve" smooth="yes"/>
      <point x="248.27734375" y="1445.0" type="line" smooth="yes"/>
      <point x="249.27734375" y="1449.0"/>
      <point x="250.27734375" y="1450.0"/>
    </contour>
    <contour>
      <point x="171.27734375" y="422.0" type="line"/>
      <point x="531.0" y="1045.0" type="line" smooth="yes"/>
      <point x="533.0" y="1049.0"/>
      <point x="536.0" y="1050.0"/>
      <point x="542.0" y="1050.0" type="curve" smooth="yes"/>
      <point x="754.0" y="1050.0" type="line" smooth="yes"/>
      <point x="758.0" y="1050.0"/>
      <point x="759.0" y="1050.0"/>
      <point x="755.0" y="1045.0" type="curve" smooth="yes"/>
      <point x="203.27734375" y="256.0" type="line"/>
    </contour>
    <contour>
      <point x="274.27734375" y="586.0" type="line"/>
      <point x="412.0" y="616.0" type="line"/>
      <point x="523.0" y="5.0" type="line" smooth="yes"/>
      <point x="524.0" y="1.0"/>
      <point x="524.0" y="0.0"/>
      <point x="520.0" y="0.0" type="curve" smooth="yes"/>
      <point x="245.0" y="0.0" type="line" smooth="yes"/>
      <point x="241.390625" y="0.0"/>
      <point x="239.607421875" y="1.0"/>
      <point x="238.795898438" y="5.0" type="curve" smooth="yes"/>
    </contour>
  </outline>
</glyph>
<glyph name="l" format="2">
  <advance height="960" width="280"/>
  <unicode hex="006C"/>
  <outline>
    <contour>
      <point x="254.27734375" y="1450.0" type="curve" smooth="yes"/>
      <point x="489.27734375" y="1450.0" type="line" smooth="yes"/>
      <point x="493.27734375" y="1450.0"/>
      <point x="494.27734375" y="1449.0"/>
      <point x="493.27734375" y="1445.0" type="curve" smooth="yes"/>
      <point x="160.27734375" y="5.0" type="line" smooth="yes"/>
      <point x="159.27734375" y="1.0"/>
      <point x="157.27734375" y="0.0"/>
      <point x="154.27734375" y="0.0" type="curve" smooth="yes"/>
      <point x="-80.72265625" y="0.0" type="line" smooth="yes"/>
      <point x="-84.72265625" y="0.0"/>
      <point x="-85.72265625" y="1.0"/>
      <point x="-84.72265625" y="5.0" type="curve" smooth="yes"/>
      <point x="248.27734375" y="1445.0" type="line" smooth="yes"/>
      <point x="249.27734375" y="1449.0"/>
      <point x="250.27734375" y="1450.0"/>
    </contour>
  </outline>
</glyph>
<glyph name="m" format="2">
  <advance height="960" width="779"/>
  <unicode hex="006D"/>
  <outline>
    <contour>
      <point x="551.885742188" y="877.0" type="line"/>
      <point x="579.884765625" y="997.0"/>
      <point x="661.609375" y="1067.0"/>
      <point x="758.51953125" y="1067.0" type="curve" smooth="yes"/>
      <point x="862.51953125" y="1067.0"/>
      <point x="894.51953125" y="1012.0"/>
      <point x="858.51953125" y="857.0" type="curve" smooth="yes"/>
      <point x="661.51953125" y="5.0" type="line" smooth="yes"/>
      <point x="660.51953125" y="1.0"/>
      <point x="659.51953125" y="0.0"/>
      <point x="655.51953125" y="0.0" type="curve" smooth="yes"/>
      <point x="430.51953125" y="0.0" type="line" smooth="yes"/>
      <point x="426.51953125" y="0.0"/>
      <point x="425.526367188" y="1.0"/>
      <point x="426.51953125" y="5.0" type="curve" smooth="yes"/>
      <point x="623.51953125" y="857.0" type="line" smooth="yes"/>
      <point x="630.51953125" y="887.0"/>
      <point x="627.233398438" y="903.0"/>
      <point x="615.500976562" y="903.0" type="curve" smooth="yes"/>
      <point x="603.767578125" y="903.0"/>
      <point x="590.874023438" y="892.0"/>
      <point x="566.862304688" y="787.0" type="curve"/>
    </contour>
    <contour>
      <point x="161.287109375" y="1050.0" type="curve" smooth="yes"/>
      <point x="381.287109375" y="1050.0" type="line" smooth="yes"/>
      <point x="385.287109375" y="1050.0"/>
      <point x="386.287109375" y="1049.0"/>
      <point x="385.287109375" y="1045.0" type="curve" smooth="yes"/>
      <point x="345.287109375" y="869.0" type="line"/>
      <point x="346.287109375" y="855.0" type="line"/>
      <point x="150.287109375" y="5.0" type="line" smooth="yes"/>
      <point x="149.287109375" y="1.0"/>
      <point x="148.287109375" y="0.0"/>
      <point x="144.287109375" y="0.0" type="curve" smooth="yes"/>
      <point x="-80.712890625" y="0.0" type="line" smooth="yes"/>
      <point x="-84.712890625" y="0.0"/>
      <point x="-85.712890625" y="1.0"/>
      <point x="-84.712890625" y="5.0" type="curve" smooth="yes"/>
      <point x="155.287109375" y="1045.0" type="line" smooth="yes"/>
      <point x="156.287109375" y="1049.0"/>
      <point x="157.287109375" y="1050.0"/>
    </contour>
    <contour>
      <point x="326.287109375" y="877.0" type="line"/>
      <point x="354.287109375" y="997.0"/>
      <point x="411.55078125" y="1067.0"/>
      <point x="502.884765625" y="1067.0" type="curve" smooth="yes"/>
      <point x="596.884765625" y="1067.0"/>
      <point x="618.856445312" y="1012.0"/>
      <point x="582.870117188" y="857.0" type="curve" smooth="yes"/>
      <point x="385.884765625" y="5.0" type="line" smooth="yes"/>
      <point x="384.884765625" y="1.0"/>
      <point x="383.884765625" y="0.0"/>
      <point x="379.884765625" y="0.0" type="curve" smooth="yes"/>
      <point x="194.884765625" y="0.0" type="line" smooth="yes"/>
      <point x="190.884765625" y="0.0"/>
      <point x="189.907226562" y="1.0"/>
      <point x="190.900390625" y="5.0" type="curve" smooth="yes"/>
      <point x="387.885742188" y="857.0" type="line" smooth="yes"/>
      <point x="394.885742188" y="887.0"/>
      <point x="390.7109375" y="903.0"/>
      <point x="379.880859375" y="903.0" type="curve" smooth="yes"/>
      <point x="368.1484375" y="903.0"/>
      <point x="355.266601562" y="892.0"/>
      <point x="331.243164062" y="787.0" type="curve"/>
    </contour>
  </outline>
</glyph>
<glyph name="n" format="2">
  <advance height="960" width="561"/>
  <unicode hex="006E"/>
  <anchor x="197.0" y="0.0" name="bottom"/>
  <anchor x="440.0" y="1050.0" name="top"/>
  <outline>
    <contour>
      <point x="161.287109375" y="1050.0" type="curve" smooth="yes"/>
      <point x="391.287109375" y="1050.0" type="line" smooth="yes"/>
      <point x="395.287109375" y="1050.0"/>
      <point x="396.287109375" y="1049.0"/>
      <point x="395.287109375" y="1045.0" type="curve" smooth="yes"/>
      <point x="355.287109375" y="869.0" type="line"/>
      <point x="356.287109375" y="855.0" type="line"/>
      <point x="160.287109375" y="5.0" type="line" smooth="yes"/>
      <point x="159.287109375" y="1.0"/>
      <point x="158.287109375" y="0.0"/>
      <point x="154.287109375" y="0.0" type="curve" smooth="yes"/>
      <point x="-80.712890625" y="0.0" type="line" smooth="yes"/>
      <point x="-84.712890625" y="0.0"/>
      <point x="-85.712890625" y="1.0"/>
      <point x="-84.712890625" y="5.0" type="curve" smooth="yes"/>
      <point x="155.287109375" y="1045.0" type="line" smooth="yes"/>
      <point x="156.287109375" y="1049.0"/>
      <point x="157.287109375" y="1050.0"/>
    </contour>
    <contour>
      <point x="336.287109375" y="877.0" type="line"/>
      <point x="364.287109375" y="997.0"/>
      <point x="448.095703125" y="1067.0"/>
      <point x="542.095703125" y="1067.0" type="curve" smooth="yes"/>
      <point x="646.095703125" y="1067.0"/>
      <point x="677.095703125" y="1012.0"/>
      <point x="641.095703125" y="857.0" type="curve" smooth="yes"/>
      <point x="444.095703125" y="5.0" type="line" smooth="yes"/>
      <point x="443.095703125" y="1.0"/>
      <point x="442.095703125" y="0.0"/>
      <point x="438.095703125" y="0.0" type="curve" smooth="yes"/>
      <point x="203.095703125" y="0.0" type="line" smooth="yes"/>
      <point x="199.095703125" y="0.0"/>
      <point x="198.1015625" y="1.0"/>
      <point x="199.095703125" y="5.0" type="curve" smooth="yes"/>
      <point x="390.095703125" y="831.0" type="line" smooth="yes"/>
      <point x="402.095703125" y="881.0"/>
      <point x="402.516601562" y="903.0"/>
      <point x="389.880859375" y="903.0" type="curve" smooth="yes"/>
      <point x="373.635742188" y="903.0"/>
      <point x="359.265625" y="866.0"/>
      <point x="335.2421875" y="761.0" type="curve"/>
    </contour>
  </outline>
</glyph>
<glyph name="o" format="2">
  <advance height="960" width="561"/>
  <unicode hex="006F"/>
  <anchor x="170.0" y="0.0" name="bottom"/>
  <anchor x="412.0" y="1050.0" name="top"/>
  <outline>
    <contour>
      <point x="-27.2119140625" y="274.0" type="curve" smooth="yes"/>
      <point x="88.7880859375" y="777.0" type="line" smooth="yes"/>
      <point x="133.788085938" y="972.0"/>
      <point x="237.788085938" y="1067.0"/>
      <point x="423.651367188" y="1067.0" type="curve" smooth="yes"/>
      <point x="609.400390625" y="1067.0"/>
      <point x="669.400390625" y="972.0"/>
      <point x="624.400390625" y="777.0" type="curve" smooth="yes"/>
      <point x="508.400390625" y="274.0" type="line" smooth="yes"/>
      <point x="463.400390625" y="79.0"/>
      <point x="359.400390625" y="-18.0"/>
      <point x="173.603515625" y="-18.0" type="curve" smooth="yes"/>
      <point x="-12.2119140625" y="-18.0"/>
      <point x="-72.2119140625" y="79.0"/>
    </contour>
    <contour>
      <point x="205.788085938" y="209.0" type="line" smooth="yes"/>
      <point x="191.788085938" y="149.0"/>
      <point x="189.389648438" y="122.0"/>
      <point x="205.634765625" y="122.0" type="curve" smooth="yes"/>
      <point x="221.87890625" y="122.0"/>
      <point x="232.4140625" y="149.0"/>
      <point x="246.400390625" y="209.0" type="curve" smooth="yes"/>
      <point x="392.400390625" y="841.0" type="line" smooth="yes"/>
      <point x="406.400390625" y="901.0"/>
      <point x="407.865234375" y="927.0"/>
      <point x="391.619140625" y="927.0" type="curve" smooth="yes"/>
      <point x="375.375" y="927.0"/>
      <point x="365.764648438" y="901.0"/>
      <point x="351.778320312" y="841.0" type="curve" smooth="yes"/>
    </contour>
  </outline>
</glyph>
<glyph name="p" format="2">
  <advance height="960" width="571"/>
  <unicode hex="0070"/>
  <outline>
    <contour>
      <point x="314.287109375" y="801.0" type="line"/>
      <point x="347.287109375" y="946.0"/>
      <point x="419.755859375" y="1067.0"/>
      <point x="519.922851562" y="1067.0" type="curve" smooth="yes"/>
      <point x="627.922851562" y="1067.0"/>
      <point x="683.922851562" y="997.0"/>
      <point x="644.922851562" y="827.0" type="curve" smooth="yes"/>
      <point x="505.922851562" y="224.0" type="line" smooth="yes"/>
      <point x="466.922851562" y="54.0"/>
      <point x="377.922851562" y="-18.0"/>
      <point x="269.922851562" y="-18.0" type="curve" smooth="yes"/>
      <point x="169.708007812" y="-18.0"/>
      <point x="153.287109375" y="103.0"/>
      <point x="186.287109375" y="248.0" type="curve"/>
      <point x="215.287109375" y="244.0" type="line"/>
      <point x="202.287109375" y="189.0"/>
      <point x="197.0" y="152.0"/>
      <point x="218.659179688" y="152.0" type="curve" smooth="yes"/>
      <point x="240.319335938" y="152.0"/>
      <point x="249.953125" y="179.0"/>
      <point x="262.922851562" y="234.0" type="curve" smooth="yes"/>
      <point x="397.922851562" y="817.0" type="line" smooth="yes"/>
      <point x="410.922851562" y="872.0"/>
      <point x="412.319335938" y="897.0"/>
      <point x="390.659179688" y="897.0" type="curve" smooth="yes"/>
      <point x="369.0" y="897.0"/>
      <point x="358.284179688" y="862.0"/>
      <point x="345.287109375" y="807.0" type="curve"/>
    </contour>
    <contour>
      <point x="-167.712890625" y="-355.0" type="curve" smooth="yes"/>
      <point x="155.287109375" y="1045.0" type="line" smooth="yes"/>
      <point x="156.287109375" y="1049.0"/>
      <point x="157.287109375" y="1050.0"/>
      <point x="161.287109375" y="1050.0" type="curve" smooth="yes"/>
      <point x="389.287109375" y="1050.0" type="line" smooth="yes"/>
      <point x="393.287109375" y="1050.0"/>
      <point x="393.287109375" y="1049.0"/>
      <point x="392.287109375" y="1045.0" type="curve" smooth="yes"/>
      <point x="363.287109375" y="920.0" type="line"/>
      <point x="372.287109375" y="924.0" type="line"/>
      <point x="77.287109375" y="-355.0" type="line" smooth="yes"/>
      <point x="76.287109375" y="-359.0"/>
      <point x="75.287109375" y="-360.0"/>
      <point x="71.287109375" y="-360.0" type="curve" smooth="yes"/>
      <point x="-163.712890625" y="-360.0" type="line" smooth="yes"/>
      <point x="-167.712890625" y="-360.0"/>
      <point x="-168.712890625" y="-359.0"/>
    </contour>
  </outline>
</glyph>
<glyph name="q" format="2">
  <advance height="960" width="570"/>
  <unicode hex="0071"/>
  <outline>
    <contour>
      <point x="361.479492188" y="-360.0" type="curve" smooth="yes"/>
      <point x="127.479492188" y="-360.0" type="line" smooth="yes"/>
      <point x="123.479492188" y="-360.0"/>
      <point x="121.487304688" y="-359.0"/>
      <point x="122.479492188" y="-355.0" type="curve" smooth="yes"/>
      <point x="409.479492188" y="887.0" type="line"/>
      <point x="651.479492188" y="1063.0" type="line" smooth="yes"/>
      <point x="656.479492188" y="1067.0"/>
      <point x="662.479492188" y="1067.0"/>
      <point x="666.479492188" y="1067.0" type="curve" smooth="yes"/>
      <point x="690.479492188" y="1067.0" type="line" smooth="yes"/>
      <point x="694.479492188" y="1067.0"/>
      <point x="696.479492188" y="1067.0"/>
      <point x="695.479492188" y="1063.0" type="curve" smooth="yes"/>
      <point x="368.479492188" y="-355.0" type="line" smooth="yes"/>
      <point x="367.479492188" y="-359.0"/>
      <point x="365.479492188" y="-360.0"/>
    </contour>
    <contour>
      <point x="289.479492188" y="238.0" type="line"/>
      <point x="256.479492188" y="93.0"/>
      <point x="163.458007812" y="-18.0"/>
      <point x="66.7431640625" y="-18.0" type="curve" smooth="yes"/>
      <point x="-41.2568359375" y="-18.0"/>
      <point x="-77.2578125" y="54.0"/>
      <point x="-38.2578125" y="224.0" type="curve" smooth="yes"/>
      <point x="100.7421875" y="827.0" type="line" smooth="yes"/>
      <point x="137.7421875" y="987.0"/>
      <point x="223.7421875" y="1067.0"/>
      <point x="371.7421875" y="1067.0" type="curve" smooth="yes"/>
      <point x="490.479492188" y="1067.0"/>
      <point x="557.479492188" y="986.0"/>
      <point x="524.479492188" y="841.0" type="curve"/>
      <point x="390.505859375" y="807.0" type="line"/>
      <point x="406.521484375" y="877.0"/>
      <point x="406.971679688" y="897.0"/>
      <point x="388.01953125" y="897.0" type="curve" smooth="yes"/>
      <point x="366.359375" y="897.0"/>
      <point x="357.673828125" y="872.0"/>
      <point x="344.704101562" y="817.0" type="curve" smooth="yes"/>
      <point x="209.7421875" y="234.0" type="line" smooth="yes"/>
      <point x="196.743164062" y="179.0"/>
      <point x="194.359375" y="152.0"/>
      <point x="216.01953125" y="152.0" type="curve" smooth="yes"/>
      <point x="234.971679688" y="152.0"/>
      <point x="247.538085938" y="189.0"/>
      <point x="260.5078125" y="244.0" type="curve"/>
    </contour>
  </outline>
</glyph>
<glyph name="r" format="2">
  <advance height="960" width="497"/>
  <unicode hex="0072"/>
  <anchor x="32.0" y="0.0" name="bottom"/>
  <anchor x="350.0" y="1050.0" name="top"/>
  <outline>
    <contour>
      <point x="277.287109375" y="513.0" type="curve"/>
      <point x="290.287109375" y="770.0" type="line"/>
      <point x="364.287109375" y="930.0"/>
      <point x="414.122070312" y="1059.0"/>
      <point x="544.041015625" y="1059.0" type="curve" smooth="yes"/>
      <point x="693.041015625" y="1059.0"/>
      <point x="596.041015625" y="813.0"/>
      <point x="493.041015625" y="620.0" type="curve" smooth="yes"/>
      <point x="490.041015625" y="615.0"/>
      <point x="487.041015625" y="613.0"/>
      <point x="480.041015625" y="613.0" type="curve" smooth="yes"/>
      <point x="339.041015625" y="613.0" type="line" smooth="yes"/>
      <point x="332.041015625" y="613.0"/>
      <point x="331.047851562" y="616.0"/>
      <point x="332.041015625" y="620.0" type="curve" smooth="yes"/>
      <point x="359.041015625" y="720.0"/>
      <point x="420.041015625" y="840.0"/>
      <point x="392.041015625" y="840.0" type="curve" smooth="yes"/>
      <point x="364.970703125" y="840.0"/>
      <point x="327.026367188" y="718.0"/>
    </contour>
    <contour>
      <point x="161.287109375" y="1050.0" type="curve" smooth="yes"/>
      <point x="379.287109375" y="1050.0" type="line" smooth="yes"/>
      <point x="383.287109375" y="1050.0"/>
      <point x="383.287109375" y="1048.0"/>
      <point x="382.287109375" y="1045.0" type="curve" smooth="yes"/>
      <point x="323.287109375" y="787.0" type="line"/>
      <point x="340.22265625" y="783.0" type="line"/>
      <point x="160.260742188" y="5.0" type="line" smooth="yes"/>
      <point x="159.267578125" y="1.0"/>
      <point x="157.287109375" y="0.0"/>
      <point x="154.287109375" y="0.0" type="curve" smooth="yes"/>
      <point x="-80.712890625" y="0.0" type="line" smooth="yes"/>
      <point x="-83.712890625" y="0.0"/>
      <point x="-85.712890625" y="2.0"/>
      <point x="-84.712890625" y="5.0" type="curve" smooth="yes"/>
      <point x="155.287109375" y="1045.0" type="line" smooth="yes"/>
      <point x="156.287109375" y="1048.0"/>
      <point x="158.287109375" y="1050.0"/>
    </contour>
  </outline>
</glyph>
<glyph name="s" format="2">
  <advance height="960" width="485"/>
  <unicode hex="0073"/>
  <anchor x="123.0" y="0.0" name="bottom"/>
  <anchor x="363.0" y="1050.0" name="top"/>
  <outline>
    <contour>
      <point x="-3.2529296875" y="399.0" type="curve" smooth="yes"/>
      <point x="162.747070312" y="399.0" type="line" smooth="yes"/>
      <point x="166.747070312" y="399.0"/>
      <point x="168.747070312" y="397.0"/>
      <point x="167.747070312" y="394.0" type="curve" smooth="yes"/>
      <point x="154.747070312" y="339.0"/>
      <point x="146.747070312" y="299.0"/>
      <point x="137.747070312" y="257.0" type="curve" smooth="yes"/>
      <point x="123.604492188" y="190.0"/>
      <point x="120.266601562" y="162.0"/>
      <point x="138.31640625" y="162.0" type="curve" smooth="yes"/>
      <point x="153.659179688" y="162.0"/>
      <point x="167.654296875" y="181.0"/>
      <point x="184.654296875" y="256.0" type="curve" smooth="yes"/>
      <point x="253.747070312" y="531.0"/>
      <point x="24.7470703125" y="467.0"/>
      <point x="102.747070312" y="804.0" type="curve" smooth="yes"/>
      <point x="145.747070312" y="992.0"/>
      <point x="251.747070312" y="1067.0"/>
      <point x="396.291992188" y="1067.0" type="curve" smooth="yes"/>
      <point x="528.674804688" y="1067.0"/>
      <point x="580.674804688" y="982.0"/>
      <point x="551.674804688" y="842.0" type="curve" smooth="yes"/>
      <point x="538.674804688" y="777.0"/>
      <point x="527.674804688" y="727.0"/>
      <point x="513.674804688" y="666.0" type="curve" smooth="yes"/>
      <point x="512.674804688" y="663.0"/>
      <point x="511.674804688" y="661.0"/>
      <point x="507.674804688" y="661.0" type="curve" smooth="yes"/>
      <point x="350.674804688" y="661.0" type="line" smooth="yes"/>
      <point x="346.674804688" y="661.0"/>
      <point x="345.705078125" y="664.0"/>
      <point x="346.674804688" y="667.0" type="curve" smooth="yes"/>
      <point x="355.676757812" y="706.0"/>
      <point x="366.674804688" y="746.0"/>
      <point x="382.69921875" y="824.0" type="curve" smooth="yes"/>
      <point x="393.842773438" y="878.0"/>
      <point x="389.712890625" y="895.0"/>
      <point x="377.078125" y="895.0" type="curve" smooth="yes"/>
      <point x="365.345703125" y="895.0"/>
      <point x="347.747070312" y="875.0"/>
      <point x="335.747070312" y="823.0" type="curve" smooth="yes"/>
      <point x="266.747070312" y="525.0"/>
      <point x="513.674804688" y="601.0"/>
      <point x="428.654296875" y="231.0" type="curve" smooth="yes"/>
      <point x="393.654296875" y="79.0"/>
      <point x="309.654296875" y="-18.0"/>
      <point x="139.654296875" y="-18.0" type="curve" smooth="yes"/>
      <point x="-40.2529296875" y="-18.0"/>
      <point x="-76.2529296875" y="65.0"/>
      <point x="-48.2529296875" y="211.0" type="curve" smooth="yes"/>
      <point x="-39.2529296875" y="258.0"/>
      <point x="-26.2529296875" y="318.0"/>
      <point x="-8.2529296875" y="395.0" type="curve" smooth="yes"/>
      <point x="-7.2529296875" y="398.0"/>
      <point x="-7.2529296875" y="399.0"/>
    </contour>
  </outline>
</glyph>
<glyph name="t" format="2">
  <advance height="960" width="344"/>
  <unicode hex="0074"/>
  <anchor x="134.0" y="0.0" name="bottom"/>
  <outline>
    <contour>
      <point x="456.48046875" y="930.0" type="curve" smooth="yes"/>
      <point x="96.48046875" y="930.0" type="line" smooth="yes"/>
      <point x="92.48046875" y="930.0"/>
      <point x="90.48046875" y="931.0"/>
      <point x="91.48046875" y="935.0" type="curve" smooth="yes"/>
      <point x="116.48046875" y="1045.0" type="line" smooth="yes"/>
      <point x="117.48046875" y="1049.0"/>
      <point x="119.48046875" y="1050.0"/>
      <point x="123.48046875" y="1050.0" type="curve" smooth="yes"/>
      <point x="483.48046875" y="1050.0" type="line" smooth="yes"/>
      <point x="487.48046875" y="1050.0"/>
      <point x="487.48046875" y="1049.0"/>
      <point x="486.48046875" y="1045.0" type="curve" smooth="yes"/>
      <point x="461.48046875" y="935.0" type="line" smooth="yes"/>
      <point x="460.48046875" y="931.0"/>
      <point x="460.48046875" y="930.0"/>
    </contour>
    <contour>
      <point x="285.48046875" y="160.0" type="curve" smooth="yes"/>
      <point x="249.48046875" y="5.0" type="line" smooth="yes"/>
      <point x="248.48046875" y="1.0"/>
      <point x="247.48046875" y="-1.0"/>
      <point x="243.48046875" y="-1.0" type="curve" smooth="yes"/>
      <point x="-7.51953125" y="-30.0"/>
      <point x="-69.51953125" y="22.0"/>
      <point x="-33.51953125" y="176.0" type="curve" smooth="yes"/>
      <point x="247.48046875" y="1395.0" type="line" smooth="yes"/>
      <point x="248.48046875" y="1399.0"/>
      <point x="250.48046875" y="1400.0"/>
      <point x="254.48046875" y="1400.0" type="curve" smooth="yes"/>
      <point x="486.48046875" y="1400.0" type="line" smooth="yes"/>
      <point x="490.48046875" y="1400.0"/>
      <point x="491.48046875" y="1399.0"/>
      <point x="490.48046875" y="1395.0" type="curve" smooth="yes"/>
      <point x="217.48046875" y="211.0" type="line" smooth="yes"/>
      <point x="205.48046875" y="157.0"/>
      <point x="239.48046875" y="155.0"/>
      <point x="281.48046875" y="164.0" type="curve" smooth="yes"/>
      <point x="284.48046875" y="165.0"/>
      <point x="286.48046875" y="163.0"/>
    </contour>
  </outline>
</glyph>
<glyph name="u" format="2">
  <advance height="960" width="563"/>
  <unicode hex="0075"/>
  <anchor x="142.0" y="0.0" name="bottom"/>
  <anchor x="319.0" y="0.0" name="ogonek"/>
  <anchor x="406.0" y="1050.0" name="top"/>
  <outline>
    <contour>
      <point x="438.208007812" y="0.0" type="curve" smooth="yes"/>
      <point x="208.208007812" y="0.0" type="line" smooth="yes"/>
      <point x="204.208007812" y="0.0"/>
      <point x="202.208007812" y="1.0"/>
      <point x="203.208007812" y="5.0" type="curve" smooth="yes"/>
      <point x="244.208007812" y="182.0" type="line"/>
      <point x="243.208007812" y="195.0" type="line"/>
      <point x="439.185546875" y="1045.0" type="line" smooth="yes"/>
      <point x="440.185546875" y="1049.0"/>
      <point x="440.200195312" y="1050.0"/>
      <point x="444.185546875" y="1050.0" type="curve" smooth="yes"/>
      <point x="680.185546875" y="1050.0" type="line" smooth="yes"/>
      <point x="684.185546875" y="1050.0"/>
      <point x="684.185546875" y="1049.0"/>
      <point x="683.185546875" y="1045.0" type="curve" smooth="yes"/>
      <point x="443.208007812" y="5.0" type="line" smooth="yes"/>
      <point x="442.208007812" y="1.0"/>
      <point x="442.208007812" y="0.0"/>
    </contour>
    <contour>
      <point x="262.208007812" y="174.0" type="line"/>
      <point x="234.208007812" y="54.0"/>
      <point x="149.580078125" y="-18.0"/>
      <point x="55.580078125" y="-18.0" type="curve" smooth="yes"/>
      <point x="-48.419921875" y="-18.0"/>
      <point x="-79.419921875" y="39.0"/>
      <point x="-43.419921875" y="194.0" type="curve" smooth="yes"/>
      <point x="152.580078125" y="1045.0" type="line" smooth="yes"/>
      <point x="153.580078125" y="1049.0"/>
      <point x="155.580078125" y="1050.0"/>
      <point x="159.580078125" y="1050.0" type="curve" smooth="yes"/>
      <point x="393.580078125" y="1050.0" type="line" smooth="yes"/>
      <point x="397.580078125" y="1050.0"/>
      <point x="399.565429688" y="1049.0"/>
      <point x="398.573242188" y="1045.0" type="curve" smooth="yes"/>
      <point x="207.580078125" y="218.0" type="line" smooth="yes"/>
      <point x="195.580078125" y="168.0"/>
      <point x="194.272460938" y="148.0"/>
      <point x="206.907226562" y="148.0" type="curve" smooth="yes"/>
      <point x="223.15234375" y="148.0"/>
      <point x="240.208007812" y="183.0"/>
      <point x="264.208007812" y="288.0" type="curve"/>
    </contour>
  </outline>
</glyph>
<glyph name="v" format="2">
  <advance height="960" width="524"/>
  <unicode hex="0076"/>
  <outline>
    <contour>
      <point x="255.145507812" y="319.0" type="line"/>
      <point x="478.145507812" y="1045.0" type="line" smooth="yes"/>
      <point x="480.145507812" y="1049.0"/>
      <point x="482.145507812" y="1050.0"/>
      <point x="486.145507812" y="1050.0" type="curve" smooth="yes"/>
      <point x="676.145507812" y="1050.0" type="line" smooth="yes"/>
      <point x="680.145507812" y="1050.0"/>
      <point x="681.145507812" y="1049.0"/>
      <point x="678.145507812" y="1045.0" type="curve" smooth="yes"/>
      <point x="325.145507812" y="5.0" type="line" smooth="yes"/>
      <point x="322.145507812" y="1.0"/>
      <point x="321.145507812" y="0.0"/>
      <point x="317.145507812" y="0.0" type="curve" smooth="yes"/>
      <point x="25.1455078125" y="0.0" type="line" smooth="yes"/>
      <point x="21.1455078125" y="0.0"/>
      <point x="20.1455078125" y="1.0"/>
      <point x="19.1455078125" y="5.0" type="curve" smooth="yes"/>
      <point x="120.145507812" y="1045.0" type="line" smooth="yes"/>
      <point x="120.145507812" y="1049.0"/>
      <point x="120.145507812" y="1050.0"/>
      <point x="124.145507812" y="1050.0" type="curve" smooth="yes"/>
      <point x="379.145507812" y="1050.0" type="line" smooth="yes"/>
      <point x="383.145507812" y="1050.0"/>
      <point x="385.145507812" y="1049.0"/>
      <point x="385.145507812" y="1045.0" type="curve" smooth="yes"/>
    </contour>
  </outline>
</glyph>
<glyph name="w" format="2">
  <advance height="960" width="647"/>
  <unicode hex="0077"/>
  <outline>
    <contour>
      <point x="476.797851562" y="454.0" type="line"/>
      <point x="637.240234375" y="1045.0" type="line" smooth="yes"/>
      <point x="639.1640625" y="1049.0"/>
      <point x="640.39453125" y="1050.0"/>
      <point x="644.39453125" y="1050.0" type="curve" smooth="yes"/>
      <point x="789.39453125" y="1050.0" type="line" smooth="yes"/>
      <point x="793.39453125" y="1050.0"/>
      <point x="794.1640625" y="1049.0"/>
      <point x="792.240234375" y="1045.0" type="curve" smooth="yes"/>
      <point x="485.137695312" y="5.0" type="line" smooth="yes"/>
      <point x="483.213867188" y="1.0"/>
      <point x="480.983398438" y="0.0"/>
      <point x="476.983398438" y="0.0" type="curve" smooth="yes"/>
      <point x="259.983398438" y="0.0" type="line" smooth="yes"/>
      <point x="255.983398438" y="0.0"/>
      <point x="254.213867188" y="1.0"/>
      <point x="254.137695312" y="5.0" type="curve" smooth="yes"/>
      <point x="338.193359375" y="459.0" type="line"/>
      <point x="200.888671875" y="5.0" type="line" smooth="yes"/>
      <point x="198.96484375" y="1.0"/>
      <point x="196.734375" y="0.0"/>
      <point x="192.734375" y="0.0" type="curve" smooth="yes"/>
      <point x="-29.265625" y="0.0" type="line" smooth="yes"/>
      <point x="-33.265625" y="0.0"/>
      <point x="-35.03515625" y="1.0"/>
      <point x="-35.111328125" y="5.0" type="curve" smooth="yes"/>
      <point x="132.991210938" y="1045.0" type="line" smooth="yes"/>
      <point x="132.915039062" y="1049.0"/>
      <point x="134.145507812" y="1050.0"/>
      <point x="138.145507812" y="1050.0" type="curve" smooth="yes"/>
      <point x="358.145507812" y="1050.0" type="line" smooth="yes"/>
      <point x="362.145507812" y="1050.0"/>
      <point x="362.915039062" y="1049.0"/>
      <point x="362.991210938" y="1045.0" type="curve" smooth="yes"/>
      <point x="246.01171875" y="469.0" type="line"/>
      <point x="432.991210938" y="1045.0" type="line" smooth="yes"/>
      <point x="434.915039062" y="1049.0"/>
      <point x="436.145507812" y="1050.0"/>
      <point x="440.145507812" y="1050.0" type="curve" smooth="yes"/>
      <point x="562.39453125" y="1050.0" type="line" smooth="yes"/>
      <point x="566.39453125" y="1050.0"/>
      <point x="567.1640625" y="1049.0"/>
      <point x="567.240234375" y="1045.0" type="curve" smooth="yes"/>
    </contour>
  </outline>
</glyph>
<glyph name="x" format="2">
  <advance height="960" width="542"/>
  <unicode hex="0078"/>
  <outline>
    <contour>
      <point x="91.7353515625" y="0.0" type="curve" smooth="yes"/>
      <point x="-123.264648438" y="0.0" type="line" smooth="yes"/>
      <point x="-127.264648438" y="0.0"/>
      <point x="-128.264648438" y="1.0"/>
      <point x="-124.264648438" y="5.0" type="curve" smooth="yes"/>
      <point x="143.735351562" y="508.0" type="line"/>
      <point x="138.735351562" y="1045.0" type="line" smooth="yes"/>
      <point x="136.735351562" y="1049.0"/>
      <point x="136.735351562" y="1050.0"/>
      <point x="140.735351562" y="1050.0" type="curve" smooth="yes"/>
      <point x="394.244140625" y="1050.0" type="line" smooth="yes"/>
      <point x="397.853515625" y="1050.0"/>
      <point x="399.635742188" y="1049.0"/>
      <point x="400.448242188" y="1045.0" type="curve" smooth="yes"/>
      <point x="338.03515625" y="718.0" type="line"/>
      <point x="455.766601562" y="1045.0" type="line" smooth="yes"/>
      <point x="458.766601562" y="1049.0"/>
      <point x="460.766601562" y="1050.0"/>
      <point x="464.766601562" y="1050.0" type="curve" smooth="yes"/>
      <point x="679.766601562" y="1050.0" type="line" smooth="yes"/>
      <point x="683.766601562" y="1050.0"/>
      <point x="683.766601562" y="1049.0"/>
      <point x="679.766601562" y="1045.0" type="curve" smooth="yes"/>
      <point x="409.766601562" y="507.0" type="line"/>
      <point x="457.766601562" y="5.0" type="line" smooth="yes"/>
      <point x="459.766601562" y="1.0"/>
      <point x="458.766601562" y="0.0"/>
      <point x="454.766601562" y="0.0" type="curve" smooth="yes"/>
      <point x="174.766601562" y="0.0" type="line" smooth="yes"/>
      <point x="171.155273438" y="0.0"/>
      <point x="169.374023438" y="1.0"/>
      <point x="168.560546875" y="5.0" type="curve" smooth="yes"/>
      <point x="221.813476562" y="326.0" type="line"/>
      <point x="108.995117188" y="5.0" type="line" smooth="yes"/>
      <point x="106.198242188" y="1.0"/>
      <point x="95.345703125" y="0.0"/>
    </contour>
  </outline>
</glyph>
<glyph name="y" format="2">
  <advance height="960" width="534"/>
  <unicode hex="0079"/>
  <anchor x="404.0" y="1050.0" name="top"/>
  <outline>
    <contour>
      <point x="252.05859375" y="281.0" type="line"/>
      <point x="493.05859375" y="1045.0" type="line" smooth="yes"/>
      <point x="495.05859375" y="1048.0"/>
      <point x="497.05859375" y="1050.0"/>
      <point x="501.05859375" y="1050.0" type="curve" smooth="yes"/>
      <point x="691.05859375" y="1050.0" type="line" smooth="yes"/>
      <point x="695.05859375" y="1050.0"/>
      <point x="694.05859375" y="1048.0"/>
      <point x="693.05859375" y="1045.0" type="curve" smooth="yes"/>
      <point x="312.05859375" y="-59.0" type="line" smooth="yes"/>
      <point x="240.05859375" y="-268.0"/>
      <point x="146.05859375" y="-371.0"/>
      <point x="-12.94140625" y="-371.0" type="curve" smooth="yes"/>
      <point x="-251.94140625" y="-371.0"/>
      <point x="-212.94140625" y="-200.0"/>
      <point x="-177.94140625" y="-107.0" type="curve" smooth="yes"/>
      <point x="-175.94140625" y="-102.0"/>
      <point x="-172.94140625" y="-100.0"/>
      <point x="-165.94140625" y="-100.0" type="curve" smooth="yes"/>
      <point x="-29.94140625" y="-100.0" type="line" smooth="yes"/>
      <point x="-22.94140625" y="-100.0"/>
      <point x="-20.94140625" y="-103.0"/>
      <point x="-21.94140625" y="-107.0" type="curve" smooth="yes"/>
      <point x="-35.94140625" y="-151.0"/>
      <point x="-57.94140625" y="-204.0"/>
      <point x="-27.94140625" y="-204.0" type="curve" smooth="yes"/>
      <point x="-4.94140625" y="-204.0"/>
      <point x="7.05859375" y="-163.0"/>
      <point x="30.05859375" y="-104.0" type="curve"/>
      <point x="124.05859375" y="1045.0" type="line" smooth="yes"/>
      <point x="124.05859375" y="1048.0"/>
      <point x="124.05859375" y="1050.0"/>
      <point x="128.05859375" y="1050.0" type="curve" smooth="yes"/>
      <point x="378.05859375" y="1050.0" type="line" smooth="yes"/>
      <point x="382.05859375" y="1050.0"/>
      <point x="384.05859375" y="1048.0"/>
      <point x="384.05859375" y="1045.0" type="curve" smooth="yes"/>
    </contour>
  </outline>
</glyph>
<glyph name="z" format="2">
  <advance height="960" width="479"/>
  <unicode hex="007A"/>
  <anchor x="362.0" y="1050.0" name="top"/>
  <outline>
    <contour>
      <point x="-116.104492188" y="5.0" type="curve" smooth="yes"/>
      <point x="306.895507812" y="875.0" type="line"/>
      <point x="120.895507812" y="875.0" type="line" smooth="yes"/>
      <point x="116.895507812" y="875.0"/>
      <point x="115.895507812" y="876.0"/>
      <point x="116.895507812" y="880.0" type="curve" smooth="yes"/>
      <point x="154.895507812" y="1045.0" type="line" smooth="yes"/>
      <point x="155.895507812" y="1049.0"/>
      <point x="156.895507812" y="1050.0"/>
      <point x="160.895507812" y="1050.0" type="curve" smooth="yes"/>
      <point x="630.895507812" y="1050.0" type="line" smooth="yes"/>
      <point x="634.895507812" y="1050.0"/>
      <point x="635.895507812" y="1049.0"/>
      <point x="631.895507812" y="1045.0" type="curve" smooth="yes"/>
      <point x="228.895507812" y="175.0" type="line"/>
      <point x="398.895507812" y="175.0" type="line" smooth="yes"/>
      <point x="402.895507812" y="175.0"/>
      <point x="403.895507812" y="174.0"/>
      <point x="402.895507812" y="170.0" type="curve" smooth="yes"/>
      <point x="364.895507812" y="5.0" type="line" smooth="yes"/>
      <point x="363.895507812" y="2.0"/>
      <point x="362.895507812" y="0.0"/>
      <point x="358.895507812" y="0.0" type="curve" smooth="yes"/>
      <point x="-116.104492188" y="0.0" type="line" smooth="yes"/>
      <point x="-120.104492188" y="0.0"/>
      <point x="-120.104492188" y="1.0"/>
    </contour>
  </outline>
</glyph>
<glyph name="braceleft" format="2">
  <advance height="2048" width="388"/>
  <unicode hex="007B"/>
  <outline>
    <contour>
      <point x="290.0" y="1439.0" type="line" smooth="yes"/>
      <point x="316.0" y="1553.0"/>
      <point x="372.0" y="1599.0"/>
      <point x="581.0" y="1600.0" type="curve" smooth="yes"/>
      <point x="585.0" y="1600.0"/>
      <point x="587.0" y="1599.0"/>
      <point x="586.0" y="1595.0" type="curve" smooth="yes"/>
      <point x="562.0" y="1490.0" type="line" smooth="yes"/>
      <point x="561.0" y="1486.0"/>
      <point x="559.0" y="1485.0"/>
      <point x="555.0" y="1485.0" type="curve" smooth="yes"/>
      <point x="505.0" y="1483.0"/>
      <point x="481.0" y="1456.0"/>
      <point x="461.0" y="1369.0" type="curve" smooth="yes"/>
      <point x="327.0" y="788.0" type="line" smooth="yes"/>
      <point x="306.0" y="696.0"/>
      <point x="250.0" y="644.0"/>
      <point x="166.0" y="620.0" type="curve"/>
      <point x="238.0" y="596.0"/>
      <point x="270.0" y="544.0"/>
      <point x="249.0" y="452.0" type="curve" smooth="yes"/>
      <point x="116.0" y="-124.0" type="line" smooth="yes"/>
      <point x="96.0" y="-210.0"/>
      <point x="109.0" y="-237.0"/>
      <point x="156.0" y="-240.0" type="curve" smooth="yes"/>
      <point x="161.0" y="-240.0"/>
      <point x="162.0" y="-241.0"/>
      <point x="161.0" y="-245.0" type="curve" smooth="yes"/>
      <point x="136.0" y="-355.0" type="line" smooth="yes"/>
      <point x="135.0" y="-359.0"/>
      <point x="133.0" y="-360.0"/>
      <point x="129.0" y="-360.0" type="curve" smooth="yes"/>
      <point x="-79.0" y="-358.0"/>
      <point x="-114.0" y="-313.0"/>
      <point x="-88.0" y="-199.0" type="curve" smooth="yes"/>
      <point x="62.0" y="452.0" type="line" smooth="yes"/>
      <point x="77.0" y="518.0"/>
      <point x="65.0" y="545.0"/>
      <point x="21.0" y="561.0" type="curve" smooth="yes"/>
      <point x="17.0" y="563.0"/>
      <point x="15.0" y="564.0"/>
      <point x="16.0" y="568.0" type="curve" smooth="yes"/>
      <point x="40.0" y="672.0" type="line" smooth="yes"/>
      <point x="41.0" y="676.0"/>
      <point x="43.0" y="677.0"/>
      <point x="47.0" y="678.0" type="curve" smooth="yes"/>
      <point x="101.0" y="694.0"/>
      <point x="125.0" y="721.0"/>
      <point x="140.0" y="788.0" type="curve" smooth="yes"/>
    </contour>
  </outline>
</glyph>
<glyph name="bar" format="2">
  <advance height="1920" width="260"/>
  <unicode hex="007C"/>
  <outline>
    <contour>
      <point x="294.0" y="1600.0" type="curve" smooth="yes"/>
      <point x="464.0" y="1600.0" type="line" smooth="yes"/>
      <point x="468.0" y="1600.0"/>
      <point x="469.0" y="1597.0"/>
      <point x="467.0" y="1590.0" type="curve" smooth="yes"/>
      <point x="19.0" y="-350.0" type="line" smooth="yes"/>
      <point x="17.0" y="-357.0"/>
      <point x="16.0" y="-360.0"/>
      <point x="12.0" y="-360.0" type="curve" smooth="yes"/>
      <point x="-158.0" y="-360.0" type="line" smooth="yes"/>
      <point x="-162.0" y="-360.0"/>
      <point x="-163.0" y="-357.0"/>
      <point x="-161.0" y="-350.0" type="curve" smooth="yes"/>
      <point x="287.0" y="1590.0" type="line" smooth="yes"/>
      <point x="289.0" y="1597.0"/>
      <point x="290.0" y="1600.0"/>
    </contour>
  </outline>
</glyph>
<glyph name="braceright" format="2">
  <advance height="2048" width="388"/>
  <unicode hex="007D"/>
  <outline>
    <contour>
      <point x="144.0" y="-199.0" type="line" smooth="yes"/>
      <point x="118.0" y="-313.0"/>
      <point x="62.0" y="-359.0"/>
      <point x="-147.0" y="-360.0" type="curve" smooth="yes"/>
      <point x="-151.0" y="-360.0"/>
      <point x="-153.0" y="-359.0"/>
      <point x="-152.0" y="-355.0" type="curve" smooth="yes"/>
      <point x="-128.0" y="-250.0" type="line" smooth="yes"/>
      <point x="-127.0" y="-246.0"/>
      <point x="-125.0" y="-245.0"/>
      <point x="-121.0" y="-245.0" type="curve" smooth="yes"/>
      <point x="-71.0" y="-243.0"/>
      <point x="-47.0" y="-216.0"/>
      <point x="-27.0" y="-129.0" type="curve" smooth="yes"/>
      <point x="107.0" y="452.0" type="line" smooth="yes"/>
      <point x="128.0" y="544.0"/>
      <point x="184.0" y="596.0"/>
      <point x="268.0" y="620.0" type="curve"/>
      <point x="196.0" y="644.0"/>
      <point x="164.0" y="696.0"/>
      <point x="185.0" y="788.0" type="curve" smooth="yes"/>
      <point x="318.0" y="1364.0" type="line" smooth="yes"/>
      <point x="338.0" y="1450.0"/>
      <point x="326.0" y="1477.0"/>
      <point x="279.0" y="1480.0" type="curve" smooth="yes"/>
      <point x="274.0" y="1480.0"/>
      <point x="272.0" y="1481.0"/>
      <point x="273.0" y="1485.0" type="curve" smooth="yes"/>
      <point x="298.0" y="1595.0" type="line" smooth="yes"/>
      <point x="299.0" y="1599.0"/>
      <point x="301.0" y="1600.0"/>
      <point x="305.0" y="1600.0" type="curve" smooth="yes"/>
      <point x="513.0" y="1598.0"/>
      <point x="548.0" y="1553.0"/>
      <point x="522.0" y="1439.0" type="curve" smooth="yes"/>
      <point x="372.0" y="788.0" type="line" smooth="yes"/>
      <point x="357.0" y="722.0"/>
      <point x="370.0" y="695.0"/>
      <point x="414.0" y="679.0" type="curve" smooth="yes"/>
      <point x="418.0" y="677.0"/>
      <point x="419.0" y="676.0"/>
      <point x="418.0" y="672.0" type="curve" smooth="yes"/>
      <point x="394.0" y="568.0" type="line" smooth="yes"/>
      <point x="393.0" y="564.0"/>
      <point x="392.0" y="563.0"/>
      <point x="388.0" y="562.0" type="curve" smooth="yes"/>
      <point x="334.0" y="546.0"/>
      <point x="309.0" y="519.0"/>
      <point x="294.0" y="452.0" type="curve" smooth="yes"/>
    </contour>
  </outline>
</glyph>
<glyph name="asciitilde" format="2">
  <advance height="2048" width="664"/>
  <unicode hex="007E"/>
  <outline>
    <contour>
      <point x="220.0" y="562.0" type="curve" smooth="yes"/>
      <point x="194.0" y="562.0"/>
      <point x="186.0" y="537.0"/>
      <point x="178.0" y="511.0" type="curve" smooth="yes"/>
      <point x="177.0" y="508.0"/>
      <point x="174.0" y="507.0"/>
      <point x="171.0" y="507.0" type="curve" smooth="yes"/>
      <point x="1.0" y="507.0" type="line" smooth="yes"/>
      <point x="-3.0" y="507.0"/>
      <point x="-3.0" y="508.0"/>
      <point x="-2.0" y="511.0" type="curve" smooth="yes"/>
      <point x="24.0" y="615.0"/>
      <point x="126.0" y="742.0"/>
      <point x="261.0" y="742.0" type="curve" smooth="yes"/>
      <point x="405.0" y="742.0"/>
      <point x="432.0" y="644.0"/>
      <point x="483.0" y="644.0" type="curve" smooth="yes"/>
      <point x="509.0" y="644.0"/>
      <point x="520.0" y="678.0"/>
      <point x="527.0" y="699.0" type="curve" smooth="yes"/>
      <point x="528.0" y="702.0"/>
      <point x="530.0" y="704.0"/>
      <point x="533.0" y="704.0" type="curve" smooth="yes"/>
      <point x="703.0" y="704.0" type="line" smooth="yes"/>
      <point x="707.0" y="704.0"/>
      <point x="706.0" y="703.0"/>
      <point x="705.0" y="699.0" type="curve" smooth="yes"/>
      <point x="679.0" y="595.0"/>
      <point x="577.0" y="469.0"/>
      <point x="442.0" y="469.0" type="curve" smooth="yes"/>
      <point x="298.0" y="469.0"/>
      <point x="271.0" y="562.0"/>
    </contour>
  </outline>
</glyph>
<glyph name="exclamdown" format="2">
  <advance height="1920" width="400"/>
  <unicode hex="00A1"/>
  <outline>
    <contour>
      <point x="207.0" y="1050.0" type="curve" smooth="yes"/>
      <point x="437.0" y="1050.0" type="line" smooth="yes"/>
      <point x="444.0" y="1050.0"/>
      <point x="447.0" y="1047.0"/>
      <point x="445.0" y="1040.0" type="curve" smooth="yes"/>
      <point x="367.0" y="700.0" type="line" smooth="yes"/>
      <point x="365.0" y="693.0"/>
      <point x="361.0" y="690.0"/>
      <point x="354.0" y="690.0" type="curve" smooth="yes"/>
      <point x="124.0" y="690.0" type="line" smooth="yes"/>
      <point x="117.0" y="690.0"/>
      <point x="115.0" y="693.0"/>
      <point x="117.0" y="700.0" type="curve" smooth="yes"/>
      <point x="195.0" y="1040.0" type="line" smooth="yes"/>
      <point x="197.0" y="1047.0"/>
      <point x="200.0" y="1050.0"/>
    </contour>
    <contour>
      <point x="258.0" y="100.0" type="curve" smooth="yes"/>
      <point x="145.0" y="-390.0" type="line" smooth="yes"/>
      <point x="143.0" y="-397.0"/>
      <point x="140.0" y="-400.0"/>
      <point x="133.0" y="-400.0" type="curve" smooth="yes"/>
      <point x="-157.0" y="-400.0" type="line" smooth="yes"/>
      <point x="-164.0" y="-400.0"/>
      <point x="-167.0" y="-397.0"/>
      <point x="-165.0" y="-390.0" type="curve" smooth="yes"/>
      <point x="-52.0" y="100.0" type="line" smooth="yes"/>
      <point x="-50.0" y="107.0"/>
      <point x="-48.0" y="113.0"/>
      <point x="-46.0" y="120.0" type="curve" smooth="yes"/>
      <point x="149.0" y="540.0" type="line" smooth="yes"/>
      <point x="151.0" y="547.0"/>
      <point x="155.0" y="550.0"/>
      <point x="162.0" y="550.0" type="curve" smooth="yes"/>
      <point x="252.0" y="550.0" type="line" smooth="yes"/>
      <point x="259.0" y="550.0"/>
      <point x="262.0" y="547.0"/>
      <point x="261.0" y="540.0" type="curve" smooth="yes"/>
      <point x="262.0" y="120.0" type="line" smooth="yes"/>
      <point x="261.0" y="113.0"/>
      <point x="260.0" y="107.0"/>
    </contour>
  </outline>
</glyph>
<glyph name="cent" format="2">
  <advance height="1920" width="462"/>
  <unicode hex="00A2"/>
  <outline>
    <contour>
      <point x="396.141601562" y="1240.0" type="curve" smooth="yes"/>
      <point x="426.141601562" y="1240.0" type="line" smooth="yes"/>
      <point x="430.141601562" y="1240.0"/>
      <point x="431.141601562" y="1237.0"/>
      <point x="429.141601562" y="1230.0" type="curve" smooth="yes"/>
      <point x="103.141601562" y="-180.0" type="line" smooth="yes"/>
      <point x="101.141601562" y="-187.0"/>
      <point x="100.141601562" y="-190.0"/>
      <point x="96.1416015625" y="-190.0" type="curve" smooth="yes"/>
      <point x="66.1416015625" y="-190.0" type="line" smooth="yes"/>
      <point x="62.1416015625" y="-190.0"/>
      <point x="61.1416015625" y="-187.0"/>
      <point x="63.1416015625" y="-180.0" type="curve" smooth="yes"/>
      <point x="389.141601562" y="1230.0" type="line" smooth="yes"/>
      <point x="391.141601562" y="1237.0"/>
      <point x="392.141601562" y="1240.0"/>
    </contour>
    <component base="c"/>
  </outline>
</glyph>
<glyph name="sterling" format="2">
  <advance height="1920" width="610"/>
  <unicode hex="00A3"/>
  <outline>
    <contour>
      <point x="44.0" y="622.0" type="curve" smooth="yes"/>
      <point x="78.0" y="770.0" type="line" smooth="yes"/>
      <point x="79.0" y="774.0"/>
      <point x="81.0" y="775.0"/>
      <point x="85.0" y="775.0" type="curve" smooth="yes"/>
      <point x="579.0" y="775.0" type="line" smooth="yes"/>
      <point x="583.0" y="775.0"/>
      <point x="585.0" y="774.0"/>
      <point x="584.0" y="770.0" type="curve" smooth="yes"/>
      <point x="550.0" y="622.0" type="line" smooth="yes"/>
      <point x="549.0" y="618.0"/>
      <point x="546.0" y="617.0"/>
      <point x="542.0" y="617.0" type="curve" smooth="yes"/>
      <point x="48.0" y="617.0" type="line" smooth="yes"/>
      <point x="44.0" y="617.0"/>
      <point x="43.0" y="618.0"/>
    </contour>
    <contour>
      <point x="-41.0" y="177.0" type="curve" smooth="yes"/>
      <point x="54.0" y="295.0"/>
      <point x="138.0" y="422.0"/>
      <point x="192.0" y="657.0" type="curve" smooth="yes"/>
      <point x="238.0" y="856.0"/>
      <point x="156.0" y="907.0"/>
      <point x="198.0" y="1091.0" type="curve" smooth="yes"/>
      <point x="248.0" y="1306.0"/>
      <point x="357.0" y="1417.0"/>
      <point x="525.0" y="1417.0" type="curve" smooth="yes"/>
      <point x="697.0" y="1417.0"/>
      <point x="766.0" y="1315.0"/>
      <point x="693.0" y="967.0" type="curve" smooth="yes"/>
      <point x="692.0" y="963.0"/>
      <point x="692.0" y="963.0"/>
      <point x="688.0" y="963.0" type="curve" smooth="yes"/>
      <point x="462.0" y="963.0" type="line" smooth="yes"/>
      <point x="459.0" y="963.0"/>
      <point x="457.0" y="963.0"/>
      <point x="458.0" y="967.0" type="curve" smooth="yes"/>
      <point x="512.0" y="1210.0"/>
      <point x="527.0" y="1247.0"/>
      <point x="500.0" y="1247.0" type="curve" smooth="yes"/>
      <point x="482.0" y="1247.0"/>
      <point x="465.0" y="1211.0"/>
      <point x="432.0" y="1066.0" type="curve" smooth="yes"/>
      <point x="404.0" y="945.0"/>
      <point x="474.0" y="885.0"/>
      <point x="425.0" y="672.0" type="curve" smooth="yes"/>
      <point x="368.0" y="426.0"/>
      <point x="282.0" y="295.0"/>
      <point x="186.0" y="177.0" type="curve"/>
      <point x="501.0" y="177.0" type="line" smooth="yes"/>
      <point x="505.0" y="177.0"/>
      <point x="507.0" y="176.0"/>
      <point x="506.0" y="172.0" type="curve" smooth="yes"/>
      <point x="467.0" y="5.0" type="line" smooth="yes"/>
      <point x="466.0" y="1.0"/>
      <point x="464.0" y="0.0"/>
      <point x="460.0" y="0.0" type="curve" smooth="yes"/>
      <point x="-80.0" y="0.0" type="line" smooth="yes"/>
      <point x="-84.0" y="0.0"/>
      <point x="-84.0" y="1.0"/>
      <point x="-83.0" y="5.0" type="curve" smooth="yes"/>
      <point x="-44.0" y="172.0" type="line" smooth="yes"/>
      <point x="-44.0" y="174.0"/>
      <point x="-43.0" y="174.0"/>
    </contour>
  </outline>
</glyph>
<glyph name="currency" format="2">
  <advance width="579"/>
  <unicode hex="00A4"/>
  <outline>
    <contour>
      <point x="567.0" y="991.0" type="curve" smooth="yes"/>
      <point x="655.0" y="877.0" type="line" smooth="yes"/>
      <point x="657.0" y="875.0"/>
      <point x="655.0" y="872.0"/>
      <point x="653.0" y="870.0" type="curve" smooth="yes"/>
      <point x="553.0" y="788.0" type="line" smooth="yes"/>
      <point x="551.0" y="786.0"/>
      <point x="548.0" y="786.0"/>
      <point x="546.0" y="788.0" type="curve" smooth="yes"/>
      <point x="459.0" y="902.0" type="line" smooth="yes"/>
      <point x="457.0" y="904.0"/>
      <point x="459.0" y="908.0"/>
      <point x="461.0" y="910.0" type="curve" smooth="yes"/>
      <point x="560.0" y="991.0" type="line" smooth="yes"/>
      <point x="562.0" y="993.0"/>
      <point x="565.0" y="993.0"/>
    </contour>
    <contour>
      <point x="119.0" y="627.0" type="curve" smooth="yes"/>
      <point x="207.0" y="513.0" type="line" smooth="yes"/>
      <point x="209.0" y="511.0"/>
      <point x="207.0" y="507.0"/>
      <point x="205.0" y="505.0" type="curve" smooth="yes"/>
      <point x="105.0" y="424.0" type="line" smooth="yes"/>
      <point x="103.0" y="422.0"/>
      <point x="100.0" y="422.0"/>
      <point x="98.0" y="424.0" type="curve" smooth="yes"/>
      <point x="11.0" y="538.0" type="line" smooth="yes"/>
      <point x="9.0" y="540.0"/>
      <point x="10.0" y="543.0"/>
      <point x="12.0" y="545.0" type="curve" smooth="yes"/>
      <point x="112.0" y="627.0" type="line" smooth="yes"/>
      <point x="114.0" y="629.0"/>
      <point x="117.0" y="629.0"/>
    </contour>
    <contour>
      <point x="89.0" y="877.0" type="curve" smooth="yes"/>
      <point x="229.0" y="991.0" type="line" smooth="yes"/>
      <point x="231.0" y="993.0"/>
      <point x="234.0" y="993.0"/>
      <point x="236.0" y="991.0" type="curve" smooth="yes"/>
      <point x="299.0" y="910.0" type="line" smooth="yes"/>
      <point x="301.0" y="908.0"/>
      <point x="299.0" y="904.0"/>
      <point x="297.0" y="902.0" type="curve" smooth="yes"/>
      <point x="156.0" y="788.0" type="line" smooth="yes"/>
      <point x="154.0" y="786.0"/>
      <point x="151.0" y="786.0"/>
      <point x="149.0" y="788.0" type="curve" smooth="yes"/>
      <point x="87.0" y="870.0" type="line" smooth="yes"/>
      <point x="85.0" y="872.0"/>
      <point x="87.0" y="875.0"/>
    </contour>
    <contour>
      <point x="369.0" y="513.0" type="curve" smooth="yes"/>
      <point x="466.0" y="592.0" type="line" smooth="yes"/>
      <point x="468.0" y="594.0"/>
      <point x="514.0" y="629.0"/>
      <point x="516.0" y="627.0" type="curve" smooth="yes"/>
      <point x="578.0" y="545.0" type="line" smooth="yes"/>
      <point x="580.0" y="543.0"/>
      <point x="579.0" y="540.0"/>
      <point x="577.0" y="538.0" type="curve" smooth="yes"/>
      <point x="436.0" y="424.0" type="line" smooth="yes"/>
      <point x="434.0" y="422.0"/>
      <point x="431.0" y="422.0"/>
      <point x="429.0" y="424.0" type="curve" smooth="yes"/>
      <point x="367.0" y="505.0" type="line" smooth="yes"/>
      <point x="365.0" y="507.0"/>
      <point x="367.0" y="511.0"/>
    </contour>
    <contour>
      <point x="89.0" y="709.0" type="curve" smooth="yes"/>
      <point x="120.0" y="843.0"/>
      <point x="258.0" y="954.0"/>
      <point x="392.0" y="954.0" type="curve" smooth="yes"/>
      <point x="526.0" y="954.0"/>
      <point x="610.0" y="843.0"/>
      <point x="579.0" y="709.0" type="curve" smooth="yes"/>
      <point x="548.0" y="575.0"/>
      <point x="413.0" y="464.0"/>
      <point x="279.0" y="464.0" type="curve" smooth="yes"/>
      <point x="145.0" y="464.0"/>
      <point x="58.0" y="575.0"/>
    </contour>
    <contour>
      <point x="269.0" y="709.0" type="curve" smooth="yes"/>
      <point x="259.0" y="665.0"/>
      <point x="275.0" y="639.0"/>
      <point x="319.0" y="639.0" type="curve" smooth="yes"/>
      <point x="363.0" y="639.0"/>
      <point x="389.0" y="665.0"/>
      <point x="399.0" y="709.0" type="curve" smooth="yes"/>
      <point x="409.0" y="753.0"/>
      <point x="395.0" y="779.0"/>
      <point x="351.0" y="779.0" type="curve" smooth="yes"/>
      <point x="307.0" y="779.0"/>
      <point x="279.0" y="753.0"/>
    </contour>
  </outline>
</glyph>
